<?xml version="1.0" encoding="us-ascii" standalone="no"?><svg xmlns="http://www.w3.org/2000/svg" xmlns:xlink="http://www.w3.org/1999/xlink" contentStyleType="text/css" height="992px" preserveAspectRatio="none" style="width:1536px;height:992px;background:#FFFFFF;" version="1.1" viewBox="0 0 1536 992" width="1536px" zoomAndPan="magnify"><defs/><g><!--class Persona--><g id="elem_Persona"><rect codeLine="10" fill="#90EE90" height="164.3594" id="Persona" rx="2.5" ry="2.5" style="stroke:#181818;stroke-width:0.5;" width="132" x="495.5" y="821"/><ellipse cx="531.65" cy="842.3516" fill="#ADD1B2" rx="11" ry="11" style="stroke:#181818;stroke-width:1.0;"/><path d="M534.4156,838.2266 Q534.5719,838.0078 534.7594,837.8984 Q534.9469,837.7891 535.1656,837.7891 Q535.5406,837.7891 535.775,838.0547 Q536.0094,838.3047 536.0094,838.9141 L536.0094,840.3672 Q536.0094,840.9766 535.775,841.2422 Q535.5406,841.5078 535.1656,841.5078 Q534.8219,841.5078 534.6188,841.3047 Q534.4156,841.1172 534.3063,840.6016 Q534.2594,840.2422 534.0719,840.0547 Q533.7438,839.6797 533.1344,839.4609 Q532.525,839.2422 531.9,839.2422 Q531.1344,839.2422 530.4938,839.5703 Q529.8688,839.8984 529.3688,840.6484 Q528.8844,841.3984 528.8844,842.4297 L528.8844,843.5234 Q528.8844,844.7578 529.775,845.5859 Q530.6656,846.3984 532.2594,846.3984 Q533.1969,846.3984 533.8531,846.1484 Q534.2438,845.9922 534.6656,845.5547 Q534.9313,845.2891 535.0719,845.2109 Q535.2281,845.1328 535.4313,845.1328 Q535.7594,845.1328 536.0094,845.3984 Q536.275,845.6484 536.275,845.9922 Q536.275,846.3359 535.9313,846.7422 Q535.4313,847.3203 534.6344,847.6484 Q533.5563,848.1016 532.2594,848.1016 Q530.7438,848.1016 529.5406,847.4766 Q528.5563,846.9766 527.8688,845.9141 Q527.1813,844.8359 527.1813,843.5547 L527.1813,842.3984 Q527.1813,841.0703 527.7906,839.9297 Q528.4156,838.7734 529.5094,838.1641 Q530.6031,837.5391 531.8375,837.5391 Q532.5719,837.5391 533.2125,837.7109 Q533.8688,837.8672 534.4156,838.2266 Z " fill="#000000"/><text fill="#000000" font-family="sans-serif" font-size="12" font-style="italic" lengthAdjust="spacing" textLength="56" x="548.85" y="838.457">&#171;Entidad&#187;</text><text fill="#000000" font-family="sans-serif" font-size="14" lengthAdjust="spacing" textLength="53" x="550.35" y="855.627">Persona</text><line style="stroke:#181818;stroke-width:0.5;" x1="496.5" x2="626.5" y1="863.7031" y2="863.7031"/><ellipse cx="506.5" cy="878.0078" fill="none" rx="3" ry="3" style="stroke:#038048;stroke-width:1.0;"/><text fill="#000000" font-family="sans-serif" font-size="14" lengthAdjust="spacing" textLength="42" x="515.5" y="882.2363">Id : int,</text><ellipse cx="506.5" cy="895.6172" fill="none" rx="3" ry="3" style="stroke:#038048;stroke-width:1.0;"/><text fill="#000000" font-family="sans-serif" font-size="14" lengthAdjust="spacing" textLength="96" x="515.5" y="899.8457">Nombre: string,</text><ellipse cx="506.5" cy="913.2266" fill="none" rx="3" ry="3" style="stroke:#038048;stroke-width:1.0;"/><text fill="#000000" font-family="sans-serif" font-size="14" lengthAdjust="spacing" textLength="97" x="515.5" y="917.4551">Apellido: string,</text><ellipse cx="506.5" cy="930.8359" fill="none" rx="3" ry="3" style="stroke:#038048;stroke-width:1.0;"/><text fill="#000000" font-family="sans-serif" font-size="14" lengthAdjust="spacing" textLength="103" x="515.5" y="935.0645">Telefono: string,</text><ellipse cx="506.5" cy="948.4453" fill="none" rx="3" ry="3" style="stroke:#038048;stroke-width:1.0;"/><text fill="#000000" font-family="sans-serif" font-size="14" lengthAdjust="spacing" textLength="92" x="515.5" y="952.6738">Cedula: string,</text><ellipse cx="506.5" cy="966.0547" fill="none" rx="3" ry="3" style="stroke:#038048;stroke-width:1.0;"/><text fill="#000000" font-family="sans-serif" font-size="14" lengthAdjust="spacing" textLength="106" x="515.5" y="970.2832">Direccion: string,</text><line style="stroke:#181818;stroke-width:0.5;" x1="496.5" x2="626.5" y1="977.3594" y2="977.3594"/></g><!--class Usuario--><g id="elem_Usuario"><rect codeLine="19" fill="#90EE90" height="129.1406" id="Usuario" rx="2.5" ry="2.5" style="stroke:#181818;stroke-width:0.5;" width="147" x="307" y="587"/><ellipse cx="350.35" cy="608.3516" fill="#ADD1B2" rx="11" ry="11" style="stroke:#181818;stroke-width:1.0;"/><path d="M353.1156,604.2266 Q353.2719,604.0078 353.4594,603.8984 Q353.6469,603.7891 353.8656,603.7891 Q354.2406,603.7891 354.475,604.0547 Q354.7094,604.3047 354.7094,604.9141 L354.7094,606.3672 Q354.7094,606.9766 354.475,607.2422 Q354.2406,607.5078 353.8656,607.5078 Q353.5219,607.5078 353.3188,607.3047 Q353.1156,607.1172 353.0063,606.6016 Q352.9594,606.2422 352.7719,606.0547 Q352.4438,605.6797 351.8344,605.4609 Q351.225,605.2422 350.6,605.2422 Q349.8344,605.2422 349.1938,605.5703 Q348.5688,605.8984 348.0688,606.6484 Q347.5844,607.3984 347.5844,608.4297 L347.5844,609.5234 Q347.5844,610.7578 348.475,611.5859 Q349.3656,612.3984 350.9594,612.3984 Q351.8969,612.3984 352.5531,612.1484 Q352.9438,611.9922 353.3656,611.5547 Q353.6313,611.2891 353.7719,611.2109 Q353.9281,611.1328 354.1313,611.1328 Q354.4594,611.1328 354.7094,611.3984 Q354.975,611.6484 354.975,611.9922 Q354.975,612.3359 354.6313,612.7422 Q354.1313,613.3203 353.3344,613.6484 Q352.2563,614.1016 350.9594,614.1016 Q349.4438,614.1016 348.2406,613.4766 Q347.2563,612.9766 346.5688,611.9141 Q345.8813,610.8359 345.8813,609.5547 L345.8813,608.3984 Q345.8813,607.0703 346.4906,605.9297 Q347.1156,604.7734 348.2094,604.1641 Q349.3031,603.5391 350.5375,603.5391 Q351.2719,603.5391 351.9125,603.7109 Q352.5688,603.8672 353.1156,604.2266 Z " fill="#000000"/><text fill="#000000" font-family="sans-serif" font-size="12" font-style="italic" lengthAdjust="spacing" textLength="56" x="368.65" y="604.457">&#171;Entidad&#187;</text><text fill="#000000" font-family="sans-serif" font-size="14" lengthAdjust="spacing" textLength="48" x="372.65" y="621.627">Usuario</text><line style="stroke:#181818;stroke-width:0.5;" x1="308" x2="453" y1="629.7031" y2="629.7031"/><ellipse cx="318" cy="644.0078" fill="none" rx="3" ry="3" style="stroke:#038048;stroke-width:1.0;"/><text fill="#000000" font-family="sans-serif" font-size="14" lengthAdjust="spacing" textLength="38" x="327" y="648.2363">Id: int,</text><ellipse cx="318" cy="661.6172" fill="none" rx="3" ry="3" style="stroke:#038048;stroke-width:1.0;"/><text fill="#000000" font-family="sans-serif" font-size="14" lengthAdjust="spacing" textLength="118" x="327" y="665.8457">Persona: Persona,</text><ellipse cx="318" cy="679.2266" fill="none" rx="3" ry="3" style="stroke:#038048;stroke-width:1.0;"/><text fill="#000000" font-family="sans-serif" font-size="14" lengthAdjust="spacing" textLength="95" x="327" y="683.4551">Usuario: string,</text><ellipse cx="318" cy="696.8359" fill="none" rx="3" ry="3" style="stroke:#038048;stroke-width:1.0;"/><text fill="#000000" font-family="sans-serif" font-size="14" lengthAdjust="spacing" textLength="121" x="327" y="701.0645">Contrase&#241;a: string,</text><line style="stroke:#181818;stroke-width:0.5;" x1="308" x2="453" y1="708.1406" y2="708.1406"/></g><!--class Rol--><g id="elem_Rol"><rect codeLine="26" fill="#ADD8E6" height="93.9219" id="Rol" rx="2.5" ry="2.5" style="stroke:#181818;stroke-width:0.5;" width="107" x="7" y="604.5"/><ellipse cx="22" cy="625.8516" fill="#ADD1B2" rx="11" ry="11" style="stroke:#181818;stroke-width:1.0;"/><path d="M24.7656,621.7266 Q24.9219,621.5078 25.1094,621.3984 Q25.2969,621.2891 25.5156,621.2891 Q25.8906,621.2891 26.125,621.5547 Q26.3594,621.8047 26.3594,622.4141 L26.3594,623.8672 Q26.3594,624.4766 26.125,624.7422 Q25.8906,625.0078 25.5156,625.0078 Q25.1719,625.0078 24.9688,624.8047 Q24.7656,624.6172 24.6563,624.1016 Q24.6094,623.7422 24.4219,623.5547 Q24.0938,623.1797 23.4844,622.9609 Q22.875,622.7422 22.25,622.7422 Q21.4844,622.7422 20.8438,623.0703 Q20.2188,623.3984 19.7188,624.1484 Q19.2344,624.8984 19.2344,625.9297 L19.2344,627.0234 Q19.2344,628.2578 20.125,629.0859 Q21.0156,629.8984 22.6094,629.8984 Q23.5469,629.8984 24.2031,629.6484 Q24.5938,629.4922 25.0156,629.0547 Q25.2813,628.7891 25.4219,628.7109 Q25.5781,628.6328 25.7813,628.6328 Q26.1094,628.6328 26.3594,628.8984 Q26.625,629.1484 26.625,629.4922 Q26.625,629.8359 26.2813,630.2422 Q25.7813,630.8203 24.9844,631.1484 Q23.9063,631.6016 22.6094,631.6016 Q21.0938,631.6016 19.8906,630.9766 Q18.9063,630.4766 18.2188,629.4141 Q17.5313,628.3359 17.5313,627.0547 L17.5313,625.8984 Q17.5313,624.5703 18.1406,623.4297 Q18.7656,622.2734 19.8594,621.6641 Q20.9531,621.0391 22.1875,621.0391 Q22.9219,621.0391 23.5625,621.2109 Q24.2188,621.3672 24.7656,621.7266 Z " fill="#000000"/><text fill="#000000" font-family="sans-serif" font-size="12" font-style="italic" lengthAdjust="spacing" textLength="79" x="34" y="621.957">&#171;Dato_Unico&#187;</text><text fill="#000000" font-family="sans-serif" font-size="14" lengthAdjust="spacing" textLength="21" x="63" y="639.127">Rol</text><line style="stroke:#181818;stroke-width:0.5;" x1="8" x2="113" y1="647.2031" y2="647.2031"/><ellipse cx="18" cy="661.5078" fill="none" rx="3" ry="3" style="stroke:#038048;stroke-width:1.0;"/><text fill="#000000" font-family="sans-serif" font-size="14" lengthAdjust="spacing" textLength="38" x="27" y="665.7363">Id: int,</text><ellipse cx="18" cy="679.1172" fill="none" rx="3" ry="3" style="stroke:#038048;stroke-width:1.0;"/><text fill="#000000" font-family="sans-serif" font-size="14" lengthAdjust="spacing" textLength="64" x="27" y="683.3457">Rol: string</text><line style="stroke:#181818;stroke-width:0.5;" x1="8" x2="113" y1="690.4219" y2="690.4219"/></g><!--class UsuarioRol--><g id="elem_UsuarioRol"><rect codeLine="31" fill="#F08080" height="93.9219" id="UsuarioRol" rx="2.5" ry="2.5" style="stroke:#181818;stroke-width:0.5;" width="116" x="93.5" y="856"/><ellipse cx="115.25" cy="877.3516" fill="#ADD1B2" rx="11" ry="11" style="stroke:#181818;stroke-width:1.0;"/><path d="M118.0156,873.2266 Q118.1719,873.0078 118.3594,872.8984 Q118.5469,872.7891 118.7656,872.7891 Q119.1406,872.7891 119.375,873.0547 Q119.6094,873.3047 119.6094,873.9141 L119.6094,875.3672 Q119.6094,875.9766 119.375,876.2422 Q119.1406,876.5078 118.7656,876.5078 Q118.4219,876.5078 118.2188,876.3047 Q118.0156,876.1172 117.9063,875.6016 Q117.8594,875.2422 117.6719,875.0547 Q117.3438,874.6797 116.7344,874.4609 Q116.125,874.2422 115.5,874.2422 Q114.7344,874.2422 114.0938,874.5703 Q113.4688,874.8984 112.9688,875.6484 Q112.4844,876.3984 112.4844,877.4297 L112.4844,878.5234 Q112.4844,879.7578 113.375,880.5859 Q114.2656,881.3984 115.8594,881.3984 Q116.7969,881.3984 117.4531,881.1484 Q117.8438,880.9922 118.2656,880.5547 Q118.5313,880.2891 118.6719,880.2109 Q118.8281,880.1328 119.0313,880.1328 Q119.3594,880.1328 119.6094,880.3984 Q119.875,880.6484 119.875,880.9922 Q119.875,881.3359 119.5313,881.7422 Q119.0313,882.3203 118.2344,882.6484 Q117.1563,883.1016 115.8594,883.1016 Q114.3438,883.1016 113.1406,882.4766 Q112.1563,881.9766 111.4688,880.9141 Q110.7813,879.8359 110.7813,878.5547 L110.7813,877.3984 Q110.7813,876.0703 111.3906,874.9297 Q112.0156,873.7734 113.1094,873.1641 Q114.2031,872.5391 115.4375,872.5391 Q116.1719,872.5391 116.8125,872.7109 Q117.4688,872.8672 118.0156,873.2266 Z " fill="#000000"/><text fill="#000000" font-family="sans-serif" font-size="12" font-style="italic" lengthAdjust="spacing" textLength="63" x="133.75" y="873.457">&#171;Relacion&#187;</text><text fill="#000000" font-family="sans-serif" font-size="14" lengthAdjust="spacing" textLength="69" x="130.75" y="890.627">UsuarioRol</text><line style="stroke:#181818;stroke-width:0.5;" x1="94.5" x2="208.5" y1="898.7031" y2="898.7031"/><text fill="#000000" font-family="sans-serif" font-size="14" lengthAdjust="spacing" textLength="54" x="99.5" y="917.2363">Rol: Rol,</text><text fill="#000000" font-family="sans-serif" font-size="14" lengthAdjust="spacing" textLength="104" x="99.5" y="934.8457">Usuario: Usuario</text><line style="stroke:#181818;stroke-width:0.5;" x1="94.5" x2="208.5" y1="941.9219" y2="941.9219"/></g><!--class Estudiante--><g id="elem_Estudiante"><rect codeLine="35" fill="#90EE90" height="111.5313" id="Estudiante" rx="2.5" ry="2.5" style="stroke:#181818;stroke-width:0.5;" width="144" x="668.5" y="595.5"/><ellipse cx="703.75" cy="616.8516" fill="#ADD1B2" rx="11" ry="11" style="stroke:#181818;stroke-width:1.0;"/><path d="M706.5156,612.7266 Q706.6719,612.5078 706.8594,612.3984 Q707.0469,612.2891 707.2656,612.2891 Q707.6406,612.2891 707.875,612.5547 Q708.1094,612.8047 708.1094,613.4141 L708.1094,614.8672 Q708.1094,615.4766 707.875,615.7422 Q707.6406,616.0078 707.2656,616.0078 Q706.9219,616.0078 706.7188,615.8047 Q706.5156,615.6172 706.4063,615.1016 Q706.3594,614.7422 706.1719,614.5547 Q705.8438,614.1797 705.2344,613.9609 Q704.625,613.7422 704,613.7422 Q703.2344,613.7422 702.5938,614.0703 Q701.9688,614.3984 701.4688,615.1484 Q700.9844,615.8984 700.9844,616.9297 L700.9844,618.0234 Q700.9844,619.2578 701.875,620.0859 Q702.7656,620.8984 704.3594,620.8984 Q705.2969,620.8984 705.9531,620.6484 Q706.3438,620.4922 706.7656,620.0547 Q707.0313,619.7891 707.1719,619.7109 Q707.3281,619.6328 707.5313,619.6328 Q707.8594,619.6328 708.1094,619.8984 Q708.375,620.1484 708.375,620.4922 Q708.375,620.8359 708.0313,621.2422 Q707.5313,621.8203 706.7344,622.1484 Q705.6563,622.6016 704.3594,622.6016 Q702.8438,622.6016 701.6406,621.9766 Q700.6563,621.4766 699.9688,620.4141 Q699.2813,619.3359 699.2813,618.0547 L699.2813,616.8984 Q699.2813,615.5703 699.8906,614.4297 Q700.5156,613.2734 701.6094,612.6641 Q702.7031,612.0391 703.9375,612.0391 Q704.6719,612.0391 705.3125,612.2109 Q705.9688,612.3672 706.5156,612.7266 Z " fill="#000000"/><text fill="#000000" font-family="sans-serif" font-size="12" font-style="italic" lengthAdjust="spacing" textLength="56" x="727.75" y="612.957">&#171;Entidad&#187;</text><text fill="#000000" font-family="sans-serif" font-size="14" lengthAdjust="spacing" textLength="67" x="722.25" y="630.127">Estudiante</text><line style="stroke:#181818;stroke-width:0.5;" x1="669.5" x2="811.5" y1="638.2031" y2="638.2031"/><ellipse cx="679.5" cy="652.5078" fill="none" rx="3" ry="3" style="stroke:#038048;stroke-width:1.0;"/><text fill="#000000" font-family="sans-serif" font-size="14" lengthAdjust="spacing" textLength="38" x="688.5" y="656.7363">Id: int,</text><ellipse cx="679.5" cy="670.1172" fill="none" rx="3" ry="3" style="stroke:#038048;stroke-width:1.0;"/><text fill="#000000" font-family="sans-serif" font-size="14" lengthAdjust="spacing" textLength="118" x="688.5" y="674.3457">Persona: Persona,</text><ellipse cx="679.5" cy="687.7266" fill="none" rx="3" ry="3" style="stroke:#038048;stroke-width:1.0;"/><text fill="#000000" font-family="sans-serif" font-size="14" lengthAdjust="spacing" textLength="104" x="688.5" y="691.9551">Matricula: string,</text><line style="stroke:#181818;stroke-width:0.5;" x1="669.5" x2="811.5" y1="699.0313" y2="699.0313"/></g><!--class Bibliotecario--><g id="elem_Bibliotecario"><rect codeLine="41" fill="#90EE90" height="111.5313" id="Bibliotecario" rx="2.5" ry="2.5" style="stroke:#181818;stroke-width:0.5;" width="144" x="489.5" y="595.5"/><ellipse cx="520.25" cy="616.8516" fill="#ADD1B2" rx="11" ry="11" style="stroke:#181818;stroke-width:1.0;"/><path d="M523.0156,612.7266 Q523.1719,612.5078 523.3594,612.3984 Q523.5469,612.2891 523.7656,612.2891 Q524.1406,612.2891 524.375,612.5547 Q524.6094,612.8047 524.6094,613.4141 L524.6094,614.8672 Q524.6094,615.4766 524.375,615.7422 Q524.1406,616.0078 523.7656,616.0078 Q523.4219,616.0078 523.2188,615.8047 Q523.0156,615.6172 522.9063,615.1016 Q522.8594,614.7422 522.6719,614.5547 Q522.3438,614.1797 521.7344,613.9609 Q521.125,613.7422 520.5,613.7422 Q519.7344,613.7422 519.0938,614.0703 Q518.4688,614.3984 517.9688,615.1484 Q517.4844,615.8984 517.4844,616.9297 L517.4844,618.0234 Q517.4844,619.2578 518.375,620.0859 Q519.2656,620.8984 520.8594,620.8984 Q521.7969,620.8984 522.4531,620.6484 Q522.8438,620.4922 523.2656,620.0547 Q523.5313,619.7891 523.6719,619.7109 Q523.8281,619.6328 524.0313,619.6328 Q524.3594,619.6328 524.6094,619.8984 Q524.875,620.1484 524.875,620.4922 Q524.875,620.8359 524.5313,621.2422 Q524.0313,621.8203 523.2344,622.1484 Q522.1563,622.6016 520.8594,622.6016 Q519.3438,622.6016 518.1406,621.9766 Q517.1563,621.4766 516.4688,620.4141 Q515.7813,619.3359 515.7813,618.0547 L515.7813,616.8984 Q515.7813,615.5703 516.3906,614.4297 Q517.0156,613.2734 518.1094,612.6641 Q519.2031,612.0391 520.4375,612.0391 Q521.1719,612.0391 521.8125,612.2109 Q522.4688,612.3672 523.0156,612.7266 Z " fill="#000000"/><text fill="#000000" font-family="sans-serif" font-size="12" font-style="italic" lengthAdjust="spacing" textLength="56" x="548.25" y="612.957">&#171;Entidad&#187;</text><text fill="#000000" font-family="sans-serif" font-size="14" lengthAdjust="spacing" textLength="77" x="537.75" y="630.127">Bibliotecario</text><line style="stroke:#181818;stroke-width:0.5;" x1="490.5" x2="632.5" y1="638.2031" y2="638.2031"/><ellipse cx="500.5" cy="652.5078" fill="none" rx="3" ry="3" style="stroke:#038048;stroke-width:1.0;"/><text fill="#000000" font-family="sans-serif" font-size="14" lengthAdjust="spacing" textLength="38" x="509.5" y="656.7363">Id: int,</text><ellipse cx="500.5" cy="670.1172" fill="none" rx="3" ry="3" style="stroke:#038048;stroke-width:1.0;"/><text fill="#000000" font-family="sans-serif" font-size="14" lengthAdjust="spacing" textLength="118" x="509.5" y="674.3457">Persona: Persona,</text><ellipse cx="500.5" cy="687.7266" fill="none" rx="3" ry="3" style="stroke:#038048;stroke-width:1.0;"/><text fill="#000000" font-family="sans-serif" font-size="14" lengthAdjust="spacing" textLength="90" x="509.5" y="691.9551">Carnet: string,</text><line style="stroke:#181818;stroke-width:0.5;" x1="490.5" x2="632.5" y1="699.0313" y2="699.0313"/></g><!--class Libro--><g id="elem_Libro"><rect codeLine="47" fill="#90EE90" height="217.1875" id="Libro" rx="2.5" ry="2.5" style="stroke:#181818;stroke-width:0.5;" width="185" x="848" y="543"/><ellipse cx="910.25" cy="564.3516" fill="#ADD1B2" rx="11" ry="11" style="stroke:#181818;stroke-width:1.0;"/><path d="M913.0156,560.2266 Q913.1719,560.0078 913.3594,559.8984 Q913.5469,559.7891 913.7656,559.7891 Q914.1406,559.7891 914.375,560.0547 Q914.6094,560.3047 914.6094,560.9141 L914.6094,562.3672 Q914.6094,562.9766 914.375,563.2422 Q914.1406,563.5078 913.7656,563.5078 Q913.4219,563.5078 913.2188,563.3047 Q913.0156,563.1172 912.9063,562.6016 Q912.8594,562.2422 912.6719,562.0547 Q912.3438,561.6797 911.7344,561.4609 Q911.125,561.2422 910.5,561.2422 Q909.7344,561.2422 909.0938,561.5703 Q908.4688,561.8984 907.9688,562.6484 Q907.4844,563.3984 907.4844,564.4297 L907.4844,565.5234 Q907.4844,566.7578 908.375,567.5859 Q909.2656,568.3984 910.8594,568.3984 Q911.7969,568.3984 912.4531,568.1484 Q912.8438,567.9922 913.2656,567.5547 Q913.5313,567.2891 913.6719,567.2109 Q913.8281,567.1328 914.0313,567.1328 Q914.3594,567.1328 914.6094,567.3984 Q914.875,567.6484 914.875,567.9922 Q914.875,568.3359 914.5313,568.7422 Q914.0313,569.3203 913.2344,569.6484 Q912.1563,570.1016 910.8594,570.1016 Q909.3438,570.1016 908.1406,569.4766 Q907.1563,568.9766 906.4688,567.9141 Q905.7813,566.8359 905.7813,565.5547 L905.7813,564.3984 Q905.7813,563.0703 906.3906,561.9297 Q907.0156,560.7734 908.1094,560.1641 Q909.2031,559.5391 910.4375,559.5391 Q911.1719,559.5391 911.8125,559.7109 Q912.4688,559.8672 913.0156,560.2266 Z " fill="#000000"/><text fill="#000000" font-family="sans-serif" font-size="12" font-style="italic" lengthAdjust="spacing" textLength="56" x="928.75" y="560.457">&#171;Entidad&#187;</text><text fill="#000000" font-family="sans-serif" font-size="14" lengthAdjust="spacing" textLength="32" x="940.75" y="577.627">Libro</text><line style="stroke:#181818;stroke-width:0.5;" x1="849" x2="1032" y1="585.7031" y2="585.7031"/><ellipse cx="859" cy="600.0078" fill="none" rx="3" ry="3" style="stroke:#038048;stroke-width:1.0;"/><text fill="#000000" font-family="sans-serif" font-size="14" lengthAdjust="spacing" textLength="38" x="868" y="604.2363">Id: int,</text><ellipse cx="859" cy="617.6172" fill="none" rx="3" ry="3" style="stroke:#038048;stroke-width:1.0;"/><text fill="#000000" font-family="sans-serif" font-size="14" lengthAdjust="spacing" textLength="82" x="868" y="621.8457">Titulo: string,</text><ellipse cx="859" cy="635.2266" fill="none" rx="3" ry="3" style="stroke:#038048;stroke-width:1.0;"/><text fill="#000000" font-family="sans-serif" font-size="14" lengthAdjust="spacing" textLength="93" x="868" y="639.4551">Edicion: string,</text><ellipse cx="859" cy="652.8359" fill="none" rx="3" ry="3" style="stroke:#038048;stroke-width:1.0;"/><text fill="#000000" font-family="sans-serif" font-size="14" lengthAdjust="spacing" textLength="98" x="868" y="657.0645">Editorial: string,</text><ellipse cx="859" cy="670.4453" fill="none" rx="3" ry="3" style="stroke:#038048;stroke-width:1.0;"/><text fill="#000000" font-family="sans-serif" font-size="14" lengthAdjust="spacing" textLength="80" x="868" y="674.6738">Autor: Autor,</text><ellipse cx="859" cy="688.0547" fill="none" rx="3" ry="3" style="stroke:#038048;stroke-width:1.0;"/><text fill="#000000" font-family="sans-serif" font-size="14" lengthAdjust="spacing" textLength="94" x="868" y="692.2832">Idioma: Idioma,</text><ellipse cx="859" cy="705.6641" fill="none" rx="3" ry="3" style="stroke:#038048;stroke-width:1.0;"/><text fill="#000000" font-family="sans-serif" font-size="14" lengthAdjust="spacing" textLength="78" x="868" y="709.8926">Paginas: int,</text><ellipse cx="859" cy="723.2734" fill="none" rx="3" ry="3" style="stroke:#038048;stroke-width:1.0;"/><text fill="#000000" font-family="sans-serif" font-size="14" lengthAdjust="spacing" textLength="118" x="868" y="727.502">Url_Imagen: string,</text><ellipse cx="859" cy="740.8828" fill="none" rx="3" ry="3" style="stroke:#038048;stroke-width:1.0;"/><text fill="#000000" font-family="sans-serif" font-size="14" lengthAdjust="spacing" textLength="159" x="868" y="745.1113">Url_VersionDigital: string,</text><line style="stroke:#181818;stroke-width:0.5;" x1="849" x2="1032" y1="752.1875" y2="752.1875"/></g><!--class Stock_Libros--><g id="elem_Stock_Libros"><rect codeLine="59" fill="#FFFFE0" height="129.1406" id="Stock_Libros" rx="2.5" ry="2.5" style="stroke:#181818;stroke-width:0.5;" width="153" x="846" y="276"/><ellipse cx="861.45" cy="297.3516" fill="#ADD1B2" rx="11" ry="11" style="stroke:#181818;stroke-width:1.0;"/><path d="M864.2156,293.2266 Q864.3719,293.0078 864.5594,292.8984 Q864.7469,292.7891 864.9656,292.7891 Q865.3406,292.7891 865.575,293.0547 Q865.8094,293.3047 865.8094,293.9141 L865.8094,295.3672 Q865.8094,295.9766 865.575,296.2422 Q865.3406,296.5078 864.9656,296.5078 Q864.6219,296.5078 864.4188,296.3047 Q864.2156,296.1172 864.1063,295.6016 Q864.0594,295.2422 863.8719,295.0547 Q863.5438,294.6797 862.9344,294.4609 Q862.325,294.2422 861.7,294.2422 Q860.9344,294.2422 860.2938,294.5703 Q859.6688,294.8984 859.1688,295.6484 Q858.6844,296.3984 858.6844,297.4297 L858.6844,298.5234 Q858.6844,299.7578 859.575,300.5859 Q860.4656,301.3984 862.0594,301.3984 Q862.9969,301.3984 863.6531,301.1484 Q864.0438,300.9922 864.4656,300.5547 Q864.7313,300.2891 864.8719,300.2109 Q865.0281,300.1328 865.2313,300.1328 Q865.5594,300.1328 865.8094,300.3984 Q866.075,300.6484 866.075,300.9922 Q866.075,301.3359 865.7313,301.7422 Q865.2313,302.3203 864.4344,302.6484 Q863.3563,303.1016 862.0594,303.1016 Q860.5438,303.1016 859.3406,302.4766 Q858.3563,301.9766 857.6688,300.9141 Q856.9813,299.8359 856.9813,298.5547 L856.9813,297.3984 Q856.9813,296.0703 857.5906,294.9297 Q858.2156,293.7734 859.3094,293.1641 Q860.4031,292.5391 861.6375,292.5391 Q862.3719,292.5391 863.0125,292.7109 Q863.6688,292.8672 864.2156,293.2266 Z " fill="#000000"/><text fill="#000000" font-family="sans-serif" font-size="12" font-style="italic" lengthAdjust="spacing" textLength="124" x="873.55" y="293.457">&#171;Entidad_de_Control&#187;</text><text fill="#000000" font-family="sans-serif" font-size="14" lengthAdjust="spacing" textLength="82" x="894.55" y="310.627">Stock_Libros</text><line style="stroke:#181818;stroke-width:0.5;" x1="847" x2="998" y1="318.7031" y2="318.7031"/><ellipse cx="857" cy="333.0078" fill="none" rx="3" ry="3" style="stroke:#038048;stroke-width:1.0;"/><text fill="#000000" font-family="sans-serif" font-size="14" lengthAdjust="spacing" textLength="38" x="866" y="337.2363">Id: int,</text><ellipse cx="857" cy="350.6172" fill="none" rx="3" ry="3" style="stroke:#038048;stroke-width:1.0;"/><text fill="#000000" font-family="sans-serif" font-size="14" lengthAdjust="spacing" textLength="76" x="866" y="354.8457">Libro: Libro,</text><ellipse cx="857" cy="368.2266" fill="none" rx="3" ry="3" style="stroke:#038048;stroke-width:1.0;"/><text fill="#000000" font-family="sans-serif" font-size="14" lengthAdjust="spacing" textLength="122" x="866" y="372.4551">Cant_Existente: int,</text><ellipse cx="857" cy="385.8359" fill="none" rx="3" ry="3" style="stroke:#038048;stroke-width:1.0;"/><text fill="#000000" font-family="sans-serif" font-size="14" lengthAdjust="spacing" textLength="127" x="866" y="390.0645">Cant_Disponible: int</text><line style="stroke:#181818;stroke-width:0.5;" x1="847" x2="998" y1="397.1406" y2="397.1406"/></g><!--class Autor--><g id="elem_Autor"><rect codeLine="66" fill="#ADD8E6" height="93.9219" id="Autor" rx="2.5" ry="2.5" style="stroke:#181818;stroke-width:0.5;" width="122" x="745.5" y="856"/><ellipse cx="767.25" cy="877.3516" fill="#ADD1B2" rx="11" ry="11" style="stroke:#181818;stroke-width:1.0;"/><path d="M770.0156,873.2266 Q770.1719,873.0078 770.3594,872.8984 Q770.5469,872.7891 770.7656,872.7891 Q771.1406,872.7891 771.375,873.0547 Q771.6094,873.3047 771.6094,873.9141 L771.6094,875.3672 Q771.6094,875.9766 771.375,876.2422 Q771.1406,876.5078 770.7656,876.5078 Q770.4219,876.5078 770.2188,876.3047 Q770.0156,876.1172 769.9063,875.6016 Q769.8594,875.2422 769.6719,875.0547 Q769.3438,874.6797 768.7344,874.4609 Q768.125,874.2422 767.5,874.2422 Q766.7344,874.2422 766.0938,874.5703 Q765.4688,874.8984 764.9688,875.6484 Q764.4844,876.3984 764.4844,877.4297 L764.4844,878.5234 Q764.4844,879.7578 765.375,880.5859 Q766.2656,881.3984 767.8594,881.3984 Q768.7969,881.3984 769.4531,881.1484 Q769.8438,880.9922 770.2656,880.5547 Q770.5313,880.2891 770.6719,880.2109 Q770.8281,880.1328 771.0313,880.1328 Q771.3594,880.1328 771.6094,880.3984 Q771.875,880.6484 771.875,880.9922 Q771.875,881.3359 771.5313,881.7422 Q771.0313,882.3203 770.2344,882.6484 Q769.1563,883.1016 767.8594,883.1016 Q766.3438,883.1016 765.1406,882.4766 Q764.1563,881.9766 763.4688,880.9141 Q762.7813,879.8359 762.7813,878.5547 L762.7813,877.3984 Q762.7813,876.0703 763.3906,874.9297 Q764.0156,873.7734 765.1094,873.1641 Q766.2031,872.5391 767.4375,872.5391 Q768.1719,872.5391 768.8125,872.7109 Q769.4688,872.8672 770.0156,873.2266 Z " fill="#000000"/><text fill="#000000" font-family="sans-serif" font-size="12" font-style="italic" lengthAdjust="spacing" textLength="79" x="780.75" y="873.457">&#171;Dato_Unico&#187;</text><text fill="#000000" font-family="sans-serif" font-size="14" lengthAdjust="spacing" textLength="34" x="803.25" y="890.627">Autor</text><line style="stroke:#181818;stroke-width:0.5;" x1="746.5" x2="866.5" y1="898.7031" y2="898.7031"/><ellipse cx="756.5" cy="913.0078" fill="none" rx="3" ry="3" style="stroke:#038048;stroke-width:1.0;"/><text fill="#000000" font-family="sans-serif" font-size="14" lengthAdjust="spacing" textLength="38" x="765.5" y="917.2363">Id: int,</text><ellipse cx="756.5" cy="930.6172" fill="none" rx="3" ry="3" style="stroke:#038048;stroke-width:1.0;"/><text fill="#000000" font-family="sans-serif" font-size="14" lengthAdjust="spacing" textLength="96" x="765.5" y="934.8457">Nombre: string,</text><line style="stroke:#181818;stroke-width:0.5;" x1="746.5" x2="866.5" y1="941.9219" y2="941.9219"/></g><!--class Idioma--><g id="elem_Idioma"><rect codeLine="71" fill="#ADD8E6" height="93.9219" id="Idioma" rx="2.5" ry="2.5" style="stroke:#181818;stroke-width:0.5;" width="114" x="902.5" y="856"/><ellipse cx="920.65" cy="877.3516" fill="#ADD1B2" rx="11" ry="11" style="stroke:#181818;stroke-width:1.0;"/><path d="M923.4156,873.2266 Q923.5719,873.0078 923.7594,872.8984 Q923.9469,872.7891 924.1656,872.7891 Q924.5406,872.7891 924.775,873.0547 Q925.0094,873.3047 925.0094,873.9141 L925.0094,875.3672 Q925.0094,875.9766 924.775,876.2422 Q924.5406,876.5078 924.1656,876.5078 Q923.8219,876.5078 923.6188,876.3047 Q923.4156,876.1172 923.3063,875.6016 Q923.2594,875.2422 923.0719,875.0547 Q922.7438,874.6797 922.1344,874.4609 Q921.525,874.2422 920.9,874.2422 Q920.1344,874.2422 919.4938,874.5703 Q918.8688,874.8984 918.3688,875.6484 Q917.8844,876.3984 917.8844,877.4297 L917.8844,878.5234 Q917.8844,879.7578 918.775,880.5859 Q919.6656,881.3984 921.2594,881.3984 Q922.1969,881.3984 922.8531,881.1484 Q923.2438,880.9922 923.6656,880.5547 Q923.9313,880.2891 924.0719,880.2109 Q924.2281,880.1328 924.4313,880.1328 Q924.7594,880.1328 925.0094,880.3984 Q925.275,880.6484 925.275,880.9922 Q925.275,881.3359 924.9313,881.7422 Q924.4313,882.3203 923.6344,882.6484 Q922.5563,883.1016 921.2594,883.1016 Q919.7438,883.1016 918.5406,882.4766 Q917.5563,881.9766 916.8688,880.9141 Q916.1813,879.8359 916.1813,878.5547 L916.1813,877.3984 Q916.1813,876.0703 916.7906,874.9297 Q917.4156,873.7734 918.5094,873.1641 Q919.6031,872.5391 920.8375,872.5391 Q921.5719,872.5391 922.2125,872.7109 Q922.8688,872.8672 923.4156,873.2266 Z " fill="#000000"/><text fill="#000000" font-family="sans-serif" font-size="12" font-style="italic" lengthAdjust="spacing" textLength="79" x="933.35" y="873.457">&#171;Dato_Unico&#187;</text><text fill="#000000" font-family="sans-serif" font-size="14" lengthAdjust="spacing" textLength="41" x="952.35" y="890.627">Idioma</text><line style="stroke:#181818;stroke-width:0.5;" x1="903.5" x2="1015.5" y1="898.7031" y2="898.7031"/><ellipse cx="913.5" cy="913.0078" fill="none" rx="3" ry="3" style="stroke:#038048;stroke-width:1.0;"/><text fill="#000000" font-family="sans-serif" font-size="14" lengthAdjust="spacing" textLength="38" x="922.5" y="917.2363">Id: int,</text><ellipse cx="913.5" cy="930.6172" fill="none" rx="3" ry="3" style="stroke:#038048;stroke-width:1.0;"/><text fill="#000000" font-family="sans-serif" font-size="14" lengthAdjust="spacing" textLength="88" x="922.5" y="934.8457">Idioma: string,</text><line style="stroke:#181818;stroke-width:0.5;" x1="903.5" x2="1015.5" y1="941.9219" y2="941.9219"/></g><!--class Genero--><g id="elem_Genero"><rect codeLine="76" fill="#ADD8E6" height="93.9219" id="Genero" rx="2.5" ry="2.5" style="stroke:#181818;stroke-width:0.5;" width="121" x="1068" y="604.5"/><ellipse cx="1089.3" cy="625.8516" fill="#ADD1B2" rx="11" ry="11" style="stroke:#181818;stroke-width:1.0;"/><path d="M1092.0656,621.7266 Q1092.2219,621.5078 1092.4094,621.3984 Q1092.5969,621.2891 1092.8156,621.2891 Q1093.1906,621.2891 1093.425,621.5547 Q1093.6594,621.8047 1093.6594,622.4141 L1093.6594,623.8672 Q1093.6594,624.4766 1093.425,624.7422 Q1093.1906,625.0078 1092.8156,625.0078 Q1092.4719,625.0078 1092.2688,624.8047 Q1092.0656,624.6172 1091.9563,624.1016 Q1091.9094,623.7422 1091.7219,623.5547 Q1091.3938,623.1797 1090.7844,622.9609 Q1090.175,622.7422 1089.55,622.7422 Q1088.7844,622.7422 1088.1438,623.0703 Q1087.5188,623.3984 1087.0188,624.1484 Q1086.5344,624.8984 1086.5344,625.9297 L1086.5344,627.0234 Q1086.5344,628.2578 1087.425,629.0859 Q1088.3156,629.8984 1089.9094,629.8984 Q1090.8469,629.8984 1091.5031,629.6484 Q1091.8938,629.4922 1092.3156,629.0547 Q1092.5813,628.7891 1092.7219,628.7109 Q1092.8781,628.6328 1093.0813,628.6328 Q1093.4094,628.6328 1093.6594,628.8984 Q1093.925,629.1484 1093.925,629.4922 Q1093.925,629.8359 1093.5813,630.2422 Q1093.0813,630.8203 1092.2844,631.1484 Q1091.2063,631.6016 1089.9094,631.6016 Q1088.3938,631.6016 1087.1906,630.9766 Q1086.2063,630.4766 1085.5188,629.4141 Q1084.8313,628.3359 1084.8313,627.0547 L1084.8313,625.8984 Q1084.8313,624.5703 1085.4406,623.4297 Q1086.0656,622.2734 1087.1594,621.6641 Q1088.2531,621.0391 1089.4875,621.0391 Q1090.2219,621.0391 1090.8625,621.2109 Q1091.5188,621.3672 1092.0656,621.7266 Z " fill="#000000"/><text fill="#000000" font-family="sans-serif" font-size="12" font-style="italic" lengthAdjust="spacing" textLength="79" x="1102.7" y="621.957">&#171;Dato_Unico&#187;</text><text fill="#000000" font-family="sans-serif" font-size="14" lengthAdjust="spacing" textLength="48" x="1118.2" y="639.127">Genero</text><line style="stroke:#181818;stroke-width:0.5;" x1="1069" x2="1188" y1="647.2031" y2="647.2031"/><ellipse cx="1079" cy="661.5078" fill="none" rx="3" ry="3" style="stroke:#038048;stroke-width:1.0;"/><text fill="#000000" font-family="sans-serif" font-size="14" lengthAdjust="spacing" textLength="38" x="1088" y="665.7363">Id: int,</text><ellipse cx="1079" cy="679.1172" fill="none" rx="3" ry="3" style="stroke:#038048;stroke-width:1.0;"/><text fill="#000000" font-family="sans-serif" font-size="14" lengthAdjust="spacing" textLength="95" x="1088" y="683.3457">Genero: string,</text><line style="stroke:#181818;stroke-width:0.5;" x1="1069" x2="1188" y1="690.4219" y2="690.4219"/></g><!--class Prestamo--><g id="elem_Prestamo"><rect codeLine="81" fill="#90EE90" height="217.1875" id="Prestamo" rx="2.5" ry="2.5" style="stroke:#181818;stroke-width:0.5;" width="208" x="1034.5" y="232"/><ellipse cx="1104.25" cy="253.3516" fill="#ADD1B2" rx="11" ry="11" style="stroke:#181818;stroke-width:1.0;"/><path d="M1107.0156,249.2266 Q1107.1719,249.0078 1107.3594,248.8984 Q1107.5469,248.7891 1107.7656,248.7891 Q1108.1406,248.7891 1108.375,249.0547 Q1108.6094,249.3047 1108.6094,249.9141 L1108.6094,251.3672 Q1108.6094,251.9766 1108.375,252.2422 Q1108.1406,252.5078 1107.7656,252.5078 Q1107.4219,252.5078 1107.2188,252.3047 Q1107.0156,252.1172 1106.9063,251.6016 Q1106.8594,251.2422 1106.6719,251.0547 Q1106.3438,250.6797 1105.7344,250.4609 Q1105.125,250.2422 1104.5,250.2422 Q1103.7344,250.2422 1103.0938,250.5703 Q1102.4688,250.8984 1101.9688,251.6484 Q1101.4844,252.3984 1101.4844,253.4297 L1101.4844,254.5234 Q1101.4844,255.7578 1102.375,256.5859 Q1103.2656,257.3984 1104.8594,257.3984 Q1105.7969,257.3984 1106.4531,257.1484 Q1106.8438,256.9922 1107.2656,256.5547 Q1107.5313,256.2891 1107.6719,256.2109 Q1107.8281,256.1328 1108.0313,256.1328 Q1108.3594,256.1328 1108.6094,256.3984 Q1108.875,256.6484 1108.875,256.9922 Q1108.875,257.3359 1108.5313,257.7422 Q1108.0313,258.3203 1107.2344,258.6484 Q1106.1563,259.1016 1104.8594,259.1016 Q1103.3438,259.1016 1102.1406,258.4766 Q1101.1563,257.9766 1100.4688,256.9141 Q1099.7813,255.8359 1099.7813,254.5547 L1099.7813,253.3984 Q1099.7813,252.0703 1100.3906,250.9297 Q1101.0156,249.7734 1102.1094,249.1641 Q1103.2031,248.5391 1104.4375,248.5391 Q1105.1719,248.5391 1105.8125,248.7109 Q1106.4688,248.8672 1107.0156,249.2266 Z " fill="#000000"/><text fill="#000000" font-family="sans-serif" font-size="12" font-style="italic" lengthAdjust="spacing" textLength="56" x="1126.75" y="249.457">&#171;Entidad&#187;</text><text fill="#000000" font-family="sans-serif" font-size="14" lengthAdjust="spacing" textLength="60" x="1124.75" y="266.627">Prestamo</text><line style="stroke:#181818;stroke-width:0.5;" x1="1035.5" x2="1241.5" y1="274.7031" y2="274.7031"/><ellipse cx="1045.5" cy="289.0078" fill="none" rx="3" ry="3" style="stroke:#038048;stroke-width:1.0;"/><text fill="#000000" font-family="sans-serif" font-size="14" lengthAdjust="spacing" textLength="38" x="1054.5" y="293.2363">Id: int,</text><ellipse cx="1045.5" cy="306.6172" fill="none" rx="3" ry="3" style="stroke:#038048;stroke-width:1.0;"/><text fill="#000000" font-family="sans-serif" font-size="14" lengthAdjust="spacing" textLength="167" x="1054.5" y="310.8457">Estado: Estado_prestamo,</text><ellipse cx="1045.5" cy="324.2266" fill="none" rx="3" ry="3" style="stroke:#038048;stroke-width:1.0;"/><text fill="#000000" font-family="sans-serif" font-size="14" lengthAdjust="spacing" textLength="135" x="1054.5" y="328.4551">Tipo: Tipo_prestamo,</text><ellipse cx="1045.5" cy="341.8359" fill="none" rx="3" ry="3" style="stroke:#038048;stroke-width:1.0;"/><text fill="#000000" font-family="sans-serif" font-size="14" lengthAdjust="spacing" textLength="146" x="1054.5" y="346.0645">Estudiante: Estudiante,</text><ellipse cx="1045.5" cy="359.4453" fill="none" rx="3" ry="3" style="stroke:#038048;stroke-width:1.0;"/><text fill="#000000" font-family="sans-serif" font-size="14" lengthAdjust="spacing" textLength="76" x="1054.5" y="363.6738">Libro: Libro,</text><ellipse cx="1045.5" cy="377.0547" fill="none" rx="3" ry="3" style="stroke:#038048;stroke-width:1.0;"/><text fill="#000000" font-family="sans-serif" font-size="14" lengthAdjust="spacing" textLength="84" x="1054.5" y="381.2832">Cantidad: int,</text><ellipse cx="1045.5" cy="394.6641" fill="none" rx="3" ry="3" style="stroke:#038048;stroke-width:1.0;"/><text fill="#000000" font-family="sans-serif" font-size="14" lengthAdjust="spacing" textLength="169" x="1054.5" y="398.8926">Fecha_Solicitud: Datetime,</text><ellipse cx="1045.5" cy="412.2734" fill="none" rx="3" ry="3" style="stroke:#038048;stroke-width:1.0;"/><text fill="#000000" font-family="sans-serif" font-size="14" lengthAdjust="spacing" textLength="154" x="1054.5" y="416.502">Fecha_Retiro: Datetime,</text><ellipse cx="1045.5" cy="429.8828" fill="none" rx="3" ry="3" style="stroke:#038048;stroke-width:1.0;"/><text fill="#000000" font-family="sans-serif" font-size="14" lengthAdjust="spacing" textLength="182" x="1054.5" y="434.1113">Fecha_Devolucion: Datetime</text><line style="stroke:#181818;stroke-width:0.5;" x1="1035.5" x2="1241.5" y1="441.1875" y2="441.1875"/></g><!--class Multa--><g id="elem_Multa"><rect codeLine="93" fill="#90EE90" height="164.3594" id="Multa" rx="2.5" ry="2.5" style="stroke:#181818;stroke-width:0.5;" width="172" x="1052.5" y="7"/><ellipse cx="1108.25" cy="28.3516" fill="#ADD1B2" rx="11" ry="11" style="stroke:#181818;stroke-width:1.0;"/><path d="M1111.0156,24.2266 Q1111.1719,24.0078 1111.3594,23.8984 Q1111.5469,23.7891 1111.7656,23.7891 Q1112.1406,23.7891 1112.375,24.0547 Q1112.6094,24.3047 1112.6094,24.9141 L1112.6094,26.3672 Q1112.6094,26.9766 1112.375,27.2422 Q1112.1406,27.5078 1111.7656,27.5078 Q1111.4219,27.5078 1111.2188,27.3047 Q1111.0156,27.1172 1110.9063,26.6016 Q1110.8594,26.2422 1110.6719,26.0547 Q1110.3438,25.6797 1109.7344,25.4609 Q1109.125,25.2422 1108.5,25.2422 Q1107.7344,25.2422 1107.0938,25.5703 Q1106.4688,25.8984 1105.9688,26.6484 Q1105.4844,27.3984 1105.4844,28.4297 L1105.4844,29.5234 Q1105.4844,30.7578 1106.375,31.5859 Q1107.2656,32.3984 1108.8594,32.3984 Q1109.7969,32.3984 1110.4531,32.1484 Q1110.8438,31.9922 1111.2656,31.5547 Q1111.5313,31.2891 1111.6719,31.2109 Q1111.8281,31.1328 1112.0313,31.1328 Q1112.3594,31.1328 1112.6094,31.3984 Q1112.875,31.6484 1112.875,31.9922 Q1112.875,32.3359 1112.5313,32.7422 Q1112.0313,33.3203 1111.2344,33.6484 Q1110.1563,34.1016 1108.8594,34.1016 Q1107.3438,34.1016 1106.1406,33.4766 Q1105.1563,32.9766 1104.4688,31.9141 Q1103.7813,30.8359 1103.7813,29.5547 L1103.7813,28.3984 Q1103.7813,27.0703 1104.3906,25.9297 Q1105.0156,24.7734 1106.1094,24.1641 Q1107.2031,23.5391 1108.4375,23.5391 Q1109.1719,23.5391 1109.8125,23.7109 Q1110.4688,23.8672 1111.0156,24.2266 Z " fill="#000000"/><text fill="#000000" font-family="sans-serif" font-size="12" font-style="italic" lengthAdjust="spacing" textLength="56" x="1126.75" y="24.457">&#171;Entidad&#187;</text><text fill="#000000" font-family="sans-serif" font-size="14" lengthAdjust="spacing" textLength="34" x="1137.75" y="41.627">Multa</text><line style="stroke:#181818;stroke-width:0.5;" x1="1053.5" x2="1223.5" y1="49.7031" y2="49.7031"/><ellipse cx="1063.5" cy="64.0078" fill="none" rx="3" ry="3" style="stroke:#038048;stroke-width:1.0;"/><text fill="#000000" font-family="sans-serif" font-size="14" lengthAdjust="spacing" textLength="38" x="1072.5" y="68.2363">Id: int,</text><ellipse cx="1063.5" cy="81.6172" fill="none" rx="3" ry="3" style="stroke:#038048;stroke-width:1.0;"/><text fill="#000000" font-family="sans-serif" font-size="14" lengthAdjust="spacing" textLength="146" x="1072.5" y="85.8457">Estudiante: Estudiante,</text><ellipse cx="1063.5" cy="99.2266" fill="none" rx="3" ry="3" style="stroke:#038048;stroke-width:1.0;"/><text fill="#000000" font-family="sans-serif" font-size="14" lengthAdjust="spacing" textLength="132" x="1072.5" y="103.4551">Prestamo: Prestamo,</text><ellipse cx="1063.5" cy="116.8359" fill="none" rx="3" ry="3" style="stroke:#038048;stroke-width:1.0;"/><text fill="#000000" font-family="sans-serif" font-size="14" lengthAdjust="spacing" textLength="121" x="1072.5" y="121.0645">Descripcion: string,</text><ellipse cx="1063.5" cy="134.4453" fill="none" rx="3" ry="3" style="stroke:#038048;stroke-width:1.0;"/><text fill="#000000" font-family="sans-serif" font-size="14" lengthAdjust="spacing" textLength="66" x="1072.5" y="138.6738">Monto: int,</text><ellipse cx="1063.5" cy="152.0547" fill="none" rx="3" ry="3" style="stroke:#038048;stroke-width:1.0;"/><text fill="#000000" font-family="sans-serif" font-size="14" lengthAdjust="spacing" textLength="142" x="1072.5" y="156.2832">Estado: Estado_multa,</text><line style="stroke:#181818;stroke-width:0.5;" x1="1053.5" x2="1223.5" y1="163.3594" y2="163.3594"/></g><!--class Auditoria--><g id="elem_Auditoria"><rect codeLine="102" fill="#FFFFE0" height="199.5781" id="Auditoria" rx="2.5" ry="2.5" style="stroke:#181818;stroke-width:0.5;" width="167" x="180" y="240.5"/><ellipse cx="201.75" cy="261.8516" fill="#ADD1B2" rx="11" ry="11" style="stroke:#181818;stroke-width:1.0;"/><path d="M204.5156,257.7266 Q204.6719,257.5078 204.8594,257.3984 Q205.0469,257.2891 205.2656,257.2891 Q205.6406,257.2891 205.875,257.5547 Q206.1094,257.8047 206.1094,258.4141 L206.1094,259.8672 Q206.1094,260.4766 205.875,260.7422 Q205.6406,261.0078 205.2656,261.0078 Q204.9219,261.0078 204.7188,260.8047 Q204.5156,260.6172 204.4063,260.1016 Q204.3594,259.7422 204.1719,259.5547 Q203.8438,259.1797 203.2344,258.9609 Q202.625,258.7422 202,258.7422 Q201.2344,258.7422 200.5938,259.0703 Q199.9688,259.3984 199.4688,260.1484 Q198.9844,260.8984 198.9844,261.9297 L198.9844,263.0234 Q198.9844,264.2578 199.875,265.0859 Q200.7656,265.8984 202.3594,265.8984 Q203.2969,265.8984 203.9531,265.6484 Q204.3438,265.4922 204.7656,265.0547 Q205.0313,264.7891 205.1719,264.7109 Q205.3281,264.6328 205.5313,264.6328 Q205.8594,264.6328 206.1094,264.8984 Q206.375,265.1484 206.375,265.4922 Q206.375,265.8359 206.0313,266.2422 Q205.5313,266.8203 204.7344,267.1484 Q203.6563,267.6016 202.3594,267.6016 Q200.8438,267.6016 199.6406,266.9766 Q198.6563,266.4766 197.9688,265.4141 Q197.2813,264.3359 197.2813,263.0547 L197.2813,261.8984 Q197.2813,260.5703 197.8906,259.4297 Q198.5156,258.2734 199.6094,257.6641 Q200.7031,257.0391 201.9375,257.0391 Q202.6719,257.0391 203.3125,257.2109 Q203.9688,257.3672 204.5156,257.7266 Z " fill="#000000"/><text fill="#000000" font-family="sans-serif" font-size="12" font-style="italic" lengthAdjust="spacing" textLength="124" x="215.25" y="257.957">&#171;Entidad_de_Control&#187;</text><text fill="#000000" font-family="sans-serif" font-size="14" lengthAdjust="spacing" textLength="56" x="249.25" y="275.127">Auditoria</text><line style="stroke:#181818;stroke-width:0.5;" x1="181" x2="346" y1="283.2031" y2="283.2031"/><ellipse cx="191" cy="297.5078" fill="none" rx="3" ry="3" style="stroke:#038048;stroke-width:1.0;"/><text fill="#000000" font-family="sans-serif" font-size="14" lengthAdjust="spacing" textLength="38" x="200" y="301.7363">Id: int,</text><ellipse cx="191" cy="315.1172" fill="none" rx="3" ry="3" style="stroke:#038048;stroke-width:1.0;"/><text fill="#000000" font-family="sans-serif" font-size="14" lengthAdjust="spacing" textLength="108" x="200" y="319.3457">Fecha: Datetime,</text><ellipse cx="191" cy="332.7266" fill="none" rx="3" ry="3" style="stroke:#038048;stroke-width:1.0;"/><text fill="#000000" font-family="sans-serif" font-size="14" lengthAdjust="spacing" textLength="131" x="200" y="336.9551">Tipo: Tipo_auditoria,</text><ellipse cx="191" cy="350.3359" fill="none" rx="3" ry="3" style="stroke:#038048;stroke-width:1.0;"/><text fill="#000000" font-family="sans-serif" font-size="14" lengthAdjust="spacing" textLength="83" x="200" y="354.5645">Tabla: string,</text><ellipse cx="191" cy="367.9453" fill="none" rx="3" ry="3" style="stroke:#038048;stroke-width:1.0;"/><text fill="#000000" font-family="sans-serif" font-size="14" lengthAdjust="spacing" textLength="134" x="200" y="372.1738">Data_anterior: string,</text><ellipse cx="191" cy="385.5547" fill="none" rx="3" ry="3" style="stroke:#038048;stroke-width:1.0;"/><text fill="#000000" font-family="sans-serif" font-size="14" lengthAdjust="spacing" textLength="141" x="200" y="389.7832">Data_posterior: string,</text><ellipse cx="191" cy="403.1641" fill="none" rx="3" ry="3" style="stroke:#038048;stroke-width:1.0;"/><text fill="#000000" font-family="sans-serif" font-size="14" lengthAdjust="spacing" textLength="108" x="200" y="407.3926">Usuario: Usuario,</text><ellipse cx="191" cy="420.7734" fill="none" rx="3" ry="3" style="stroke:#038048;stroke-width:1.0;"/><text fill="#000000" font-family="sans-serif" font-size="14" lengthAdjust="spacing" textLength="117" x="200" y="425.002">Descripcion: string</text><line style="stroke:#181818;stroke-width:0.5;" x1="181" x2="346" y1="432.0781" y2="432.0781"/></g><!--class LibroGenero--><g id="elem_LibroGenero"><rect codeLine="113" fill="#F08080" height="93.9219" id="LibroGenero" rx="2.5" ry="2.5" style="stroke:#181818;stroke-width:0.5;" width="116" x="1061.5" y="856"/><ellipse cx="1078.3" cy="877.3516" fill="#ADD1B2" rx="11" ry="11" style="stroke:#181818;stroke-width:1.0;"/><path d="M1081.0656,873.2266 Q1081.2219,873.0078 1081.4094,872.8984 Q1081.5969,872.7891 1081.8156,872.7891 Q1082.1906,872.7891 1082.425,873.0547 Q1082.6594,873.3047 1082.6594,873.9141 L1082.6594,875.3672 Q1082.6594,875.9766 1082.425,876.2422 Q1082.1906,876.5078 1081.8156,876.5078 Q1081.4719,876.5078 1081.2688,876.3047 Q1081.0656,876.1172 1080.9563,875.6016 Q1080.9094,875.2422 1080.7219,875.0547 Q1080.3938,874.6797 1079.7844,874.4609 Q1079.175,874.2422 1078.55,874.2422 Q1077.7844,874.2422 1077.1438,874.5703 Q1076.5188,874.8984 1076.0188,875.6484 Q1075.5344,876.3984 1075.5344,877.4297 L1075.5344,878.5234 Q1075.5344,879.7578 1076.425,880.5859 Q1077.3156,881.3984 1078.9094,881.3984 Q1079.8469,881.3984 1080.5031,881.1484 Q1080.8938,880.9922 1081.3156,880.5547 Q1081.5813,880.2891 1081.7219,880.2109 Q1081.8781,880.1328 1082.0813,880.1328 Q1082.4094,880.1328 1082.6594,880.3984 Q1082.925,880.6484 1082.925,880.9922 Q1082.925,881.3359 1082.5813,881.7422 Q1082.0813,882.3203 1081.2844,882.6484 Q1080.2063,883.1016 1078.9094,883.1016 Q1077.3938,883.1016 1076.1906,882.4766 Q1075.2063,881.9766 1074.5188,880.9141 Q1073.8313,879.8359 1073.8313,878.5547 L1073.8313,877.3984 Q1073.8313,876.0703 1074.4406,874.9297 Q1075.0656,873.7734 1076.1594,873.1641 Q1077.2531,872.5391 1078.4875,872.5391 Q1079.2219,872.5391 1079.8625,872.7109 Q1080.5188,872.8672 1081.0656,873.2266 Z " fill="#000000"/><text fill="#000000" font-family="sans-serif" font-size="12" font-style="italic" lengthAdjust="spacing" textLength="63" x="1101.2" y="873.457">&#171;Relacion&#187;</text><text fill="#000000" font-family="sans-serif" font-size="14" lengthAdjust="spacing" textLength="80" x="1092.7" y="890.627">LibroGenero</text><line style="stroke:#181818;stroke-width:0.5;" x1="1062.5" x2="1176.5" y1="898.7031" y2="898.7031"/><text fill="#000000" font-family="sans-serif" font-size="14" lengthAdjust="spacing" textLength="72" x="1067.5" y="917.2363">Libro: Libro</text><text fill="#000000" font-family="sans-serif" font-size="14" lengthAdjust="spacing" textLength="104" x="1067.5" y="934.8457">Genero: Genero</text><line style="stroke:#181818;stroke-width:0.5;" x1="1062.5" x2="1176.5" y1="941.9219" y2="941.9219"/></g><!--class Tipo_auditoria--><g id="elem_Tipo_auditoria"><rect codeLine="117" fill="#F1F1F1" height="100.8281" id="Tipo_auditoria" rx="2.5" ry="2.5" style="stroke:#181818;stroke-width:0.5;" width="123" x="149" y="601"/><ellipse cx="164" cy="617" fill="#EB937F" rx="11" ry="11" style="stroke:#181818;stroke-width:1.0;"/><path d="M162.8594,617.7969 L162.8594,620.2969 L167.1875,620.2969 L167.1875,619.375 Q167.1875,618.7656 167.4219,618.5 Q167.6719,618.2344 168.0469,618.2344 Q168.4219,618.2344 168.6563,618.5 Q168.8906,618.7656 168.8906,619.375 L168.8906,622 L160.8906,622 Q160.2656,622 160,621.7656 Q159.75,621.5313 159.75,621.1406 Q159.75,620.7656 160.0156,620.5313 Q160.2813,620.2969 160.8906,620.2969 L161.1563,620.2969 L161.1563,613.6406 L160.8906,613.6406 Q160.2656,613.6406 160,613.4063 Q159.75,613.1719 159.75,612.7813 Q159.75,612.4063 160,612.1719 Q160.2656,611.9375 160.8906,611.9375 L168.5156,611.9375 L168.5156,614.5313 Q168.5156,615.1406 168.2813,615.4063 Q168.0625,615.6563 167.6719,615.6563 Q167.2969,615.6563 167.0625,615.4063 Q166.8281,615.1406 166.8281,614.5313 L166.8281,613.6406 L162.8594,613.6406 L162.8594,616.0938 L164.3438,616.0938 Q164.3438,615.4375 164.4688,615.25 Q164.7344,614.8438 165.2031,614.8438 Q165.5781,614.8438 165.8125,615.1094 Q166.0469,615.3594 166.0469,615.9688 L166.0469,617.9375 Q166.0469,618.4844 165.9219,618.6719 Q165.6563,619.0625 165.2031,619.0625 Q164.7344,619.0625 164.4688,618.6563 Q164.3438,618.4688 164.3438,617.7969 L162.8594,617.7969 Z " fill="#000000"/><text fill="#000000" font-family="sans-serif" font-size="14" lengthAdjust="spacing" textLength="91" x="178" y="622.7285">Tipo_auditoria</text><line style="stroke:#181818;stroke-width:0.5;" x1="150" x2="271" y1="633" y2="633"/><text fill="#000000" font-family="sans-serif" font-size="14" lengthAdjust="spacing" textLength="55" x="155" y="651.5332">Agregar,</text><text fill="#000000" font-family="sans-serif" font-size="14" lengthAdjust="spacing" textLength="41" x="155" y="669.1426">Editar,</text><text fill="#000000" font-family="sans-serif" font-size="14" lengthAdjust="spacing" textLength="50" x="155" y="686.752">Eliminar</text><line style="stroke:#181818;stroke-width:0.5;" x1="150" x2="271" y1="693.8281" y2="693.8281"/></g><!--class Estado_multa--><g id="elem_Estado_multa"><rect codeLine="123" fill="#F1F1F1" height="100.8281" id="Estado_multa" rx="2.5" ry="2.5" style="stroke:#181818;stroke-width:0.5;" width="118" x="1277.5" y="290"/><ellipse cx="1292.5" cy="306" fill="#EB937F" rx="11" ry="11" style="stroke:#181818;stroke-width:1.0;"/><path d="M1291.3594,306.7969 L1291.3594,309.2969 L1295.6875,309.2969 L1295.6875,308.375 Q1295.6875,307.7656 1295.9219,307.5 Q1296.1719,307.2344 1296.5469,307.2344 Q1296.9219,307.2344 1297.1563,307.5 Q1297.3906,307.7656 1297.3906,308.375 L1297.3906,311 L1289.3906,311 Q1288.7656,311 1288.5,310.7656 Q1288.25,310.5313 1288.25,310.1406 Q1288.25,309.7656 1288.5156,309.5313 Q1288.7813,309.2969 1289.3906,309.2969 L1289.6563,309.2969 L1289.6563,302.6406 L1289.3906,302.6406 Q1288.7656,302.6406 1288.5,302.4063 Q1288.25,302.1719 1288.25,301.7813 Q1288.25,301.4063 1288.5,301.1719 Q1288.7656,300.9375 1289.3906,300.9375 L1297.0156,300.9375 L1297.0156,303.5313 Q1297.0156,304.1406 1296.7813,304.4063 Q1296.5625,304.6563 1296.1719,304.6563 Q1295.7969,304.6563 1295.5625,304.4063 Q1295.3281,304.1406 1295.3281,303.5313 L1295.3281,302.6406 L1291.3594,302.6406 L1291.3594,305.0938 L1292.8438,305.0938 Q1292.8438,304.4375 1292.9688,304.25 Q1293.2344,303.8438 1293.7031,303.8438 Q1294.0781,303.8438 1294.3125,304.1094 Q1294.5469,304.3594 1294.5469,304.9688 L1294.5469,306.9375 Q1294.5469,307.4844 1294.4219,307.6719 Q1294.1563,308.0625 1293.7031,308.0625 Q1293.2344,308.0625 1292.9688,307.6563 Q1292.8438,307.4688 1292.8438,306.7969 L1291.3594,306.7969 Z " fill="#000000"/><text fill="#000000" font-family="sans-serif" font-size="14" lengthAdjust="spacing" textLength="86" x="1306.5" y="311.7285">Estado_multa</text><line style="stroke:#181818;stroke-width:0.5;" x1="1278.5" x2="1394.5" y1="322" y2="322"/><text fill="#000000" font-family="sans-serif" font-size="14" lengthAdjust="spacing" textLength="68" x="1283.5" y="340.5332">Pendiente,</text><text fill="#000000" font-family="sans-serif" font-size="14" lengthAdjust="spacing" textLength="53" x="1283.5" y="358.1426">Pagada,</text><text fill="#000000" font-family="sans-serif" font-size="14" lengthAdjust="spacing" textLength="68" x="1283.5" y="375.752">Revocada,</text><line style="stroke:#181818;stroke-width:0.5;" x1="1278.5" x2="1394.5" y1="382.8281" y2="382.8281"/></g><!--class Estado_prestamo--><g id="elem_Estado_prestamo"><rect codeLine="129" fill="#F1F1F1" height="100.8281" id="Estado_prestamo" rx="2.5" ry="2.5" style="stroke:#181818;stroke-width:0.5;" width="143" x="1224" y="601"/><ellipse cx="1239" cy="617" fill="#EB937F" rx="11" ry="11" style="stroke:#181818;stroke-width:1.0;"/><path d="M1237.8594,617.7969 L1237.8594,620.2969 L1242.1875,620.2969 L1242.1875,619.375 Q1242.1875,618.7656 1242.4219,618.5 Q1242.6719,618.2344 1243.0469,618.2344 Q1243.4219,618.2344 1243.6563,618.5 Q1243.8906,618.7656 1243.8906,619.375 L1243.8906,622 L1235.8906,622 Q1235.2656,622 1235,621.7656 Q1234.75,621.5313 1234.75,621.1406 Q1234.75,620.7656 1235.0156,620.5313 Q1235.2813,620.2969 1235.8906,620.2969 L1236.1563,620.2969 L1236.1563,613.6406 L1235.8906,613.6406 Q1235.2656,613.6406 1235,613.4063 Q1234.75,613.1719 1234.75,612.7813 Q1234.75,612.4063 1235,612.1719 Q1235.2656,611.9375 1235.8906,611.9375 L1243.5156,611.9375 L1243.5156,614.5313 Q1243.5156,615.1406 1243.2813,615.4063 Q1243.0625,615.6563 1242.6719,615.6563 Q1242.2969,615.6563 1242.0625,615.4063 Q1241.8281,615.1406 1241.8281,614.5313 L1241.8281,613.6406 L1237.8594,613.6406 L1237.8594,616.0938 L1239.3438,616.0938 Q1239.3438,615.4375 1239.4688,615.25 Q1239.7344,614.8438 1240.2031,614.8438 Q1240.5781,614.8438 1240.8125,615.1094 Q1241.0469,615.3594 1241.0469,615.9688 L1241.0469,617.9375 Q1241.0469,618.4844 1240.9219,618.6719 Q1240.6563,619.0625 1240.2031,619.0625 Q1239.7344,619.0625 1239.4688,618.6563 Q1239.3438,618.4688 1239.3438,617.7969 L1237.8594,617.7969 Z " fill="#000000"/><text fill="#000000" font-family="sans-serif" font-size="14" lengthAdjust="spacing" textLength="111" x="1253" y="622.7285">Estado_prestamo</text><line style="stroke:#181818;stroke-width:0.5;" x1="1225" x2="1366" y1="633" y2="633"/><text fill="#000000" font-family="sans-serif" font-size="14" lengthAdjust="spacing" textLength="68" x="1230" y="651.5332">Pendiente,</text><text fill="#000000" font-family="sans-serif" font-size="14" lengthAdjust="spacing" textLength="66" x="1230" y="669.1426">Aprobado,</text><text fill="#000000" font-family="sans-serif" font-size="14" lengthAdjust="spacing" textLength="71" x="1230" y="686.752">Rechazado</text><line style="stroke:#181818;stroke-width:0.5;" x1="1225" x2="1366" y1="693.8281" y2="693.8281"/></g><!--class Tipo_prestamo--><g id="elem_Tipo_prestamo"><rect codeLine="135" fill="#F1F1F1" height="83.2188" id="Tipo_prestamo" rx="2.5" ry="2.5" style="stroke:#181818;stroke-width:0.5;" width="127" x="1402" y="610"/><ellipse cx="1417" cy="626" fill="#EB937F" rx="11" ry="11" style="stroke:#181818;stroke-width:1.0;"/><path d="M1415.8594,626.7969 L1415.8594,629.2969 L1420.1875,629.2969 L1420.1875,628.375 Q1420.1875,627.7656 1420.4219,627.5 Q1420.6719,627.2344 1421.0469,627.2344 Q1421.4219,627.2344 1421.6563,627.5 Q1421.8906,627.7656 1421.8906,628.375 L1421.8906,631 L1413.8906,631 Q1413.2656,631 1413,630.7656 Q1412.75,630.5313 1412.75,630.1406 Q1412.75,629.7656 1413.0156,629.5313 Q1413.2813,629.2969 1413.8906,629.2969 L1414.1563,629.2969 L1414.1563,622.6406 L1413.8906,622.6406 Q1413.2656,622.6406 1413,622.4063 Q1412.75,622.1719 1412.75,621.7813 Q1412.75,621.4063 1413,621.1719 Q1413.2656,620.9375 1413.8906,620.9375 L1421.5156,620.9375 L1421.5156,623.5313 Q1421.5156,624.1406 1421.2813,624.4063 Q1421.0625,624.6563 1420.6719,624.6563 Q1420.2969,624.6563 1420.0625,624.4063 Q1419.8281,624.1406 1419.8281,623.5313 L1419.8281,622.6406 L1415.8594,622.6406 L1415.8594,625.0938 L1417.3438,625.0938 Q1417.3438,624.4375 1417.4688,624.25 Q1417.7344,623.8438 1418.2031,623.8438 Q1418.5781,623.8438 1418.8125,624.1094 Q1419.0469,624.3594 1419.0469,624.9688 L1419.0469,626.9375 Q1419.0469,627.4844 1418.9219,627.6719 Q1418.6563,628.0625 1418.2031,628.0625 Q1417.7344,628.0625 1417.4688,627.6563 Q1417.3438,627.4688 1417.3438,626.7969 L1415.8594,626.7969 Z " fill="#000000"/><text fill="#000000" font-family="sans-serif" font-size="14" lengthAdjust="spacing" textLength="95" x="1431" y="631.7285">Tipo_prestamo</text><line style="stroke:#181818;stroke-width:0.5;" x1="1403" x2="1528" y1="642" y2="642"/><text fill="#000000" font-family="sans-serif" font-size="14" lengthAdjust="spacing" textLength="102" x="1408" y="660.5332">Solicitud_digital,</text><text fill="#000000" font-family="sans-serif" font-size="14" lengthAdjust="spacing" textLength="78" x="1408" y="678.1426">Retiro_fisico</text><line style="stroke:#181818;stroke-width:0.5;" x1="1403" x2="1528" y1="685.2188" y2="685.2188"/></g><!--link Usuario to Persona--><g id="link_Usuario_Persona"><path codeLine="140" d="M426.64,716.1 C449.68,747.87 474.2958,781.8041 498.9058,815.7141 " fill="none" id="Usuario-to-Persona" style="stroke:#181818;stroke-width:1.0;"/><polygon fill="#181818" points="502.43,820.57,500.381,810.9366,499.4932,816.5234,493.9064,815.6355,502.43,820.57" style="stroke:#181818;stroke-width:1.0;"/></g><!--link Estudiante to Persona--><g id="link_Estudiante_Persona"><path codeLine="141" d="M701,707.56 C677.21,740.71 649.9983,778.6554 623.4383,815.6654 " fill="none" id="Estudiante-to-Persona" style="stroke:#181818;stroke-width:1.0;"/><polygon fill="#181818" points="619.94,820.54,628.4372,815.5602,622.8552,816.4778,621.9376,810.8959,619.94,820.54" style="stroke:#181818;stroke-width:1.0;"/></g><!--link Bibliotecario to Persona--><g id="link_Bibliotecario_Persona"><path codeLine="142" d="M561.5,707.56 C561.5,740.71 561.5,777.53 561.5,814.54 " fill="none" id="Bibliotecario-to-Persona" style="stroke:#181818;stroke-width:1.0;"/><polygon fill="#181818" points="561.5,820.54,565.5,811.54,561.5,815.54,557.5,811.54,561.5,820.54" style="stroke:#181818;stroke-width:1.0;"/></g><!--link Prestamo to Libro--><g id="link_Prestamo_Libro"><path codeLine="143" d="M1128.54,449.18 C1122.78,471.74 1113.96,494.32 1100.5,513 C1085.35,534.03 1071.02,527.17 1050.5,543 C1044.69,547.49 1043.415,548.3563 1037.635,553.2863 " fill="none" id="Prestamo-to-Libro" style="stroke:#181818;stroke-width:1.0;"/><polygon fill="#181818" points="1033.07,557.18,1042.5133,554.3828,1036.8742,553.9353,1037.3217,548.2961,1033.07,557.18" style="stroke:#181818;stroke-width:1.0;"/></g><!--link Prestamo to Estudiante--><g id="link_Prestamo_Estudiante"><path codeLine="144" d="M1099.89,449.11 C1086.28,473.61 1068.46,497.08 1045.5,513 C966.21,567.98 914.88,496.22 830.5,543 C808.15,555.39 792.6029,570.9097 777.7829,590.5597 " fill="none" id="Prestamo-to-Estudiante" style="stroke:#181818;stroke-width:1.0;"/><polygon fill="#181818" points="774.17,595.35,782.7828,590.5731,777.1807,591.3581,776.3957,585.7559,774.17,595.35" style="stroke:#181818;stroke-width:1.0;"/></g><!--reverse link Prestamo to Tipo_prestamo--><g id="link_Prestamo_Tipo_prestamo"><path codeLine="145" d="M1251.7262,441.8129 C1257.7662,446.9029 1254.6,444.17 1260.5,449 C1314.04,492.78 1335.67,494.03 1384.5,543 C1404.71,563.27 1424.13,588.76 1438.88,609.83 " fill="none" id="Prestamo-backto-Tipo_prestamo" style="stroke:#181818;stroke-width:1.0;"/><polygon fill="none" points="1242.55,434.08,1244.5605,441.0052,1251.7262,441.8129,1249.7157,434.8877,1242.55,434.08" style="stroke:#181818;stroke-width:1.0;"/></g><!--reverse link Prestamo to Estado_prestamo--><g id="link_Prestamo_Estado_prestamo"><path codeLine="146" d="M1198.627,459.8376 C1224.827,511.3876 1249.49,559.94 1270.22,600.75 " fill="none" id="Prestamo-backto-Estado_prestamo" style="stroke:#181818;stroke-width:1.0;"/><polygon fill="none" points="1193.19,449.14,1192.3426,456.3011,1198.627,459.8376,1199.4744,452.6765,1193.19,449.14" style="stroke:#181818;stroke-width:1.0;"/></g><!--link Multa to Estudiante--><g id="link_Multa_Estudiante"><path codeLine="147" d="M1052.29,107.01 C981.48,125.56 884.12,162.4 828.5,232 C743.1,338.86 734.888,502.6919 737.088,589.4919 " fill="none" id="Multa-to-Estudiante" style="stroke:#181818;stroke-width:1.0;"/><polygon fill="#181818" points="737.24,595.49,741.0107,586.3915,737.1133,590.4916,733.0132,586.5942,737.24,595.49" style="stroke:#181818;stroke-width:1.0;"/></g><!--link Multa to Prestamo--><g id="link_Multa_Prestamo"><path codeLine="148" d="M1138.5,171.01 C1138.5,190.36 1138.5,205.32 1138.5,225.66 " fill="none" id="Multa-to-Prestamo" style="stroke:#181818;stroke-width:1.0;"/><polygon fill="#181818" points="1138.5,231.66,1142.5,222.66,1138.5,226.66,1134.5,222.66,1138.5,231.66" style="stroke:#181818;stroke-width:1.0;"/></g><!--reverse link Multa to Estado_multa--><g id="link_Multa_Estado_multa"><path codeLine="149" d="M1218.2772,180.2416 C1235.0572,199.8716 1244.8,211.88 1260.5,232 C1274.91,250.47 1289.97,271.38 1302.84,289.82 " fill="none" id="Multa-backto-Estado_multa" style="stroke:#181818;stroke-width:1.0;"/><polygon fill="none" points="1210.48,171.12,1211.3381,178.2799,1218.2772,180.2416,1217.4191,173.0817,1210.48,171.12" style="stroke:#181818;stroke-width:1.0;"/></g><!--reverse link Usuario to UsuarioRol--><g id="link_Usuario_UsuarioRol"><path codeLine="150" d="M320.0237,725.3594 C307.6437,739.9094 302.15,746.06 289.5,760 C259.82,792.72 225.16,828.37 198.01,855.76 " fill="none" id="Usuario-backto-UsuarioRol" style="stroke:#181818;stroke-width:1.0;"/><polygon fill="#181818" points="327.8,716.22,320.8654,718.1976,320.0237,725.3594,326.9583,723.3818,327.8,716.22" style="stroke:#181818;stroke-width:1.0;"/></g><!--reverse link Rol to UsuarioRol--><g id="link_Rol_UsuarioRol"><path codeLine="151" d="M81.4112,709.8238 C97.7412,754.6038 118.3,810.97 134.65,855.79 " fill="none" id="Rol-backto-UsuarioRol" style="stroke:#181818;stroke-width:1.0;"/><polygon fill="#181818" points="77.3,698.55,75.5977,705.5573,81.4112,709.8238,83.1135,702.8165,77.3,698.55" style="stroke:#181818;stroke-width:1.0;"/></g><!--link Auditoria to Usuario--><g id="link_Auditoria_Usuario"><path codeLine="152" d="M301,440.54 C319.12,488.38 338.206,538.7885 354.156,580.9285 " fill="none" id="Auditoria-to-Usuario" style="stroke:#181818;stroke-width:1.0;"/><polygon fill="#181818" points="356.28,586.54,356.8351,576.7068,354.51,581.8638,349.3531,579.5387,356.28,586.54" style="stroke:#181818;stroke-width:1.0;"/></g><!--reverse link Auditoria to Tipo_auditoria--><g id="link_Auditoria_Tipo_auditoria"><path codeLine="153" d="M244.4824,452.3675 C235.3124,505.8575 226.41,557.74 219.02,600.85 " fill="none" id="Auditoria-backto-Tipo_auditoria" style="stroke:#181818;stroke-width:1.0;"/><polygon fill="none" points="246.51,440.54,241.5537,445.7779,244.4824,452.3675,249.4387,447.1296,246.51,440.54" style="stroke:#181818;stroke-width:1.0;"/></g><!--reverse link Libro to LibroGenero--><g id="link_Libro_LibroGenero"><path codeLine="154" d="M1024.7044,769.8708 C1048.7344,803.3708 1066.98,828.8 1086.32,855.75 " fill="none" id="Libro-backto-LibroGenero" style="stroke:#181818;stroke-width:1.0;"/><polygon fill="#181818" points="1017.71,760.12,1017.9569,767.3269,1024.7044,769.8708,1024.4575,762.6639,1017.71,760.12" style="stroke:#181818;stroke-width:1.0;"/></g><!--reverse link Genero to LibroGenero--><g id="link_Genero_LibroGenero"><path codeLine="155" d="M1126.4062,710.5422 C1124.7862,755.3222 1122.78,810.97 1121.17,855.79 " fill="none" id="Genero-backto-LibroGenero" style="stroke:#181818;stroke-width:1.0;"/><polygon fill="#181818" points="1126.84,698.55,1122.6257,704.4015,1126.4062,710.5422,1130.6205,704.6907,1126.84,698.55" style="stroke:#181818;stroke-width:1.0;"/></g><!--link Libro to Idioma--><g id="link_Libro_Idioma"><path codeLine="156" d="M948.7,760.12 C951.25,793.62 953.4749,822.8173 955.5249,849.7673 " fill="none" id="Libro-to-Idioma" style="stroke:#181818;stroke-width:1.0;"/><polygon fill="#181818" points="955.98,855.75,959.2858,846.4725,955.6008,850.7644,951.3089,847.0793,955.98,855.75" style="stroke:#181818;stroke-width:1.0;"/></g><!--link Libro to Autor--><g id="link_Libro_Autor"><path codeLine="157" d="M882.7,760.12 C864.71,793.62 848.6483,823.5138 834.1783,850.4638 " fill="none" id="Libro-to-Autor" style="stroke:#181818;stroke-width:1.0;"/><polygon fill="#181818" points="831.34,855.75,839.1216,849.7129,833.7052,851.3448,832.0733,845.9285,831.34,855.75" style="stroke:#181818;stroke-width:1.0;"/></g><!--link Stock_Libros to Libro--><g id="link_Stock_Libros_Libro"><path codeLine="158" d="M926.21,405.15 C928.52,444.81 931.2007,490.8702 933.8807,536.8302 " fill="none" id="Stock_Libros-to-Libro" style="stroke:#181818;stroke-width:1.0;"/><polygon fill="#181818" points="934.23,542.82,937.6993,533.6024,933.9389,537.8285,929.7129,534.0681,934.23,542.82" style="stroke:#181818;stroke-width:1.0;"/><text fill="#000000" font-family="sans-serif" font-size="13" lengthAdjust="spacing" textLength="96" x="936.5" y="493.4951">Libro al que esta</text><text fill="#000000" font-family="sans-serif" font-size="13" lengthAdjust="spacing" textLength="104" x="932.5" y="509.8467">Enlazado el stock</text></g><!--SRC=[fLPPRjim4FtNAOHyjl45X210Ohj1WAOmdAH0WGB2M9euH2XI9QckwA5wXbwiGr6aA5fPslf3b6Pvd7si7vXeGK6JBpbedV_8SlgTG_MmLx8JzL9ogKvEriAm6khJq_mjsz-R2uKevYLNO6HvArWblV0vxt1UTeiSAYQ5brnA1Vn90yeQowKKHadkbJuWv_BBOrfT4zdyBVkPPSxF3Iej1UIHQyxrrvTrNkHCc6Ft-KusEuL5herYOZyGprgwbDKo8TyWnpifKl8Iwuv3GbmnXPLrVgG7usvr1uh9MUDYsmOd2k_DG1xKKojis43ZxrymS-LMydoQlDaRISmh7vZh8CQSEe1UWnuE89Wsl128mrXhqzKCXC5_zVeAoAng4kXWuJdRSIODLlyJrYKeWMO6_ItRgUTHRvZfU9gKTSscDU2fHYe6F2sxZiX5tX_7_Wuc6pBLdTu1s3C1EhxzLl7oie4zfdTPndloawnOiJqpyQN1msiZguUozrFdyyquwtElKRW0XIWAKww_CcsGaXqBzvmLqwqKb2x76atedNv9YQOD6n1SY5u2uODw07610ljKFmlX96SWDWgrWURvUg6E03jXt5csWrweffPuzfbonaugegvwEY7MZFZkDrZTGtajELKd8HGv-Ok6DJZXRubaqMQPA_miUUUAsmkCKRZgk86NXE1nLtmWYn1IFrbHLugrCtrrHSKgduXnOwqwZcjkQCI_gVdU_OEWHFa2Z-fPi3lS3c2WjCxIl59pl5RgMMOwO1-FIJA_Gccd0pmkcPxWIzkT18EqPHFNdEhPNk4UXb5bXrfuvwoX2QMi3Rrsd02dkq5HCmpfff46zH2nBPLMrNybwhuJPX7EMYLt9EKnA4lVwJDWJ7h98OG6A6it6hskhVloZcdgVwllz_LYSJgiZ2pQPqJrcoIRBgAO4-Q29RfWJqWZu4YNYyNKx2ahYKhccYu16ucRgLo4qASbUFcA6EFAp-pQJqXZtrXSl-f7Qh0xr4lcTgZ5YQin6yw4FaXRS3Ug8u9R5DbaOuMGqZ-x8_S2FF_KOMuz_YZMWlUra2EdvY35eopB_W00]--></g></svg>