<?xml version="1.0" encoding="us-ascii" standalone="no"?><svg xmlns="http://www.w3.org/2000/svg" xmlns:xlink="http://www.w3.org/1999/xlink" contentStyleType="text/css" height="573px" preserveAspectRatio="none" style="width:2258px;height:573px;background:#FFFFFF;" version="1.1" viewBox="0 0 2258 573" width="2258px" zoomAndPan="magnify"><defs/><g><!--cluster Biblioteca Online--><g id="cluster_Biblioteca Online"><rect fill="none" height="468" rx="2.5" ry="2.5" style="stroke:#181818;stroke-width:1.0;" width="2245" x="7" y="99.5"/><text fill="#000000" font-family="sans-serif" font-size="14" font-weight="bold" lengthAdjust="spacing" textLength="120" x="1069.5" y="116.0332">Biblioteca Online</text></g><!--cluster E--><g id="cluster_E"><rect fill="none" height="241.5" rx="2.5" ry="2.5" style="stroke:#181818;stroke-width:1.0;" width="687" x="39" y="171"/><text fill="#000000" font-family="sans-serif" font-size="14" font-weight="bold" lengthAdjust="spacing" textLength="258" x="253.5" y="187.5332">Funciones exclusivas del estudiante</text></g><!--cluster BA--><g id="cluster_BA"><rect fill="none" height="384" rx="2.5" ry="2.5" style="stroke:#181818;stroke-width:1.0;" width="918" x="883" y="151.5"/><text fill="#000000" font-family="sans-serif" font-size="14" font-weight="bold" lengthAdjust="spacing" textLength="164" x="1260" y="168.0332">Funciones compartidas</text><text fill="#000000" font-family="sans-serif" font-size="14" font-weight="bold" lengthAdjust="spacing" textLength="212" x="1236" y="185.6426">(Bibliotecario y Administrador)</text></g><g id="elem_L"><ellipse cx="802.8822" cy="242.1552" fill="#D3D3D3" rx="52.3822" ry="27.1552" style="stroke:#000000;stroke-width:0.5;"/><text fill="#000000" font-family="sans-serif" font-size="14" font-style="italic" lengthAdjust="spacing" textLength="56" x="770.8822" y="237.8672">&#171;Todos&#187;</text><text fill="#000000" font-family="sans-serif" font-size="14" lengthAdjust="spacing" textLength="60" x="768.8822" y="255.4765">Logearse</text></g><g id="elem_A1"><ellipse cx="1919.1018" cy="242.1733" fill="#F08080" rx="93.6018" ry="27.1733" style="stroke:#000000;stroke-width:0.5;"/><text fill="#000000" font-family="sans-serif" font-size="14" font-style="italic" lengthAdjust="spacing" textLength="103" x="1861.5555" y="237.6116">&#171;Administrador&#187;</text><text fill="#000000" font-family="sans-serif" font-size="14" lengthAdjust="spacing" textLength="120" x="1853.0555" y="255.221">Gestionar usuarios</text></g><g id="elem_A2"><ellipse cx="2142.1675" cy="242.1414" fill="#F08080" rx="94.1675" ry="27.1414" style="stroke:#000000;stroke-width:0.5;"/><text fill="#000000" font-family="sans-serif" font-size="14" font-style="italic" lengthAdjust="spacing" textLength="103" x="2084.6081" y="237.5293">&#171;Administrador&#187;</text><text fill="#000000" font-family="sans-serif" font-size="14" lengthAdjust="spacing" textLength="121" x="2075.6081" y="255.1387">Generar matriculas</text></g><g id="elem_Ver libros disponibles"><ellipse cx="182.2283" cy="242.1745" fill="#ADD8E6" rx="99.7283" ry="26.1745" style="stroke:#000000;stroke-width:0.5;"/><text fill="#000000" font-family="sans-serif" font-size="14" font-style="italic" lengthAdjust="spacing" textLength="83" x="134.6454" y="236.1073">&#171;Estudiante&#187;</text><text fill="#000000" font-family="sans-serif" font-size="14" lengthAdjust="spacing" textLength="135" x="108.6454" y="253.7166">Ver libros disponibles</text></g><g id="elem_Reservar libros"><ellipse cx="393.9175" cy="242.1045" fill="#ADD8E6" rx="76.9175" ry="27.1045" style="stroke:#000000;stroke-width:0.5;"/><text fill="#000000" font-family="sans-serif" font-size="14" font-style="italic" lengthAdjust="spacing" textLength="83" x="346.8875" y="237.6176">&#171;Estudiante&#187;</text><text fill="#000000" font-family="sans-serif" font-size="14" lengthAdjust="spacing" textLength="96" x="340.3875" y="255.227">Reservar libros</text></g><g id="elem_Ver reservas propias"><ellipse cx="603.9322" cy="242.218" fill="#ADD8E6" rx="97.9322" ry="26.218" style="stroke:#000000;stroke-width:0.5;"/><text fill="#000000" font-family="sans-serif" font-size="14" font-style="italic" lengthAdjust="spacing" textLength="83" x="556.3944" y="236.2301">&#171;Estudiante&#187;</text><text fill="#000000" font-family="sans-serif" font-size="14" lengthAdjust="spacing" textLength="132" x="531.8944" y="253.8395">Ver reservas propias</text></g><g id="elem_Ver sus multas"><ellipse cx="182.2321" cy="360.2278" fill="#ADD8E6" rx="75.2321" ry="27.2278" style="stroke:#000000;stroke-width:0.5;"/><text fill="#000000" font-family="sans-serif" font-size="14" font-style="italic" lengthAdjust="spacing" textLength="83" x="135.2405" y="355.9374">&#171;Estudiante&#187;</text><text fill="#000000" font-family="sans-serif" font-size="14" lengthAdjust="spacing" textLength="93" x="130.2405" y="373.5467">Ver sus multas</text></g><g id="elem_Ver/descargar libros virtuales"><ellipse cx="414.023" cy="359.8046" fill="#ADD8E6" rx="122.023" ry="26.8046" style="stroke:#000000;stroke-width:0.5;"/><text fill="#000000" font-family="sans-serif" font-size="14" font-style="italic" lengthAdjust="spacing" textLength="83" x="366.599" y="352.0806">&#171;Estudiante&#187;</text><text fill="#000000" font-family="sans-serif" font-size="14" lengthAdjust="spacing" textLength="185" x="315.599" y="369.6899">Ver/descargar libros virtuales</text></g><g id="elem_Registrarse"><ellipse cx="635.1191" cy="359.824" fill="#ADD8E6" rx="64.1191" ry="28.324" style="stroke:#000000;stroke-width:0.5;"/><text fill="#000000" font-family="sans-serif" font-size="14" font-style="italic" lengthAdjust="spacing" textLength="83" x="593.1191" y="355.5359">&#171;Estudiante&#187;</text><text fill="#000000" font-family="sans-serif" font-size="14" lengthAdjust="spacing" textLength="73" x="598.1191" y="373.1453">Registrarse</text></g><g id="elem_Ver cat&#225;logo completo"><ellipse cx="1056.9344" cy="241.9869" fill="#90EE90" rx="130.4344" ry="28.4869" style="stroke:#000000;stroke-width:0.5;"/><text fill="#000000" font-family="sans-serif" font-size="14" font-style="italic" lengthAdjust="spacing" textLength="195" x="959.4344" y="239.6849">&#171;Bibliotecario y Administrador&#187;</text><text fill="#000000" font-family="sans-serif" font-size="14" lengthAdjust="spacing" textLength="141" x="986.4344" y="257.2943">Ver cat&#225;logo completo</text></g><g id="elem_Ver todas las reservas"><ellipse cx="1353.0688" cy="242.0138" fill="#90EE90" rx="130.5688" ry="28.5138" style="stroke:#000000;stroke-width:0.5;"/><text fill="#000000" font-family="sans-serif" font-size="14" font-style="italic" lengthAdjust="spacing" textLength="195" x="1255.5688" y="239.6701">&#171;Bibliotecario y Administrador&#187;</text><text fill="#000000" font-family="sans-serif" font-size="14" lengthAdjust="spacing" textLength="142" x="1282.0688" y="257.2795">Ver todas las reservas</text></g><g id="elem_Ver todas las multas"><ellipse cx="1647.7836" cy="242.1567" fill="#90EE90" rx="128.7836" ry="28.1567" style="stroke:#000000;stroke-width:0.5;"/><text fill="#000000" font-family="sans-serif" font-size="14" font-style="italic" lengthAdjust="spacing" textLength="195" x="1550.2836" y="240.3724">&#171;Bibliotecario y Administrador&#187;</text><text fill="#000000" font-family="sans-serif" font-size="14" lengthAdjust="spacing" textLength="128" x="1583.7836" y="257.9817">Ver todas las multas</text></g><g id="elem_Aprobar/rechazar reservas"><ellipse cx="1060.1158" cy="359.8232" fill="#90EE90" rx="134.6158" ry="29.3232" style="stroke:#000000;stroke-width:0.5;"/><text fill="#000000" font-family="sans-serif" font-size="14" font-style="italic" lengthAdjust="spacing" textLength="195" x="962.6158" y="356.2504">&#171;Bibliotecario y Administrador&#187;</text><text fill="#000000" font-family="sans-serif" font-size="14" lengthAdjust="spacing" textLength="169" x="975.6158" y="373.8598">Aprobar/rechazar reservas</text></g><g id="elem_Generar multas"><ellipse cx="1355.1277" cy="360.0255" fill="#90EE90" rx="125.6277" ry="27.5255" style="stroke:#000000;stroke-width:0.5;"/><text fill="#000000" font-family="sans-serif" font-size="14" font-style="italic" lengthAdjust="spacing" textLength="195" x="1257.6277" y="359.2604">&#171;Bibliotecario y Administrador&#187;</text><text fill="#000000" font-family="sans-serif" font-size="14" lengthAdjust="spacing" textLength="98" x="1306.1277" y="376.8697">Generar multas</text></g><g id="elem_Cobrar/revocar multas"><ellipse cx="1645.9344" cy="359.9869" fill="#90EE90" rx="130.4344" ry="28.4869" style="stroke:#000000;stroke-width:0.5;"/><text fill="#000000" font-family="sans-serif" font-size="14" font-style="italic" lengthAdjust="spacing" textLength="195" x="1548.4344" y="357.6849">&#171;Bibliotecario y Administrador&#187;</text><text fill="#000000" font-family="sans-serif" font-size="14" lengthAdjust="spacing" textLength="141" x="1575.4344" y="375.2943">Cobrar/revocar multas</text></g><g id="elem_Registrar reservas inmediatas"><ellipse cx="1063.1394" cy="480.5279" fill="#90EE90" rx="138.1394" ry="30.0279" style="stroke:#000000;stroke-width:0.5;"/><text fill="#000000" font-family="sans-serif" font-size="14" font-style="italic" lengthAdjust="spacing" textLength="195" x="964.1394" y="476.2398">&#171;Bibliotecario y Administrador&#187;</text><text fill="#000000" font-family="sans-serif" font-size="14" lengthAdjust="spacing" textLength="189" x="967.1394" y="493.8492">Registrar reservas inmediatas</text></g><g id="elem_Control de libros f&#237;sicos y digitales"><ellipse cx="1378.8057" cy="480.4611" fill="#90EE90" rx="142.8057" ry="30.9611" style="stroke:#000000;stroke-width:0.5;"/><text fill="#000000" font-family="sans-serif" font-size="14" font-style="italic" lengthAdjust="spacing" textLength="195" x="1275.2198" y="475.7922">&#171;Bibliotecario y Administrador&#187;</text><text fill="#000000" font-family="sans-serif" font-size="14" lengthAdjust="spacing" textLength="214" x="1265.7198" y="493.4016">Control de libros f&#237;sicos y digitales</text></g><!--entity Estudiante--><g id="elem_Estudiante"><ellipse cx="416" cy="14" fill="#F1F1F1" rx="8" ry="8" style="stroke:#181818;stroke-width:0.5;"/><path d="M416,22 L416,49 M403,30 L429,30 M416,49 L403,64 M416,49 L429,64 " fill="none" style="stroke:#181818;stroke-width:0.5;"/><text fill="#000000" font-family="sans-serif" font-size="14" lengthAdjust="spacing" textLength="67" x="382.5" y="80.0332">Estudiante</text></g><!--entity Bibliotecario--><g id="elem_Bibliotecario"><ellipse cx="847" cy="14" fill="#F1F1F1" rx="8" ry="8" style="stroke:#181818;stroke-width:0.5;"/><path d="M847,22 L847,49 M834,30 L860,30 M847,49 L834,64 M847,49 L860,64 " fill="none" style="stroke:#181818;stroke-width:0.5;"/><text fill="#000000" font-family="sans-serif" font-size="14" lengthAdjust="spacing" textLength="77" x="808.5" y="80.0332">Bibliotecario</text></g><!--entity Administrador--><g id="elem_Administrador"><ellipse cx="1463" cy="14" fill="#F1F1F1" rx="8" ry="8" style="stroke:#181818;stroke-width:0.5;"/><path d="M1463,22 L1463,49 M1450,30 L1476,30 M1463,49 L1450,64 M1463,49 L1476,64 " fill="none" style="stroke:#181818;stroke-width:0.5;"/><text fill="#000000" font-family="sans-serif" font-size="14" lengthAdjust="spacing" textLength="87" x="1419.5" y="80.0332">Administrador</text></g><!--link Estudiante to L--><g id="link_Estudiante_L"><path d="M449.61,46.97 C518.93,50.59 674.9,61.86 718,91.5 C761.3,121.28 783.4477,175.044 794.1777,209.324 " fill="none" id="Estudiante-to-L" style="stroke:#000000;stroke-width:1.0;"/><polygon fill="#000000" points="795.97,215.05,797.0989,205.2661,794.4764,210.2783,789.4642,207.6558,795.97,215.05" style="stroke:#000000;stroke-width:1.0;"/></g><!--link Administrador to L--><g id="link_Administrador_L"><path d="M1419.31,47.73 C1286.86,54.64 897.42,76.16 875,91.5 C833.04,120.21 815.9532,174.5302 808.6232,209.1402 " fill="none" id="Administrador-to-L" style="stroke:#000000;stroke-width:1.0;"/><polygon fill="#000000" points="807.38,215.01,813.1579,207.0341,808.416,210.1185,805.3315,205.3765,807.38,215.01" style="stroke:#000000;stroke-width:1.0;"/></g><!--link Bibliotecario to L--><g id="link_Bibliotecario_L"><path d="M838.41,83.66 C829.68,122.44 817.7172,175.6064 810.1472,209.2464 " fill="none" id="Bibliotecario-to-L" style="stroke:#000000;stroke-width:1.0;"/><polygon fill="#000000" points="808.83,215.1,814.7083,207.1977,809.9277,210.222,806.9034,205.4414,808.83,215.1" style="stroke:#000000;stroke-width:1.0;"/></g><!--link Estudiante to E--><g id="link_Estudiante_E"><path d="M382.27,44.93 C303.3,44.34 109.78,47.53 66,91.5 C42.74,114.86 37.775,151.44 38.73,182.5688 C38.7897,184.5143 38.5477,180.4473 38.6506,182.3457 " fill="none" id="Estudiante-to-E" style="stroke:#000000;stroke-width:1.0;"/><polygon fill="#000000" points="38.9754,188.337,42.4824,179.1336,38.7048,183.3443,34.4941,179.5667,38.9754,188.337" style="stroke:#000000;stroke-width:1.0;"/></g><!--link Bibliotecario to BA--><g id="link_Bibliotecario_BA"><path d="M883.27,83.68 C884.7,86.22 885.96,88.84 887,91.5 C892.935,106.7425 896.1913,123.5369 897.7277,140.1963 C897.9197,142.2787 898.0849,144.359 898.2251,146.4339 C898.2952,147.4713 898.359,148.5075 898.4168,149.5418 C898.4457,150.059 898.1721,144.5832 898.198,145.0995 " fill="none" id="Bibliotecario-to-BA" style="stroke:#000000;stroke-width:1.0;"/><polygon fill="#000000" points="898.4991,151.0919,902.0425,141.9026,898.2482,146.0982,894.0526,142.3039,898.4991,151.0919" style="stroke:#000000;stroke-width:1.0;"/></g><!--link Administrador to BA--><g id="link_Administrador_BA"><path d="M1419.3,46.02 C1294.91,47.91 945.48,56.34 909,91.5 C903.07,97.215 898.9688,109.1713 896.1553,123.9508 C894.7486,131.3405 893.6638,139.4361 892.8334,147.8103 C892.7296,148.8571 893.1736,143.9329 893.0776,144.9875 " fill="none" id="Administrador-to-BA" style="stroke:#000000;stroke-width:1.0;"/><polygon fill="#000000" points="892.5338,150.9628,897.3331,142.3624,892.987,145.9834,889.366,141.6373,892.5338,150.9628" style="stroke:#000000;stroke-width:1.0;"/></g><!--link Administrador to A1--><g id="link_Administrador_A1"><path d="M1506.67,47.73 C1584.75,52.33 1744.64,64.8 1793,91.5 C1845.45,120.46 1882.4854,175.345 1902.2854,209.875 " fill="none" id="Administrador-to-A1" style="stroke:#000000;stroke-width:1.0;"/><polygon fill="#000000" points="1905.27,215.08,1904.2631,205.2828,1902.7828,210.7425,1897.3231,209.2622,1905.27,215.08" style="stroke:#000000;stroke-width:1.0;"/></g><!--link Administrador to A2--><g id="link_Administrador_A2"><path d="M1506.95,46.99 C1632.15,51.54 1984.61,66.44 2030,91.5 C2080.25,119.24 2112.0114,174.6582 2128.3914,209.5682 " fill="none" id="Administrador-to-A2" style="stroke:#000000;stroke-width:1.0;"/><polygon fill="#000000" points="2130.94,215,2130.7382,205.1532,2128.8161,210.4735,2123.4958,208.5514,2130.94,215" style="stroke:#000000;stroke-width:1.0;"/></g><!--SRC=[hLN1Zjf03BtdAonExM6rsZslLWg8Sa6gr5OzzM8IDplQOOpi6LfQyJ7zW7x5_bXDGWA8f4LBaOA8vptxZPzdq6SNLYYuX1KMprZHnxZn1495n51vohG39AK2bU1d1lOP6xmIJg6Si6TvU9XgJAN34Edn4UQkUefZdwWV-ubBrXOs4zpqm_9owOBJA5YojF092_f-_DWjlEDeCiKnRA2NFnEYqF1PIfAQ2sDloUfeBiBVZeFRBCCYskjXX_l0IRrzxAHcbdMDXD413U-3Tu56rigwPDlPqPmhGb5RGOKvT8rgO8VwS7DZksda7jSxYf_seedN2qUAtgLGE0waGDyBdzIjhMn97gYhL2kPmjxq4x6VIS2xXR1ndAuuM4NI4S3fB9mJFv2IhB5bNy3ObPA6fR0INZcybAP9OPbyl9HmMv9QpwfE7goTn8INRgsglQWzx05lTz_3DXIyjBCMNOdw9RpvwpY_hPqPvmF651XVVdckkCxfAV9EppyEI7-go2O7l3sj1VyXLMl9AnBbDW0Bb5lhu1F-GBbErem2cL_N29hmGcezQowkozIDps7QNLYIZT3hjOKexErKj-FyzUMtki9-REpOLYusatrPwctlHJGTk736-S0DjLyuya2Z7G3RTjAqesiztFaTdFq7PFtcOHHN98zxulq0yLnAVZUqS9zj_m00]--></g></svg>