<?xml version="1.0" encoding="us-ascii" standalone="no"?><svg xmlns="http://www.w3.org/2000/svg" xmlns:xlink="http://www.w3.org/1999/xlink" contentStyleType="text/css" height="975px" preserveAspectRatio="none" style="width:1402px;height:975px;background:#FFFFFF;" version="1.1" viewBox="0 0 1402 975" width="1402px" zoomAndPan="magnify"><defs/><g><!--class Persona--><g id="elem_Persona"><rect codeLine="10" fill="#90EE90" height="164.3594" id="Persona" rx="2.5" ry="2.5" style="stroke:#181818;stroke-width:0.5;" width="132" x="357.5" y="804"/><ellipse cx="393.65" cy="825.3516" fill="#ADD1B2" rx="11" ry="11" style="stroke:#181818;stroke-width:1.0;"/><path d="M396.4156,821.2266 Q396.5719,821.0078 396.7594,820.8984 Q396.9469,820.7891 397.1656,820.7891 Q397.5406,820.7891 397.775,821.0547 Q398.0094,821.3047 398.0094,821.9141 L398.0094,823.3672 Q398.0094,823.9766 397.775,824.2422 Q397.5406,824.5078 397.1656,824.5078 Q396.8219,824.5078 396.6188,824.3047 Q396.4156,824.1172 396.3063,823.6016 Q396.2594,823.2422 396.0719,823.0547 Q395.7438,822.6797 395.1344,822.4609 Q394.525,822.2422 393.9,822.2422 Q393.1344,822.2422 392.4938,822.5703 Q391.8688,822.8984 391.3688,823.6484 Q390.8844,824.3984 390.8844,825.4297 L390.8844,826.5234 Q390.8844,827.7578 391.775,828.5859 Q392.6656,829.3984 394.2594,829.3984 Q395.1969,829.3984 395.8531,829.1484 Q396.2438,828.9922 396.6656,828.5547 Q396.9313,828.2891 397.0719,828.2109 Q397.2281,828.1328 397.4313,828.1328 Q397.7594,828.1328 398.0094,828.3984 Q398.275,828.6484 398.275,828.9922 Q398.275,829.3359 397.9313,829.7422 Q397.4313,830.3203 396.6344,830.6484 Q395.5563,831.1016 394.2594,831.1016 Q392.7438,831.1016 391.5406,830.4766 Q390.5563,829.9766 389.8688,828.9141 Q389.1813,827.8359 389.1813,826.5547 L389.1813,825.3984 Q389.1813,824.0703 389.7906,822.9297 Q390.4156,821.7734 391.5094,821.1641 Q392.6031,820.5391 393.8375,820.5391 Q394.5719,820.5391 395.2125,820.7109 Q395.8688,820.8672 396.4156,821.2266 Z " fill="#000000"/><text fill="#000000" font-family="sans-serif" font-size="12" font-style="italic" lengthAdjust="spacing" textLength="56" x="410.85" y="821.457">&#171;Entidad&#187;</text><text fill="#000000" font-family="sans-serif" font-size="14" lengthAdjust="spacing" textLength="53" x="412.35" y="838.627">Persona</text><line style="stroke:#181818;stroke-width:0.5;" x1="358.5" x2="488.5" y1="846.7031" y2="846.7031"/><ellipse cx="368.5" cy="861.0078" fill="none" rx="3" ry="3" style="stroke:#038048;stroke-width:1.0;"/><text fill="#000000" font-family="sans-serif" font-size="14" lengthAdjust="spacing" textLength="42" x="377.5" y="865.2363">Id : int,</text><ellipse cx="368.5" cy="878.6172" fill="none" rx="3" ry="3" style="stroke:#038048;stroke-width:1.0;"/><text fill="#000000" font-family="sans-serif" font-size="14" lengthAdjust="spacing" textLength="96" x="377.5" y="882.8457">Nombre: string,</text><ellipse cx="368.5" cy="896.2266" fill="none" rx="3" ry="3" style="stroke:#038048;stroke-width:1.0;"/><text fill="#000000" font-family="sans-serif" font-size="14" lengthAdjust="spacing" textLength="97" x="377.5" y="900.4551">Apellido: string,</text><ellipse cx="368.5" cy="913.8359" fill="none" rx="3" ry="3" style="stroke:#038048;stroke-width:1.0;"/><text fill="#000000" font-family="sans-serif" font-size="14" lengthAdjust="spacing" textLength="103" x="377.5" y="918.0645">Telefono: string,</text><ellipse cx="368.5" cy="931.4453" fill="none" rx="3" ry="3" style="stroke:#038048;stroke-width:1.0;"/><text fill="#000000" font-family="sans-serif" font-size="14" lengthAdjust="spacing" textLength="92" x="377.5" y="935.6738">Cedula: string,</text><ellipse cx="368.5" cy="949.0547" fill="none" rx="3" ry="3" style="stroke:#038048;stroke-width:1.0;"/><text fill="#000000" font-family="sans-serif" font-size="14" lengthAdjust="spacing" textLength="106" x="377.5" y="953.2832">Direccion: string,</text><line style="stroke:#181818;stroke-width:0.5;" x1="358.5" x2="488.5" y1="960.3594" y2="960.3594"/></g><!--class Usuario--><g id="elem_Usuario"><rect codeLine="20" fill="#90EE90" height="146.75" id="Usuario" rx="2.5" ry="2.5" style="stroke:#181818;stroke-width:0.5;" width="147" x="7" y="561"/><ellipse cx="50.35" cy="582.3516" fill="#ADD1B2" rx="11" ry="11" style="stroke:#181818;stroke-width:1.0;"/><path d="M53.1156,578.2266 Q53.2719,578.0078 53.4594,577.8984 Q53.6469,577.7891 53.8656,577.7891 Q54.2406,577.7891 54.475,578.0547 Q54.7094,578.3047 54.7094,578.9141 L54.7094,580.3672 Q54.7094,580.9766 54.475,581.2422 Q54.2406,581.5078 53.8656,581.5078 Q53.5219,581.5078 53.3188,581.3047 Q53.1156,581.1172 53.0063,580.6016 Q52.9594,580.2422 52.7719,580.0547 Q52.4438,579.6797 51.8344,579.4609 Q51.225,579.2422 50.6,579.2422 Q49.8344,579.2422 49.1938,579.5703 Q48.5688,579.8984 48.0688,580.6484 Q47.5844,581.3984 47.5844,582.4297 L47.5844,583.5234 Q47.5844,584.7578 48.475,585.5859 Q49.3656,586.3984 50.9594,586.3984 Q51.8969,586.3984 52.5531,586.1484 Q52.9438,585.9922 53.3656,585.5547 Q53.6313,585.2891 53.7719,585.2109 Q53.9281,585.1328 54.1313,585.1328 Q54.4594,585.1328 54.7094,585.3984 Q54.975,585.6484 54.975,585.9922 Q54.975,586.3359 54.6313,586.7422 Q54.1313,587.3203 53.3344,587.6484 Q52.2563,588.1016 50.9594,588.1016 Q49.4438,588.1016 48.2406,587.4766 Q47.2563,586.9766 46.5688,585.9141 Q45.8813,584.8359 45.8813,583.5547 L45.8813,582.3984 Q45.8813,581.0703 46.4906,579.9297 Q47.1156,578.7734 48.2094,578.1641 Q49.3031,577.5391 50.5375,577.5391 Q51.2719,577.5391 51.9125,577.7109 Q52.5688,577.8672 53.1156,578.2266 Z " fill="#000000"/><text fill="#000000" font-family="sans-serif" font-size="12" font-style="italic" lengthAdjust="spacing" textLength="56" x="68.65" y="578.457">&#171;Entidad&#187;</text><text fill="#000000" font-family="sans-serif" font-size="14" lengthAdjust="spacing" textLength="48" x="72.65" y="595.627">Usuario</text><line style="stroke:#181818;stroke-width:0.5;" x1="8" x2="153" y1="603.7031" y2="603.7031"/><ellipse cx="18" cy="618.0078" fill="none" rx="3" ry="3" style="stroke:#038048;stroke-width:1.0;"/><text fill="#000000" font-family="sans-serif" font-size="14" lengthAdjust="spacing" textLength="38" x="27" y="622.2363">Id: int,</text><ellipse cx="18" cy="635.6172" fill="none" rx="3" ry="3" style="stroke:#038048;stroke-width:1.0;"/><text fill="#000000" font-family="sans-serif" font-size="14" lengthAdjust="spacing" textLength="118" x="27" y="639.8457">Persona: Persona,</text><ellipse cx="18" cy="653.2266" fill="none" rx="3" ry="3" style="stroke:#038048;stroke-width:1.0;"/><text fill="#000000" font-family="sans-serif" font-size="14" lengthAdjust="spacing" textLength="95" x="27" y="657.4551">Usuario: string,</text><ellipse cx="18" cy="670.8359" fill="none" rx="3" ry="3" style="stroke:#038048;stroke-width:1.0;"/><text fill="#000000" font-family="sans-serif" font-size="14" lengthAdjust="spacing" textLength="121" x="27" y="675.0645">Contrase&#241;a: string,</text><ellipse cx="18" cy="688.4453" fill="none" rx="3" ry="3" style="stroke:#038048;stroke-width:1.0;"/><text fill="#000000" font-family="sans-serif" font-size="14" lengthAdjust="spacing" textLength="50" x="27" y="692.6738">Rol: Rol</text><line style="stroke:#181818;stroke-width:0.5;" x1="8" x2="153" y1="699.75" y2="699.75"/></g><!--class Estudiante--><g id="elem_Estudiante"><rect codeLine="28" fill="#90EE90" height="111.5313" id="Estudiante" rx="2.5" ry="2.5" style="stroke:#181818;stroke-width:0.5;" width="152" x="709.5" y="578.5"/><ellipse cx="748.35" cy="599.8516" fill="#ADD1B2" rx="11" ry="11" style="stroke:#181818;stroke-width:1.0;"/><path d="M751.1156,595.7266 Q751.2719,595.5078 751.4594,595.3984 Q751.6469,595.2891 751.8656,595.2891 Q752.2406,595.2891 752.475,595.5547 Q752.7094,595.8047 752.7094,596.4141 L752.7094,597.8672 Q752.7094,598.4766 752.475,598.7422 Q752.2406,599.0078 751.8656,599.0078 Q751.5219,599.0078 751.3188,598.8047 Q751.1156,598.6172 751.0063,598.1016 Q750.9594,597.7422 750.7719,597.5547 Q750.4438,597.1797 749.8344,596.9609 Q749.225,596.7422 748.6,596.7422 Q747.8344,596.7422 747.1938,597.0703 Q746.5688,597.3984 746.0688,598.1484 Q745.5844,598.8984 745.5844,599.9297 L745.5844,601.0234 Q745.5844,602.2578 746.475,603.0859 Q747.3656,603.8984 748.9594,603.8984 Q749.8969,603.8984 750.5531,603.6484 Q750.9438,603.4922 751.3656,603.0547 Q751.6313,602.7891 751.7719,602.7109 Q751.9281,602.6328 752.1313,602.6328 Q752.4594,602.6328 752.7094,602.8984 Q752.975,603.1484 752.975,603.4922 Q752.975,603.8359 752.6313,604.2422 Q752.1313,604.8203 751.3344,605.1484 Q750.2563,605.6016 748.9594,605.6016 Q747.4438,605.6016 746.2406,604.9766 Q745.2563,604.4766 744.5688,603.4141 Q743.8813,602.3359 743.8813,601.0547 L743.8813,599.8984 Q743.8813,598.5703 744.4906,597.4297 Q745.1156,596.2734 746.2094,595.6641 Q747.3031,595.0391 748.5375,595.0391 Q749.2719,595.0391 749.9125,595.2109 Q750.5688,595.3672 751.1156,595.7266 Z " fill="#000000"/><text fill="#000000" font-family="sans-serif" font-size="12" font-style="italic" lengthAdjust="spacing" textLength="56" x="773.15" y="595.957">&#171;Entidad&#187;</text><text fill="#000000" font-family="sans-serif" font-size="14" lengthAdjust="spacing" textLength="67" x="767.65" y="613.127">Estudiante</text><line style="stroke:#181818;stroke-width:0.5;" x1="710.5" x2="860.5" y1="621.2031" y2="621.2031"/><ellipse cx="720.5" cy="635.5078" fill="none" rx="3" ry="3" style="stroke:#038048;stroke-width:1.0;"/><text fill="#000000" font-family="sans-serif" font-size="14" lengthAdjust="spacing" textLength="38" x="729.5" y="639.7363">Id: int,</text><ellipse cx="720.5" cy="653.1172" fill="none" rx="3" ry="3" style="stroke:#038048;stroke-width:1.0;"/><text fill="#000000" font-family="sans-serif" font-size="14" lengthAdjust="spacing" textLength="118" x="729.5" y="657.3457">Persona: Persona,</text><ellipse cx="720.5" cy="670.7266" fill="none" rx="3" ry="3" style="stroke:#038048;stroke-width:1.0;"/><text fill="#000000" font-family="sans-serif" font-size="14" lengthAdjust="spacing" textLength="126" x="729.5" y="674.9551">Matricula: Matricula,</text><line style="stroke:#181818;stroke-width:0.5;" x1="710.5" x2="860.5" y1="682.0313" y2="682.0313"/></g><!--class Matricula--><g id="elem_Matricula"><rect codeLine="34" fill="#ADD8E6" height="93.9219" id="Matricula" rx="2.5" ry="2.5" style="stroke:#181818;stroke-width:0.5;" width="126" x="722.5" y="839"/><ellipse cx="746.05" cy="860.3516" fill="#ADD1B2" rx="11" ry="11" style="stroke:#181818;stroke-width:1.0;"/><path d="M748.8156,856.2266 Q748.9719,856.0078 749.1594,855.8984 Q749.3469,855.7891 749.5656,855.7891 Q749.9406,855.7891 750.175,856.0547 Q750.4094,856.3047 750.4094,856.9141 L750.4094,858.3672 Q750.4094,858.9766 750.175,859.2422 Q749.9406,859.5078 749.5656,859.5078 Q749.2219,859.5078 749.0188,859.3047 Q748.8156,859.1172 748.7063,858.6016 Q748.6594,858.2422 748.4719,858.0547 Q748.1438,857.6797 747.5344,857.4609 Q746.925,857.2422 746.3,857.2422 Q745.5344,857.2422 744.8938,857.5703 Q744.2688,857.8984 743.7688,858.6484 Q743.2844,859.3984 743.2844,860.4297 L743.2844,861.5234 Q743.2844,862.7578 744.175,863.5859 Q745.0656,864.3984 746.6594,864.3984 Q747.5969,864.3984 748.2531,864.1484 Q748.6438,863.9922 749.0656,863.5547 Q749.3313,863.2891 749.4719,863.2109 Q749.6281,863.1328 749.8313,863.1328 Q750.1594,863.1328 750.4094,863.3984 Q750.675,863.6484 750.675,863.9922 Q750.675,864.3359 750.3313,864.7422 Q749.8313,865.3203 749.0344,865.6484 Q747.9563,866.1016 746.6594,866.1016 Q745.1438,866.1016 743.9406,865.4766 Q742.9563,864.9766 742.2688,863.9141 Q741.5813,862.8359 741.5813,861.5547 L741.5813,860.3984 Q741.5813,859.0703 742.1906,857.9297 Q742.8156,856.7734 743.9094,856.1641 Q745.0031,855.5391 746.2375,855.5391 Q746.9719,855.5391 747.6125,855.7109 Q748.2688,855.8672 748.8156,856.2266 Z " fill="#000000"/><text fill="#000000" font-family="sans-serif" font-size="12" font-style="italic" lengthAdjust="spacing" textLength="79" x="759.95" y="856.457">&#171;Dato_Unico&#187;</text><text fill="#000000" font-family="sans-serif" font-size="14" lengthAdjust="spacing" textLength="57" x="770.95" y="873.627">Matricula</text><line style="stroke:#181818;stroke-width:0.5;" x1="723.5" x2="847.5" y1="881.7031" y2="881.7031"/><ellipse cx="733.5" cy="896.0078" fill="none" rx="3" ry="3" style="stroke:#038048;stroke-width:1.0;"/><text fill="#000000" font-family="sans-serif" font-size="14" lengthAdjust="spacing" textLength="38" x="742.5" y="900.2363">Id: int,</text><ellipse cx="733.5" cy="913.6172" fill="none" rx="3" ry="3" style="stroke:#038048;stroke-width:1.0;"/><text fill="#000000" font-family="sans-serif" font-size="14" lengthAdjust="spacing" textLength="100" x="742.5" y="917.8457">Matricula: string</text><line style="stroke:#181818;stroke-width:0.5;" x1="723.5" x2="847.5" y1="924.9219" y2="924.9219"/></g><!--class Bibliotecario--><g id="elem_Bibliotecario"><rect codeLine="38" fill="#90EE90" height="111.5313" id="Bibliotecario" rx="2.5" ry="2.5" style="stroke:#181818;stroke-width:0.5;" width="144" x="351.5" y="578.5"/><ellipse cx="382.25" cy="599.8516" fill="#ADD1B2" rx="11" ry="11" style="stroke:#181818;stroke-width:1.0;"/><path d="M385.0156,595.7266 Q385.1719,595.5078 385.3594,595.3984 Q385.5469,595.2891 385.7656,595.2891 Q386.1406,595.2891 386.375,595.5547 Q386.6094,595.8047 386.6094,596.4141 L386.6094,597.8672 Q386.6094,598.4766 386.375,598.7422 Q386.1406,599.0078 385.7656,599.0078 Q385.4219,599.0078 385.2188,598.8047 Q385.0156,598.6172 384.9063,598.1016 Q384.8594,597.7422 384.6719,597.5547 Q384.3438,597.1797 383.7344,596.9609 Q383.125,596.7422 382.5,596.7422 Q381.7344,596.7422 381.0938,597.0703 Q380.4688,597.3984 379.9688,598.1484 Q379.4844,598.8984 379.4844,599.9297 L379.4844,601.0234 Q379.4844,602.2578 380.375,603.0859 Q381.2656,603.8984 382.8594,603.8984 Q383.7969,603.8984 384.4531,603.6484 Q384.8438,603.4922 385.2656,603.0547 Q385.5313,602.7891 385.6719,602.7109 Q385.8281,602.6328 386.0313,602.6328 Q386.3594,602.6328 386.6094,602.8984 Q386.875,603.1484 386.875,603.4922 Q386.875,603.8359 386.5313,604.2422 Q386.0313,604.8203 385.2344,605.1484 Q384.1563,605.6016 382.8594,605.6016 Q381.3438,605.6016 380.1406,604.9766 Q379.1563,604.4766 378.4688,603.4141 Q377.7813,602.3359 377.7813,601.0547 L377.7813,599.8984 Q377.7813,598.5703 378.3906,597.4297 Q379.0156,596.2734 380.1094,595.6641 Q381.2031,595.0391 382.4375,595.0391 Q383.1719,595.0391 383.8125,595.2109 Q384.4688,595.3672 385.0156,595.7266 Z " fill="#000000"/><text fill="#000000" font-family="sans-serif" font-size="12" font-style="italic" lengthAdjust="spacing" textLength="56" x="410.25" y="595.957">&#171;Entidad&#187;</text><text fill="#000000" font-family="sans-serif" font-size="14" lengthAdjust="spacing" textLength="77" x="399.75" y="613.127">Bibliotecario</text><line style="stroke:#181818;stroke-width:0.5;" x1="352.5" x2="494.5" y1="621.2031" y2="621.2031"/><ellipse cx="362.5" cy="635.5078" fill="none" rx="3" ry="3" style="stroke:#038048;stroke-width:1.0;"/><text fill="#000000" font-family="sans-serif" font-size="14" lengthAdjust="spacing" textLength="38" x="371.5" y="639.7363">Id: int,</text><ellipse cx="362.5" cy="653.1172" fill="none" rx="3" ry="3" style="stroke:#038048;stroke-width:1.0;"/><text fill="#000000" font-family="sans-serif" font-size="14" lengthAdjust="spacing" textLength="118" x="371.5" y="657.3457">Persona: Persona,</text><ellipse cx="362.5" cy="670.7266" fill="none" rx="3" ry="3" style="stroke:#038048;stroke-width:1.0;"/><text fill="#000000" font-family="sans-serif" font-size="14" lengthAdjust="spacing" textLength="90" x="371.5" y="674.9551">Carnet: string,</text><line style="stroke:#181818;stroke-width:0.5;" x1="352.5" x2="494.5" y1="682.0313" y2="682.0313"/></g><!--class Libro--><g id="elem_Libro"><rect codeLine="44" fill="#90EE90" height="217.1875" id="Libro" rx="2.5" ry="2.5" style="stroke:#181818;stroke-width:0.5;" width="185" x="1210" y="526"/><ellipse cx="1272.25" cy="547.3516" fill="#ADD1B2" rx="11" ry="11" style="stroke:#181818;stroke-width:1.0;"/><path d="M1275.0156,543.2266 Q1275.1719,543.0078 1275.3594,542.8984 Q1275.5469,542.7891 1275.7656,542.7891 Q1276.1406,542.7891 1276.375,543.0547 Q1276.6094,543.3047 1276.6094,543.9141 L1276.6094,545.3672 Q1276.6094,545.9766 1276.375,546.2422 Q1276.1406,546.5078 1275.7656,546.5078 Q1275.4219,546.5078 1275.2188,546.3047 Q1275.0156,546.1172 1274.9063,545.6016 Q1274.8594,545.2422 1274.6719,545.0547 Q1274.3438,544.6797 1273.7344,544.4609 Q1273.125,544.2422 1272.5,544.2422 Q1271.7344,544.2422 1271.0938,544.5703 Q1270.4688,544.8984 1269.9688,545.6484 Q1269.4844,546.3984 1269.4844,547.4297 L1269.4844,548.5234 Q1269.4844,549.7578 1270.375,550.5859 Q1271.2656,551.3984 1272.8594,551.3984 Q1273.7969,551.3984 1274.4531,551.1484 Q1274.8438,550.9922 1275.2656,550.5547 Q1275.5313,550.2891 1275.6719,550.2109 Q1275.8281,550.1328 1276.0313,550.1328 Q1276.3594,550.1328 1276.6094,550.3984 Q1276.875,550.6484 1276.875,550.9922 Q1276.875,551.3359 1276.5313,551.7422 Q1276.0313,552.3203 1275.2344,552.6484 Q1274.1563,553.1016 1272.8594,553.1016 Q1271.3438,553.1016 1270.1406,552.4766 Q1269.1563,551.9766 1268.4688,550.9141 Q1267.7813,549.8359 1267.7813,548.5547 L1267.7813,547.3984 Q1267.7813,546.0703 1268.3906,544.9297 Q1269.0156,543.7734 1270.1094,543.1641 Q1271.2031,542.5391 1272.4375,542.5391 Q1273.1719,542.5391 1273.8125,542.7109 Q1274.4688,542.8672 1275.0156,543.2266 Z " fill="#000000"/><text fill="#000000" font-family="sans-serif" font-size="12" font-style="italic" lengthAdjust="spacing" textLength="56" x="1290.75" y="543.457">&#171;Entidad&#187;</text><text fill="#000000" font-family="sans-serif" font-size="14" lengthAdjust="spacing" textLength="32" x="1302.75" y="560.627">Libro</text><line style="stroke:#181818;stroke-width:0.5;" x1="1211" x2="1394" y1="568.7031" y2="568.7031"/><ellipse cx="1221" cy="583.0078" fill="none" rx="3" ry="3" style="stroke:#038048;stroke-width:1.0;"/><text fill="#000000" font-family="sans-serif" font-size="14" lengthAdjust="spacing" textLength="38" x="1230" y="587.2363">Id: int,</text><ellipse cx="1221" cy="600.6172" fill="none" rx="3" ry="3" style="stroke:#038048;stroke-width:1.0;"/><text fill="#000000" font-family="sans-serif" font-size="14" lengthAdjust="spacing" textLength="82" x="1230" y="604.8457">Titulo: string,</text><ellipse cx="1221" cy="618.2266" fill="none" rx="3" ry="3" style="stroke:#038048;stroke-width:1.0;"/><text fill="#000000" font-family="sans-serif" font-size="14" lengthAdjust="spacing" textLength="93" x="1230" y="622.4551">Edicion: string,</text><ellipse cx="1221" cy="635.8359" fill="none" rx="3" ry="3" style="stroke:#038048;stroke-width:1.0;"/><text fill="#000000" font-family="sans-serif" font-size="14" lengthAdjust="spacing" textLength="98" x="1230" y="640.0645">Editorial: string,</text><ellipse cx="1221" cy="653.4453" fill="none" rx="3" ry="3" style="stroke:#038048;stroke-width:1.0;"/><text fill="#000000" font-family="sans-serif" font-size="14" lengthAdjust="spacing" textLength="80" x="1230" y="657.6738">Autor: Autor,</text><ellipse cx="1221" cy="671.0547" fill="none" rx="3" ry="3" style="stroke:#038048;stroke-width:1.0;"/><text fill="#000000" font-family="sans-serif" font-size="14" lengthAdjust="spacing" textLength="94" x="1230" y="675.2832">Idioma: Idioma,</text><ellipse cx="1221" cy="688.6641" fill="none" rx="3" ry="3" style="stroke:#038048;stroke-width:1.0;"/><text fill="#000000" font-family="sans-serif" font-size="14" lengthAdjust="spacing" textLength="78" x="1230" y="692.8926">Paginas: int,</text><ellipse cx="1221" cy="706.2734" fill="none" rx="3" ry="3" style="stroke:#038048;stroke-width:1.0;"/><text fill="#000000" font-family="sans-serif" font-size="14" lengthAdjust="spacing" textLength="118" x="1230" y="710.502">Url_Imagen: string,</text><ellipse cx="1221" cy="723.8828" fill="none" rx="3" ry="3" style="stroke:#038048;stroke-width:1.0;"/><text fill="#000000" font-family="sans-serif" font-size="14" lengthAdjust="spacing" textLength="159" x="1230" y="728.1113">Url_VersionDigital: string,</text><line style="stroke:#181818;stroke-width:0.5;" x1="1211" x2="1394" y1="735.1875" y2="735.1875"/></g><!--class Stock_Libros--><g id="elem_Stock_Libros"><rect codeLine="56" fill="#FFFFE0" height="129.1406" id="Stock_Libros" rx="2.5" ry="2.5" style="stroke:#181818;stroke-width:0.5;" width="153" x="1075" y="259"/><ellipse cx="1090.45" cy="280.3516" fill="#ADD1B2" rx="11" ry="11" style="stroke:#181818;stroke-width:1.0;"/><path d="M1093.2156,276.2266 Q1093.3719,276.0078 1093.5594,275.8984 Q1093.7469,275.7891 1093.9656,275.7891 Q1094.3406,275.7891 1094.575,276.0547 Q1094.8094,276.3047 1094.8094,276.9141 L1094.8094,278.3672 Q1094.8094,278.9766 1094.575,279.2422 Q1094.3406,279.5078 1093.9656,279.5078 Q1093.6219,279.5078 1093.4188,279.3047 Q1093.2156,279.1172 1093.1063,278.6016 Q1093.0594,278.2422 1092.8719,278.0547 Q1092.5438,277.6797 1091.9344,277.4609 Q1091.325,277.2422 1090.7,277.2422 Q1089.9344,277.2422 1089.2938,277.5703 Q1088.6688,277.8984 1088.1688,278.6484 Q1087.6844,279.3984 1087.6844,280.4297 L1087.6844,281.5234 Q1087.6844,282.7578 1088.575,283.5859 Q1089.4656,284.3984 1091.0594,284.3984 Q1091.9969,284.3984 1092.6531,284.1484 Q1093.0438,283.9922 1093.4656,283.5547 Q1093.7313,283.2891 1093.8719,283.2109 Q1094.0281,283.1328 1094.2313,283.1328 Q1094.5594,283.1328 1094.8094,283.3984 Q1095.075,283.6484 1095.075,283.9922 Q1095.075,284.3359 1094.7313,284.7422 Q1094.2313,285.3203 1093.4344,285.6484 Q1092.3563,286.1016 1091.0594,286.1016 Q1089.5438,286.1016 1088.3406,285.4766 Q1087.3563,284.9766 1086.6688,283.9141 Q1085.9813,282.8359 1085.9813,281.5547 L1085.9813,280.3984 Q1085.9813,279.0703 1086.5906,277.9297 Q1087.2156,276.7734 1088.3094,276.1641 Q1089.4031,275.5391 1090.6375,275.5391 Q1091.3719,275.5391 1092.0125,275.7109 Q1092.6688,275.8672 1093.2156,276.2266 Z " fill="#000000"/><text fill="#000000" font-family="sans-serif" font-size="12" font-style="italic" lengthAdjust="spacing" textLength="124" x="1102.55" y="276.457">&#171;Entidad_de_Control&#187;</text><text fill="#000000" font-family="sans-serif" font-size="14" lengthAdjust="spacing" textLength="82" x="1123.55" y="293.627">Stock_Libros</text><line style="stroke:#181818;stroke-width:0.5;" x1="1076" x2="1227" y1="301.7031" y2="301.7031"/><ellipse cx="1086" cy="316.0078" fill="none" rx="3" ry="3" style="stroke:#038048;stroke-width:1.0;"/><text fill="#000000" font-family="sans-serif" font-size="14" lengthAdjust="spacing" textLength="38" x="1095" y="320.2363">Id: int,</text><ellipse cx="1086" cy="333.6172" fill="none" rx="3" ry="3" style="stroke:#038048;stroke-width:1.0;"/><text fill="#000000" font-family="sans-serif" font-size="14" lengthAdjust="spacing" textLength="76" x="1095" y="337.8457">Libro: Libro,</text><ellipse cx="1086" cy="351.2266" fill="none" rx="3" ry="3" style="stroke:#038048;stroke-width:1.0;"/><text fill="#000000" font-family="sans-serif" font-size="14" lengthAdjust="spacing" textLength="122" x="1095" y="355.4551">Cant_Existente: int,</text><ellipse cx="1086" cy="368.8359" fill="none" rx="3" ry="3" style="stroke:#038048;stroke-width:1.0;"/><text fill="#000000" font-family="sans-serif" font-size="14" lengthAdjust="spacing" textLength="127" x="1095" y="373.0645">Cant_Disponible: int</text><line style="stroke:#181818;stroke-width:0.5;" x1="1076" x2="1227" y1="380.1406" y2="380.1406"/></g><!--class Autor--><g id="elem_Autor"><rect codeLine="63" fill="#ADD8E6" height="93.9219" id="Autor" rx="2.5" ry="2.5" style="stroke:#181818;stroke-width:0.5;" width="122" x="896.5" y="587.5"/><ellipse cx="918.25" cy="608.8516" fill="#ADD1B2" rx="11" ry="11" style="stroke:#181818;stroke-width:1.0;"/><path d="M921.0156,604.7266 Q921.1719,604.5078 921.3594,604.3984 Q921.5469,604.2891 921.7656,604.2891 Q922.1406,604.2891 922.375,604.5547 Q922.6094,604.8047 922.6094,605.4141 L922.6094,606.8672 Q922.6094,607.4766 922.375,607.7422 Q922.1406,608.0078 921.7656,608.0078 Q921.4219,608.0078 921.2188,607.8047 Q921.0156,607.6172 920.9063,607.1016 Q920.8594,606.7422 920.6719,606.5547 Q920.3438,606.1797 919.7344,605.9609 Q919.125,605.7422 918.5,605.7422 Q917.7344,605.7422 917.0938,606.0703 Q916.4688,606.3984 915.9688,607.1484 Q915.4844,607.8984 915.4844,608.9297 L915.4844,610.0234 Q915.4844,611.2578 916.375,612.0859 Q917.2656,612.8984 918.8594,612.8984 Q919.7969,612.8984 920.4531,612.6484 Q920.8438,612.4922 921.2656,612.0547 Q921.5313,611.7891 921.6719,611.7109 Q921.8281,611.6328 922.0313,611.6328 Q922.3594,611.6328 922.6094,611.8984 Q922.875,612.1484 922.875,612.4922 Q922.875,612.8359 922.5313,613.2422 Q922.0313,613.8203 921.2344,614.1484 Q920.1563,614.6016 918.8594,614.6016 Q917.3438,614.6016 916.1406,613.9766 Q915.1563,613.4766 914.4688,612.4141 Q913.7813,611.3359 913.7813,610.0547 L913.7813,608.8984 Q913.7813,607.5703 914.3906,606.4297 Q915.0156,605.2734 916.1094,604.6641 Q917.2031,604.0391 918.4375,604.0391 Q919.1719,604.0391 919.8125,604.2109 Q920.4688,604.3672 921.0156,604.7266 Z " fill="#000000"/><text fill="#000000" font-family="sans-serif" font-size="12" font-style="italic" lengthAdjust="spacing" textLength="79" x="931.75" y="604.957">&#171;Dato_Unico&#187;</text><text fill="#000000" font-family="sans-serif" font-size="14" lengthAdjust="spacing" textLength="34" x="954.25" y="622.127">Autor</text><line style="stroke:#181818;stroke-width:0.5;" x1="897.5" x2="1017.5" y1="630.2031" y2="630.2031"/><ellipse cx="907.5" cy="644.5078" fill="none" rx="3" ry="3" style="stroke:#038048;stroke-width:1.0;"/><text fill="#000000" font-family="sans-serif" font-size="14" lengthAdjust="spacing" textLength="38" x="916.5" y="648.7363">Id: int,</text><ellipse cx="907.5" cy="662.1172" fill="none" rx="3" ry="3" style="stroke:#038048;stroke-width:1.0;"/><text fill="#000000" font-family="sans-serif" font-size="14" lengthAdjust="spacing" textLength="96" x="916.5" y="666.3457">Nombre: string,</text><line style="stroke:#181818;stroke-width:0.5;" x1="897.5" x2="1017.5" y1="673.4219" y2="673.4219"/></g><!--class Idioma--><g id="elem_Idioma"><rect codeLine="68" fill="#ADD8E6" height="93.9219" id="Idioma" rx="2.5" ry="2.5" style="stroke:#181818;stroke-width:0.5;" width="114" x="1245.5" y="839"/><ellipse cx="1263.65" cy="860.3516" fill="#ADD1B2" rx="11" ry="11" style="stroke:#181818;stroke-width:1.0;"/><path d="M1266.4156,856.2266 Q1266.5719,856.0078 1266.7594,855.8984 Q1266.9469,855.7891 1267.1656,855.7891 Q1267.5406,855.7891 1267.775,856.0547 Q1268.0094,856.3047 1268.0094,856.9141 L1268.0094,858.3672 Q1268.0094,858.9766 1267.775,859.2422 Q1267.5406,859.5078 1267.1656,859.5078 Q1266.8219,859.5078 1266.6188,859.3047 Q1266.4156,859.1172 1266.3063,858.6016 Q1266.2594,858.2422 1266.0719,858.0547 Q1265.7438,857.6797 1265.1344,857.4609 Q1264.525,857.2422 1263.9,857.2422 Q1263.1344,857.2422 1262.4938,857.5703 Q1261.8688,857.8984 1261.3688,858.6484 Q1260.8844,859.3984 1260.8844,860.4297 L1260.8844,861.5234 Q1260.8844,862.7578 1261.775,863.5859 Q1262.6656,864.3984 1264.2594,864.3984 Q1265.1969,864.3984 1265.8531,864.1484 Q1266.2438,863.9922 1266.6656,863.5547 Q1266.9313,863.2891 1267.0719,863.2109 Q1267.2281,863.1328 1267.4313,863.1328 Q1267.7594,863.1328 1268.0094,863.3984 Q1268.275,863.6484 1268.275,863.9922 Q1268.275,864.3359 1267.9313,864.7422 Q1267.4313,865.3203 1266.6344,865.6484 Q1265.5563,866.1016 1264.2594,866.1016 Q1262.7438,866.1016 1261.5406,865.4766 Q1260.5563,864.9766 1259.8688,863.9141 Q1259.1813,862.8359 1259.1813,861.5547 L1259.1813,860.3984 Q1259.1813,859.0703 1259.7906,857.9297 Q1260.4156,856.7734 1261.5094,856.1641 Q1262.6031,855.5391 1263.8375,855.5391 Q1264.5719,855.5391 1265.2125,855.7109 Q1265.8688,855.8672 1266.4156,856.2266 Z " fill="#000000"/><text fill="#000000" font-family="sans-serif" font-size="12" font-style="italic" lengthAdjust="spacing" textLength="79" x="1276.35" y="856.457">&#171;Dato_Unico&#187;</text><text fill="#000000" font-family="sans-serif" font-size="14" lengthAdjust="spacing" textLength="41" x="1295.35" y="873.627">Idioma</text><line style="stroke:#181818;stroke-width:0.5;" x1="1246.5" x2="1358.5" y1="881.7031" y2="881.7031"/><ellipse cx="1256.5" cy="896.0078" fill="none" rx="3" ry="3" style="stroke:#038048;stroke-width:1.0;"/><text fill="#000000" font-family="sans-serif" font-size="14" lengthAdjust="spacing" textLength="38" x="1265.5" y="900.2363">Id: int,</text><ellipse cx="1256.5" cy="913.6172" fill="none" rx="3" ry="3" style="stroke:#038048;stroke-width:1.0;"/><text fill="#000000" font-family="sans-serif" font-size="14" lengthAdjust="spacing" textLength="88" x="1265.5" y="917.8457">Idioma: string,</text><line style="stroke:#181818;stroke-width:0.5;" x1="1246.5" x2="1358.5" y1="924.9219" y2="924.9219"/></g><!--class Genero--><g id="elem_Genero"><rect codeLine="73" fill="#ADD8E6" height="93.9219" id="Genero" rx="2.5" ry="2.5" style="stroke:#181818;stroke-width:0.5;" width="121" x="1054" y="587.5"/><ellipse cx="1075.3" cy="608.8516" fill="#ADD1B2" rx="11" ry="11" style="stroke:#181818;stroke-width:1.0;"/><path d="M1078.0656,604.7266 Q1078.2219,604.5078 1078.4094,604.3984 Q1078.5969,604.2891 1078.8156,604.2891 Q1079.1906,604.2891 1079.425,604.5547 Q1079.6594,604.8047 1079.6594,605.4141 L1079.6594,606.8672 Q1079.6594,607.4766 1079.425,607.7422 Q1079.1906,608.0078 1078.8156,608.0078 Q1078.4719,608.0078 1078.2688,607.8047 Q1078.0656,607.6172 1077.9563,607.1016 Q1077.9094,606.7422 1077.7219,606.5547 Q1077.3938,606.1797 1076.7844,605.9609 Q1076.175,605.7422 1075.55,605.7422 Q1074.7844,605.7422 1074.1438,606.0703 Q1073.5188,606.3984 1073.0188,607.1484 Q1072.5344,607.8984 1072.5344,608.9297 L1072.5344,610.0234 Q1072.5344,611.2578 1073.425,612.0859 Q1074.3156,612.8984 1075.9094,612.8984 Q1076.8469,612.8984 1077.5031,612.6484 Q1077.8938,612.4922 1078.3156,612.0547 Q1078.5813,611.7891 1078.7219,611.7109 Q1078.8781,611.6328 1079.0813,611.6328 Q1079.4094,611.6328 1079.6594,611.8984 Q1079.925,612.1484 1079.925,612.4922 Q1079.925,612.8359 1079.5813,613.2422 Q1079.0813,613.8203 1078.2844,614.1484 Q1077.2063,614.6016 1075.9094,614.6016 Q1074.3938,614.6016 1073.1906,613.9766 Q1072.2063,613.4766 1071.5188,612.4141 Q1070.8313,611.3359 1070.8313,610.0547 L1070.8313,608.8984 Q1070.8313,607.5703 1071.4406,606.4297 Q1072.0656,605.2734 1073.1594,604.6641 Q1074.2531,604.0391 1075.4875,604.0391 Q1076.2219,604.0391 1076.8625,604.2109 Q1077.5188,604.3672 1078.0656,604.7266 Z " fill="#000000"/><text fill="#000000" font-family="sans-serif" font-size="12" font-style="italic" lengthAdjust="spacing" textLength="79" x="1088.7" y="604.957">&#171;Dato_Unico&#187;</text><text fill="#000000" font-family="sans-serif" font-size="14" lengthAdjust="spacing" textLength="48" x="1104.2" y="622.127">Genero</text><line style="stroke:#181818;stroke-width:0.5;" x1="1055" x2="1174" y1="630.2031" y2="630.2031"/><ellipse cx="1065" cy="644.5078" fill="none" rx="3" ry="3" style="stroke:#038048;stroke-width:1.0;"/><text fill="#000000" font-family="sans-serif" font-size="14" lengthAdjust="spacing" textLength="38" x="1074" y="648.7363">Id: int,</text><ellipse cx="1065" cy="662.1172" fill="none" rx="3" ry="3" style="stroke:#038048;stroke-width:1.0;"/><text fill="#000000" font-family="sans-serif" font-size="14" lengthAdjust="spacing" textLength="95" x="1074" y="666.3457">Genero: string,</text><line style="stroke:#181818;stroke-width:0.5;" x1="1055" x2="1174" y1="673.4219" y2="673.4219"/></g><!--class Prestamo--><g id="elem_Prestamo"><rect codeLine="78" fill="#90EE90" height="217.1875" id="Prestamo" rx="2.5" ry="2.5" style="stroke:#181818;stroke-width:0.5;" width="208" x="681.5" y="215"/><ellipse cx="751.25" cy="236.3516" fill="#ADD1B2" rx="11" ry="11" style="stroke:#181818;stroke-width:1.0;"/><path d="M754.0156,232.2266 Q754.1719,232.0078 754.3594,231.8984 Q754.5469,231.7891 754.7656,231.7891 Q755.1406,231.7891 755.375,232.0547 Q755.6094,232.3047 755.6094,232.9141 L755.6094,234.3672 Q755.6094,234.9766 755.375,235.2422 Q755.1406,235.5078 754.7656,235.5078 Q754.4219,235.5078 754.2188,235.3047 Q754.0156,235.1172 753.9063,234.6016 Q753.8594,234.2422 753.6719,234.0547 Q753.3438,233.6797 752.7344,233.4609 Q752.125,233.2422 751.5,233.2422 Q750.7344,233.2422 750.0938,233.5703 Q749.4688,233.8984 748.9688,234.6484 Q748.4844,235.3984 748.4844,236.4297 L748.4844,237.5234 Q748.4844,238.7578 749.375,239.5859 Q750.2656,240.3984 751.8594,240.3984 Q752.7969,240.3984 753.4531,240.1484 Q753.8438,239.9922 754.2656,239.5547 Q754.5313,239.2891 754.6719,239.2109 Q754.8281,239.1328 755.0313,239.1328 Q755.3594,239.1328 755.6094,239.3984 Q755.875,239.6484 755.875,239.9922 Q755.875,240.3359 755.5313,240.7422 Q755.0313,241.3203 754.2344,241.6484 Q753.1563,242.1016 751.8594,242.1016 Q750.3438,242.1016 749.1406,241.4766 Q748.1563,240.9766 747.4688,239.9141 Q746.7813,238.8359 746.7813,237.5547 L746.7813,236.3984 Q746.7813,235.0703 747.3906,233.9297 Q748.0156,232.7734 749.1094,232.1641 Q750.2031,231.5391 751.4375,231.5391 Q752.1719,231.5391 752.8125,231.7109 Q753.4688,231.8672 754.0156,232.2266 Z " fill="#000000"/><text fill="#000000" font-family="sans-serif" font-size="12" font-style="italic" lengthAdjust="spacing" textLength="56" x="773.75" y="232.457">&#171;Entidad&#187;</text><text fill="#000000" font-family="sans-serif" font-size="14" lengthAdjust="spacing" textLength="60" x="771.75" y="249.627">Prestamo</text><line style="stroke:#181818;stroke-width:0.5;" x1="682.5" x2="888.5" y1="257.7031" y2="257.7031"/><ellipse cx="692.5" cy="272.0078" fill="none" rx="3" ry="3" style="stroke:#038048;stroke-width:1.0;"/><text fill="#000000" font-family="sans-serif" font-size="14" lengthAdjust="spacing" textLength="38" x="701.5" y="276.2363">Id: int,</text><ellipse cx="692.5" cy="289.6172" fill="none" rx="3" ry="3" style="stroke:#038048;stroke-width:1.0;"/><text fill="#000000" font-family="sans-serif" font-size="14" lengthAdjust="spacing" textLength="167" x="701.5" y="293.8457">Estado: Estado_prestamo,</text><ellipse cx="692.5" cy="307.2266" fill="none" rx="3" ry="3" style="stroke:#038048;stroke-width:1.0;"/><text fill="#000000" font-family="sans-serif" font-size="14" lengthAdjust="spacing" textLength="135" x="701.5" y="311.4551">Tipo: Tipo_prestamo,</text><ellipse cx="692.5" cy="324.8359" fill="none" rx="3" ry="3" style="stroke:#038048;stroke-width:1.0;"/><text fill="#000000" font-family="sans-serif" font-size="14" lengthAdjust="spacing" textLength="146" x="701.5" y="329.0645">Estudiante: Estudiante,</text><ellipse cx="692.5" cy="342.4453" fill="none" rx="3" ry="3" style="stroke:#038048;stroke-width:1.0;"/><text fill="#000000" font-family="sans-serif" font-size="14" lengthAdjust="spacing" textLength="76" x="701.5" y="346.6738">Libro: Libro,</text><ellipse cx="692.5" cy="360.0547" fill="none" rx="3" ry="3" style="stroke:#038048;stroke-width:1.0;"/><text fill="#000000" font-family="sans-serif" font-size="14" lengthAdjust="spacing" textLength="84" x="701.5" y="364.2832">Cantidad: int,</text><ellipse cx="692.5" cy="377.6641" fill="none" rx="3" ry="3" style="stroke:#038048;stroke-width:1.0;"/><text fill="#000000" font-family="sans-serif" font-size="14" lengthAdjust="spacing" textLength="169" x="701.5" y="381.8926">Fecha_Solicitud: Datetime,</text><ellipse cx="692.5" cy="395.2734" fill="none" rx="3" ry="3" style="stroke:#038048;stroke-width:1.0;"/><text fill="#000000" font-family="sans-serif" font-size="14" lengthAdjust="spacing" textLength="154" x="701.5" y="399.502">Fecha_Retiro: Datetime,</text><ellipse cx="692.5" cy="412.8828" fill="none" rx="3" ry="3" style="stroke:#038048;stroke-width:1.0;"/><text fill="#000000" font-family="sans-serif" font-size="14" lengthAdjust="spacing" textLength="182" x="701.5" y="417.1113">Fecha_Devolucion: Datetime</text><line style="stroke:#181818;stroke-width:0.5;" x1="682.5" x2="888.5" y1="424.1875" y2="424.1875"/></g><!--class Multa--><g id="elem_Multa"><rect codeLine="90" fill="#90EE90" height="146.75" id="Multa" rx="2.5" ry="2.5" style="stroke:#181818;stroke-width:0.5;" width="168" x="969.5" y="7"/><ellipse cx="1023.25" cy="28.3516" fill="#ADD1B2" rx="11" ry="11" style="stroke:#181818;stroke-width:1.0;"/><path d="M1026.0156,24.2266 Q1026.1719,24.0078 1026.3594,23.8984 Q1026.5469,23.7891 1026.7656,23.7891 Q1027.1406,23.7891 1027.375,24.0547 Q1027.6094,24.3047 1027.6094,24.9141 L1027.6094,26.3672 Q1027.6094,26.9766 1027.375,27.2422 Q1027.1406,27.5078 1026.7656,27.5078 Q1026.4219,27.5078 1026.2188,27.3047 Q1026.0156,27.1172 1025.9063,26.6016 Q1025.8594,26.2422 1025.6719,26.0547 Q1025.3438,25.6797 1024.7344,25.4609 Q1024.125,25.2422 1023.5,25.2422 Q1022.7344,25.2422 1022.0938,25.5703 Q1021.4688,25.8984 1020.9688,26.6484 Q1020.4844,27.3984 1020.4844,28.4297 L1020.4844,29.5234 Q1020.4844,30.7578 1021.375,31.5859 Q1022.2656,32.3984 1023.8594,32.3984 Q1024.7969,32.3984 1025.4531,32.1484 Q1025.8438,31.9922 1026.2656,31.5547 Q1026.5313,31.2891 1026.6719,31.2109 Q1026.8281,31.1328 1027.0313,31.1328 Q1027.3594,31.1328 1027.6094,31.3984 Q1027.875,31.6484 1027.875,31.9922 Q1027.875,32.3359 1027.5313,32.7422 Q1027.0313,33.3203 1026.2344,33.6484 Q1025.1563,34.1016 1023.8594,34.1016 Q1022.3438,34.1016 1021.1406,33.4766 Q1020.1563,32.9766 1019.4688,31.9141 Q1018.7813,30.8359 1018.7813,29.5547 L1018.7813,28.3984 Q1018.7813,27.0703 1019.3906,25.9297 Q1020.0156,24.7734 1021.1094,24.1641 Q1022.2031,23.5391 1023.4375,23.5391 Q1024.1719,23.5391 1024.8125,23.7109 Q1025.4688,23.8672 1026.0156,24.2266 Z " fill="#000000"/><text fill="#000000" font-family="sans-serif" font-size="12" font-style="italic" lengthAdjust="spacing" textLength="56" x="1041.75" y="24.457">&#171;Entidad&#187;</text><text fill="#000000" font-family="sans-serif" font-size="14" lengthAdjust="spacing" textLength="34" x="1052.75" y="41.627">Multa</text><line style="stroke:#181818;stroke-width:0.5;" x1="970.5" x2="1136.5" y1="49.7031" y2="49.7031"/><ellipse cx="980.5" cy="64.0078" fill="none" rx="3" ry="3" style="stroke:#038048;stroke-width:1.0;"/><text fill="#000000" font-family="sans-serif" font-size="14" lengthAdjust="spacing" textLength="38" x="989.5" y="68.2363">Id: int,</text><ellipse cx="980.5" cy="81.6172" fill="none" rx="3" ry="3" style="stroke:#038048;stroke-width:1.0;"/><text fill="#000000" font-family="sans-serif" font-size="14" lengthAdjust="spacing" textLength="132" x="989.5" y="85.8457">Prestamo: Prestamo,</text><ellipse cx="980.5" cy="99.2266" fill="none" rx="3" ry="3" style="stroke:#038048;stroke-width:1.0;"/><text fill="#000000" font-family="sans-serif" font-size="14" lengthAdjust="spacing" textLength="121" x="989.5" y="103.4551">Descripcion: string,</text><ellipse cx="980.5" cy="116.8359" fill="none" rx="3" ry="3" style="stroke:#038048;stroke-width:1.0;"/><text fill="#000000" font-family="sans-serif" font-size="14" lengthAdjust="spacing" textLength="66" x="989.5" y="121.0645">Monto: int,</text><ellipse cx="980.5" cy="134.4453" fill="none" rx="3" ry="3" style="stroke:#038048;stroke-width:1.0;"/><text fill="#000000" font-family="sans-serif" font-size="14" lengthAdjust="spacing" textLength="142" x="989.5" y="138.6738">Estado: Estado_multa,</text><line style="stroke:#181818;stroke-width:0.5;" x1="970.5" x2="1136.5" y1="145.75" y2="145.75"/></g><!--class LibroGenero--><g id="elem_LibroGenero"><rect codeLine="98" fill="#F08080" height="93.9219" id="LibroGenero" rx="2.5" ry="2.5" style="stroke:#181818;stroke-width:0.5;" width="116" x="1075.5" y="839"/><ellipse cx="1092.3" cy="860.3516" fill="#ADD1B2" rx="11" ry="11" style="stroke:#181818;stroke-width:1.0;"/><path d="M1095.0656,856.2266 Q1095.2219,856.0078 1095.4094,855.8984 Q1095.5969,855.7891 1095.8156,855.7891 Q1096.1906,855.7891 1096.425,856.0547 Q1096.6594,856.3047 1096.6594,856.9141 L1096.6594,858.3672 Q1096.6594,858.9766 1096.425,859.2422 Q1096.1906,859.5078 1095.8156,859.5078 Q1095.4719,859.5078 1095.2688,859.3047 Q1095.0656,859.1172 1094.9563,858.6016 Q1094.9094,858.2422 1094.7219,858.0547 Q1094.3938,857.6797 1093.7844,857.4609 Q1093.175,857.2422 1092.55,857.2422 Q1091.7844,857.2422 1091.1438,857.5703 Q1090.5188,857.8984 1090.0188,858.6484 Q1089.5344,859.3984 1089.5344,860.4297 L1089.5344,861.5234 Q1089.5344,862.7578 1090.425,863.5859 Q1091.3156,864.3984 1092.9094,864.3984 Q1093.8469,864.3984 1094.5031,864.1484 Q1094.8938,863.9922 1095.3156,863.5547 Q1095.5813,863.2891 1095.7219,863.2109 Q1095.8781,863.1328 1096.0813,863.1328 Q1096.4094,863.1328 1096.6594,863.3984 Q1096.925,863.6484 1096.925,863.9922 Q1096.925,864.3359 1096.5813,864.7422 Q1096.0813,865.3203 1095.2844,865.6484 Q1094.2063,866.1016 1092.9094,866.1016 Q1091.3938,866.1016 1090.1906,865.4766 Q1089.2063,864.9766 1088.5188,863.9141 Q1087.8313,862.8359 1087.8313,861.5547 L1087.8313,860.3984 Q1087.8313,859.0703 1088.4406,857.9297 Q1089.0656,856.7734 1090.1594,856.1641 Q1091.2531,855.5391 1092.4875,855.5391 Q1093.2219,855.5391 1093.8625,855.7109 Q1094.5188,855.8672 1095.0656,856.2266 Z " fill="#000000"/><text fill="#000000" font-family="sans-serif" font-size="12" font-style="italic" lengthAdjust="spacing" textLength="63" x="1115.2" y="856.457">&#171;Relacion&#187;</text><text fill="#000000" font-family="sans-serif" font-size="14" lengthAdjust="spacing" textLength="80" x="1106.7" y="873.627">LibroGenero</text><line style="stroke:#181818;stroke-width:0.5;" x1="1076.5" x2="1190.5" y1="881.7031" y2="881.7031"/><text fill="#000000" font-family="sans-serif" font-size="14" lengthAdjust="spacing" textLength="72" x="1081.5" y="900.2363">Libro: Libro</text><text fill="#000000" font-family="sans-serif" font-size="14" lengthAdjust="spacing" textLength="104" x="1081.5" y="917.8457">Genero: Genero</text><line style="stroke:#181818;stroke-width:0.5;" x1="1076.5" x2="1190.5" y1="924.9219" y2="924.9219"/></g><!--class LibroAutor--><g id="elem_LibroAutor"><rect codeLine="103" fill="#F08080" height="93.9219" id="LibroAutor" rx="2.5" ry="2.5" style="stroke:#181818;stroke-width:0.5;" width="98" x="925.5" y="839"/><ellipse cx="940.5" cy="860.3516" fill="#ADD1B2" rx="11" ry="11" style="stroke:#181818;stroke-width:1.0;"/><path d="M943.2656,856.2266 Q943.4219,856.0078 943.6094,855.8984 Q943.7969,855.7891 944.0156,855.7891 Q944.3906,855.7891 944.625,856.0547 Q944.8594,856.3047 944.8594,856.9141 L944.8594,858.3672 Q944.8594,858.9766 944.625,859.2422 Q944.3906,859.5078 944.0156,859.5078 Q943.6719,859.5078 943.4688,859.3047 Q943.2656,859.1172 943.1563,858.6016 Q943.1094,858.2422 942.9219,858.0547 Q942.5938,857.6797 941.9844,857.4609 Q941.375,857.2422 940.75,857.2422 Q939.9844,857.2422 939.3438,857.5703 Q938.7188,857.8984 938.2188,858.6484 Q937.7344,859.3984 937.7344,860.4297 L937.7344,861.5234 Q937.7344,862.7578 938.625,863.5859 Q939.5156,864.3984 941.1094,864.3984 Q942.0469,864.3984 942.7031,864.1484 Q943.0938,863.9922 943.5156,863.5547 Q943.7813,863.2891 943.9219,863.2109 Q944.0781,863.1328 944.2813,863.1328 Q944.6094,863.1328 944.8594,863.3984 Q945.125,863.6484 945.125,863.9922 Q945.125,864.3359 944.7813,864.7422 Q944.2813,865.3203 943.4844,865.6484 Q942.4063,866.1016 941.1094,866.1016 Q939.5938,866.1016 938.3906,865.4766 Q937.4063,864.9766 936.7188,863.9141 Q936.0313,862.8359 936.0313,861.5547 L936.0313,860.3984 Q936.0313,859.0703 936.6406,857.9297 Q937.2656,856.7734 938.3594,856.1641 Q939.4531,855.5391 940.6875,855.5391 Q941.4219,855.5391 942.0625,855.7109 Q942.7188,855.8672 943.2656,856.2266 Z " fill="#000000"/><text fill="#000000" font-family="sans-serif" font-size="12" font-style="italic" lengthAdjust="spacing" textLength="63" x="956" y="856.457">&#171;Relacion&#187;</text><text fill="#000000" font-family="sans-serif" font-size="14" lengthAdjust="spacing" textLength="66" x="954.5" y="873.627">LibroAutor</text><line style="stroke:#181818;stroke-width:0.5;" x1="926.5" x2="1022.5" y1="881.7031" y2="881.7031"/><text fill="#000000" font-family="sans-serif" font-size="14" lengthAdjust="spacing" textLength="76" x="931.5" y="900.2363">Libro: Libro,</text><text fill="#000000" font-family="sans-serif" font-size="14" lengthAdjust="spacing" textLength="76" x="931.5" y="917.8457">Autor: Autor</text><line style="stroke:#181818;stroke-width:0.5;" x1="926.5" x2="1022.5" y1="924.9219" y2="924.9219"/></g><!--class Rol--><g id="elem_Rol"><rect codeLine="107" fill="#F1F1F1" height="100.8281" id="Rol" rx="2.5" ry="2.5" style="stroke:#181818;stroke-width:0.5;" width="93" x="34" y="835.5"/><ellipse cx="67" cy="851.5" fill="#EB937F" rx="11" ry="11" style="stroke:#181818;stroke-width:1.0;"/><path d="M65.8594,852.2969 L65.8594,854.7969 L70.1875,854.7969 L70.1875,853.875 Q70.1875,853.2656 70.4219,853 Q70.6719,852.7344 71.0469,852.7344 Q71.4219,852.7344 71.6563,853 Q71.8906,853.2656 71.8906,853.875 L71.8906,856.5 L63.8906,856.5 Q63.2656,856.5 63,856.2656 Q62.75,856.0313 62.75,855.6406 Q62.75,855.2656 63.0156,855.0313 Q63.2813,854.7969 63.8906,854.7969 L64.1563,854.7969 L64.1563,848.1406 L63.8906,848.1406 Q63.2656,848.1406 63,847.9063 Q62.75,847.6719 62.75,847.2813 Q62.75,846.9063 63,846.6719 Q63.2656,846.4375 63.8906,846.4375 L71.5156,846.4375 L71.5156,849.0313 Q71.5156,849.6406 71.2813,849.9063 Q71.0625,850.1563 70.6719,850.1563 Q70.2969,850.1563 70.0625,849.9063 Q69.8281,849.6406 69.8281,849.0313 L69.8281,848.1406 L65.8594,848.1406 L65.8594,850.5938 L67.3438,850.5938 Q67.3438,849.9375 67.4688,849.75 Q67.7344,849.3438 68.2031,849.3438 Q68.5781,849.3438 68.8125,849.6094 Q69.0469,849.8594 69.0469,850.4688 L69.0469,852.4375 Q69.0469,852.9844 68.9219,853.1719 Q68.6563,853.5625 68.2031,853.5625 Q67.7344,853.5625 67.4688,853.1563 Q67.3438,852.9688 67.3438,852.2969 L65.8594,852.2969 Z " fill="#000000"/><text fill="#000000" font-family="sans-serif" font-size="14" lengthAdjust="spacing" textLength="21" x="85" y="857.2285">Rol</text><line style="stroke:#181818;stroke-width:0.5;" x1="35" x2="126" y1="867.5" y2="867.5"/><text fill="#000000" font-family="sans-serif" font-size="14" lengthAdjust="spacing" textLength="43" x="40" y="886.0332">Admin,</text><text fill="#000000" font-family="sans-serif" font-size="14" lengthAdjust="spacing" textLength="81" x="40" y="903.6426">Bibliotecario,</text><text fill="#000000" font-family="sans-serif" font-size="14" lengthAdjust="spacing" textLength="67" x="40" y="921.252">Estudiante</text><line style="stroke:#181818;stroke-width:0.5;" x1="35" x2="126" y1="928.3281" y2="928.3281"/></g><!--class Estado_multa--><g id="elem_Estado_multa"><rect codeLine="113" fill="#F1F1F1" height="100.8281" id="Estado_multa" rx="2.5" ry="2.5" style="stroke:#181818;stroke-width:0.5;" width="118" x="1263.5" y="273"/><ellipse cx="1278.5" cy="289" fill="#EB937F" rx="11" ry="11" style="stroke:#181818;stroke-width:1.0;"/><path d="M1277.3594,289.7969 L1277.3594,292.2969 L1281.6875,292.2969 L1281.6875,291.375 Q1281.6875,290.7656 1281.9219,290.5 Q1282.1719,290.2344 1282.5469,290.2344 Q1282.9219,290.2344 1283.1563,290.5 Q1283.3906,290.7656 1283.3906,291.375 L1283.3906,294 L1275.3906,294 Q1274.7656,294 1274.5,293.7656 Q1274.25,293.5313 1274.25,293.1406 Q1274.25,292.7656 1274.5156,292.5313 Q1274.7813,292.2969 1275.3906,292.2969 L1275.6563,292.2969 L1275.6563,285.6406 L1275.3906,285.6406 Q1274.7656,285.6406 1274.5,285.4063 Q1274.25,285.1719 1274.25,284.7813 Q1274.25,284.4063 1274.5,284.1719 Q1274.7656,283.9375 1275.3906,283.9375 L1283.0156,283.9375 L1283.0156,286.5313 Q1283.0156,287.1406 1282.7813,287.4063 Q1282.5625,287.6563 1282.1719,287.6563 Q1281.7969,287.6563 1281.5625,287.4063 Q1281.3281,287.1406 1281.3281,286.5313 L1281.3281,285.6406 L1277.3594,285.6406 L1277.3594,288.0938 L1278.8438,288.0938 Q1278.8438,287.4375 1278.9688,287.25 Q1279.2344,286.8438 1279.7031,286.8438 Q1280.0781,286.8438 1280.3125,287.1094 Q1280.5469,287.3594 1280.5469,287.9688 L1280.5469,289.9375 Q1280.5469,290.4844 1280.4219,290.6719 Q1280.1563,291.0625 1279.7031,291.0625 Q1279.2344,291.0625 1278.9688,290.6563 Q1278.8438,290.4688 1278.8438,289.7969 L1277.3594,289.7969 Z " fill="#000000"/><text fill="#000000" font-family="sans-serif" font-size="14" lengthAdjust="spacing" textLength="86" x="1292.5" y="294.7285">Estado_multa</text><line style="stroke:#181818;stroke-width:0.5;" x1="1264.5" x2="1380.5" y1="305" y2="305"/><text fill="#000000" font-family="sans-serif" font-size="14" lengthAdjust="spacing" textLength="68" x="1269.5" y="323.5332">Pendiente,</text><text fill="#000000" font-family="sans-serif" font-size="14" lengthAdjust="spacing" textLength="53" x="1269.5" y="341.1426">Pagada,</text><text fill="#000000" font-family="sans-serif" font-size="14" lengthAdjust="spacing" textLength="68" x="1269.5" y="358.752">Revocada,</text><line style="stroke:#181818;stroke-width:0.5;" x1="1264.5" x2="1380.5" y1="365.8281" y2="365.8281"/></g><!--class Estado_prestamo--><g id="elem_Estado_prestamo"><rect codeLine="119" fill="#F1F1F1" height="100.8281" id="Estado_prestamo" rx="2.5" ry="2.5" style="stroke:#181818;stroke-width:0.5;" width="143" x="531" y="584"/><ellipse cx="546" cy="600" fill="#EB937F" rx="11" ry="11" style="stroke:#181818;stroke-width:1.0;"/><path d="M544.8594,600.7969 L544.8594,603.2969 L549.1875,603.2969 L549.1875,602.375 Q549.1875,601.7656 549.4219,601.5 Q549.6719,601.2344 550.0469,601.2344 Q550.4219,601.2344 550.6563,601.5 Q550.8906,601.7656 550.8906,602.375 L550.8906,605 L542.8906,605 Q542.2656,605 542,604.7656 Q541.75,604.5313 541.75,604.1406 Q541.75,603.7656 542.0156,603.5313 Q542.2813,603.2969 542.8906,603.2969 L543.1563,603.2969 L543.1563,596.6406 L542.8906,596.6406 Q542.2656,596.6406 542,596.4063 Q541.75,596.1719 541.75,595.7813 Q541.75,595.4063 542,595.1719 Q542.2656,594.9375 542.8906,594.9375 L550.5156,594.9375 L550.5156,597.5313 Q550.5156,598.1406 550.2813,598.4063 Q550.0625,598.6563 549.6719,598.6563 Q549.2969,598.6563 549.0625,598.4063 Q548.8281,598.1406 548.8281,597.5313 L548.8281,596.6406 L544.8594,596.6406 L544.8594,599.0938 L546.3438,599.0938 Q546.3438,598.4375 546.4688,598.25 Q546.7344,597.8438 547.2031,597.8438 Q547.5781,597.8438 547.8125,598.1094 Q548.0469,598.3594 548.0469,598.9688 L548.0469,600.9375 Q548.0469,601.4844 547.9219,601.6719 Q547.6563,602.0625 547.2031,602.0625 Q546.7344,602.0625 546.4688,601.6563 Q546.3438,601.4688 546.3438,600.7969 L544.8594,600.7969 Z " fill="#000000"/><text fill="#000000" font-family="sans-serif" font-size="14" lengthAdjust="spacing" textLength="111" x="560" y="605.7285">Estado_prestamo</text><line style="stroke:#181818;stroke-width:0.5;" x1="532" x2="673" y1="616" y2="616"/><text fill="#000000" font-family="sans-serif" font-size="14" lengthAdjust="spacing" textLength="68" x="537" y="634.5332">Pendiente,</text><text fill="#000000" font-family="sans-serif" font-size="14" lengthAdjust="spacing" textLength="66" x="537" y="652.1426">Aprobado,</text><text fill="#000000" font-family="sans-serif" font-size="14" lengthAdjust="spacing" textLength="71" x="537" y="669.752">Rechazado</text><line style="stroke:#181818;stroke-width:0.5;" x1="532" x2="673" y1="676.8281" y2="676.8281"/></g><!--class Tipo_prestamo--><g id="elem_Tipo_prestamo"><rect codeLine="125" fill="#F1F1F1" height="83.2188" id="Tipo_prestamo" rx="2.5" ry="2.5" style="stroke:#181818;stroke-width:0.5;" width="127" x="189" y="593"/><ellipse cx="204" cy="609" fill="#EB937F" rx="11" ry="11" style="stroke:#181818;stroke-width:1.0;"/><path d="M202.8594,609.7969 L202.8594,612.2969 L207.1875,612.2969 L207.1875,611.375 Q207.1875,610.7656 207.4219,610.5 Q207.6719,610.2344 208.0469,610.2344 Q208.4219,610.2344 208.6563,610.5 Q208.8906,610.7656 208.8906,611.375 L208.8906,614 L200.8906,614 Q200.2656,614 200,613.7656 Q199.75,613.5313 199.75,613.1406 Q199.75,612.7656 200.0156,612.5313 Q200.2813,612.2969 200.8906,612.2969 L201.1563,612.2969 L201.1563,605.6406 L200.8906,605.6406 Q200.2656,605.6406 200,605.4063 Q199.75,605.1719 199.75,604.7813 Q199.75,604.4063 200,604.1719 Q200.2656,603.9375 200.8906,603.9375 L208.5156,603.9375 L208.5156,606.5313 Q208.5156,607.1406 208.2813,607.4063 Q208.0625,607.6563 207.6719,607.6563 Q207.2969,607.6563 207.0625,607.4063 Q206.8281,607.1406 206.8281,606.5313 L206.8281,605.6406 L202.8594,605.6406 L202.8594,608.0938 L204.3438,608.0938 Q204.3438,607.4375 204.4688,607.25 Q204.7344,606.8438 205.2031,606.8438 Q205.5781,606.8438 205.8125,607.1094 Q206.0469,607.3594 206.0469,607.9688 L206.0469,609.9375 Q206.0469,610.4844 205.9219,610.6719 Q205.6563,611.0625 205.2031,611.0625 Q204.7344,611.0625 204.4688,610.6563 Q204.3438,610.4688 204.3438,609.7969 L202.8594,609.7969 Z " fill="#000000"/><text fill="#000000" font-family="sans-serif" font-size="14" lengthAdjust="spacing" textLength="95" x="218" y="614.7285">Tipo_prestamo</text><line style="stroke:#181818;stroke-width:0.5;" x1="190" x2="315" y1="625" y2="625"/><text fill="#000000" font-family="sans-serif" font-size="14" lengthAdjust="spacing" textLength="102" x="195" y="643.5332">Solicitud_digital,</text><text fill="#000000" font-family="sans-serif" font-size="14" lengthAdjust="spacing" textLength="78" x="195" y="661.1426">Retiro_fisico</text><line style="stroke:#181818;stroke-width:0.5;" x1="190" x2="315" y1="668.2188" y2="668.2188"/></g><!--reverse link Usuario to Persona--><g id="link_Usuario_Persona"><path codeLine="130" d="M143.9368,717.1892 C155.0068,729.5192 159.06,732.72 171.5,743 C228.79,790.35 304.06,830.41 357.38,855.79 " fill="none" id="Usuario-backto-Persona" style="stroke:#181818;stroke-width:1.0;"/><polygon fill="#181818" points="135.92,708.26,136.952,715.3969,143.9368,717.1892,142.9048,710.0524,135.92,708.26" style="stroke:#181818;stroke-width:1.0;"/><text fill="#000000" font-family="sans-serif" font-size="13" lengthAdjust="spacing" textLength="7" x="133.7064" y="729.3201">1</text><text fill="#000000" font-family="sans-serif" font-size="13" lengthAdjust="spacing" textLength="7" x="342.3302" y="848.8666">1</text></g><!--reverse link Usuario to Rol--><g id="link_Usuario_Rol"><path codeLine="131" d="M80.5,720 C80.5,760.86 80.5,798.85 80.5,835.27 " fill="none" id="Usuario-backto-Rol" style="stroke:#181818;stroke-width:1.0;"/><polygon fill="#181818" points="80.5,708,76.5,714,80.5,720,84.5,714,80.5,708" style="stroke:#181818;stroke-width:1.0;"/><text fill="#000000" font-family="sans-serif" font-size="13" lengthAdjust="spacing" textLength="7" x="73.1664" y="729.2918">1</text><text fill="#000000" font-family="sans-serif" font-size="13" lengthAdjust="spacing" textLength="20" x="59.0938" y="824.543">1..*</text></g><!--reverse link Estudiante to Persona--><g id="link_Estudiante_Persona"><path codeLine="133" d="M736.3076,699.7281 C721.0476,717.7981 710.55,727.92 691.5,743 C628.96,792.52 546.58,833.16 489.75,858.09 " fill="none" id="Estudiante-backto-Persona" style="stroke:#181818;stroke-width:1.0;"/><polygon fill="#181818" points="744.05,690.56,737.1227,692.5633,736.3076,699.7281,743.2348,697.7249,744.05,690.56" style="stroke:#181818;stroke-width:1.0;"/><text fill="#000000" font-family="sans-serif" font-size="13" lengthAdjust="spacing" textLength="7" x="731.8527" y="711.5095">1</text><text fill="#000000" font-family="sans-serif" font-size="13" lengthAdjust="spacing" textLength="7" x="497.3789" y="851.657">1</text></g><!--link Estudiante to Matricula--><g id="link_Estudiante_Matricula"><path codeLine="134" d="M785.5,690.56 C785.5,735.05 785.5,796.94 785.5,838.86 " fill="none" id="Estudiante-Matricula" style="stroke:#181818;stroke-width:1.0;"/><text fill="#000000" font-family="sans-serif" font-size="13" lengthAdjust="spacing" textLength="7" x="778.0953" y="711.5095">1</text><text fill="#000000" font-family="sans-serif" font-size="13" lengthAdjust="spacing" textLength="7" x="777.9859" y="828.288">1</text></g><!--reverse link Bibliotecario to Persona--><g id="link_Bibliotecario_Persona"><path codeLine="135" d="M423.5,702.56 C423.5,735.71 423.5,766.53 423.5,803.54 " fill="none" id="Bibliotecario-backto-Persona" style="stroke:#181818;stroke-width:1.0;"/><polygon fill="#181818" points="423.5,690.56,419.5,696.56,423.5,702.56,427.5,696.56,423.5,690.56" style="stroke:#181818;stroke-width:1.0;"/><text fill="#000000" font-family="sans-serif" font-size="13" lengthAdjust="spacing" textLength="7" x="416.0953" y="711.5095">1</text><text fill="#000000" font-family="sans-serif" font-size="13" lengthAdjust="spacing" textLength="7" x="416.1992" y="793.2609">1</text></g><!--link Prestamo to Libro--><g id="link_Prestamo_Libro"><path codeLine="137" d="M889.57,365.24 C974.93,401.13 1096.83,458.16 1192.5,526 C1198.27,530.09 1204.03,534.49 1209.71,539.09 " fill="none" id="Prestamo-Libro" style="stroke:#181818;stroke-width:1.0;"/><text fill="#000000" font-family="sans-serif" font-size="13" lengthAdjust="spacing" textLength="7" x="897.4697" y="365.2189">1</text><text fill="#000000" font-family="sans-serif" font-size="13" lengthAdjust="spacing" textLength="7" x="1195.0369" y="528.3512">1</text></g><!--link Prestamo to Estudiante--><g id="link_Prestamo_Estudiante"><path codeLine="138" d="M785.5,432.14 C785.5,481.43 785.5,537.75 785.5,578.27 " fill="none" id="Prestamo-Estudiante" style="stroke:#181818;stroke-width:1.0;"/><text fill="#000000" font-family="sans-serif" font-size="13" lengthAdjust="spacing" textLength="7" x="778.2539" y="453.8421">1</text><text fill="#000000" font-family="sans-serif" font-size="13" lengthAdjust="spacing" textLength="7" x="778.0516" y="567.5882">1</text></g><!--reverse link Prestamo to Tipo_prestamo--><g id="link_Prestamo_Tipo_prestamo"><path codeLine="139" d="M669.9909,357.8985 C572.7809,389.2985 438.71,442.27 333.5,526 C310.37,544.41 290.32,570.87 275.96,592.94 " fill="none" id="Prestamo-backto-Tipo_prestamo" style="stroke:#181818;stroke-width:1.0;"/><polygon fill="#181818" points="681.41,354.21,674.471,352.2479,669.9909,357.8985,676.93,359.8606,681.41,354.21" style="stroke:#181818;stroke-width:1.0;"/><text fill="#000000" font-family="sans-serif" font-size="13" lengthAdjust="spacing" textLength="7" x="666.5089" y="353.3789">1</text><text fill="#000000" font-family="sans-serif" font-size="13" lengthAdjust="spacing" textLength="7" x="272.2659" y="582.2377">1</text></g><!--reverse link Prestamo to Estado_prestamo--><g id="link_Prestamo_Estado_prestamo"><path codeLine="140" d="M715.6351,442.4651 C685.1051,494.0151 656.13,542.94 631.96,583.75 " fill="none" id="Prestamo-backto-Estado_prestamo" style="stroke:#181818;stroke-width:1.0;"/><polygon fill="#181818" points="721.75,432.14,715.2508,435.2642,715.6351,442.4651,722.1342,439.3409,721.75,432.14" style="stroke:#181818;stroke-width:1.0;"/><text fill="#000000" font-family="sans-serif" font-size="13" lengthAdjust="spacing" textLength="7" x="710.0215" y="453.8421">1</text><text fill="#000000" font-family="sans-serif" font-size="13" lengthAdjust="spacing" textLength="7" x="628.6106" y="573.0202">1</text></g><!--reverse link Multa to Prestamo--><g id="link_Multa_Prestamo"><path codeLine="142" d="M963.8079,162.1547 C937.7579,185.5847 917.43,203.86 889.93,228.59 " fill="none" id="Multa-backto-Prestamo" style="stroke:#181818;stroke-width:1.0;"/><polygon fill="#181818" points="972.73,154.13,965.594,155.1683,963.8079,162.1547,970.9439,161.1164,972.73,154.13" style="stroke:#181818;stroke-width:1.0;"/><text fill="#000000" font-family="sans-serif" font-size="13" lengthAdjust="spacing" textLength="7" x="957.9614" y="175.1781">1</text><text fill="#000000" font-family="sans-serif" font-size="13" lengthAdjust="spacing" textLength="7" x="897.5188" y="218.855">1</text></g><!--reverse link Multa to Estado_multa--><g id="link_Multa_Estado_multa"><path codeLine="143" d="M1147.6891,137.5633 C1183.1091,160.6033 1213.41,183.36 1245.5,215 C1262.91,232.17 1279.16,253.66 1292.2,272.9 " fill="none" id="Multa-backto-Estado_multa" style="stroke:#181818;stroke-width:1.0;"/><polygon fill="#181818" points="1137.63,131.02,1140.4785,137.6447,1147.6891,137.5633,1144.8406,130.9386,1137.63,131.02" style="stroke:#181818;stroke-width:1.0;"/><text fill="#000000" font-family="sans-serif" font-size="13" lengthAdjust="spacing" textLength="7" x="1145.4345" y="132.3288">1</text><text fill="#000000" font-family="sans-serif" font-size="13" lengthAdjust="spacing" textLength="7" x="1280.4469" y="262.1913">1</text></g><!--link Libro to LibroGenero--><g id="link_Libro_LibroGenero"><path codeLine="145" d="M1229.6,743.12 C1206.91,776.62 1183.08,811.8 1164.83,838.75 " fill="none" id="Libro-LibroGenero" style="stroke:#181818;stroke-width:1.0;"/><text fill="#000000" font-family="sans-serif" font-size="13" lengthAdjust="spacing" textLength="7" x="1217.2281" y="764.8207">1</text><text fill="#000000" font-family="sans-serif" font-size="13" lengthAdjust="spacing" textLength="20" x="1147.9628" y="828.1618">1..*</text></g><!--link Genero to LibroGenero--><g id="link_Genero_LibroGenero"><path codeLine="146" d="M1118.01,681.55 C1121.42,726.33 1126.57,793.97 1129.98,838.79 " fill="none" id="Genero-LibroGenero" style="stroke:#181818;stroke-width:1.0;"/><text fill="#000000" font-family="sans-serif" font-size="13" lengthAdjust="spacing" textLength="7" x="1111.0114" y="702.8167">1</text><text fill="#000000" font-family="sans-serif" font-size="13" lengthAdjust="spacing" textLength="20" x="1107.9943" y="828.2077">1..*</text></g><!--reverse link Libro to Idioma--><g id="link_Libro_Idioma"><path codeLine="147" d="M1302.5,755.12 C1302.5,788.62 1302.5,811.8 1302.5,838.75 " fill="none" id="Libro-backto-Idioma" style="stroke:#181818;stroke-width:1.0;"/><polygon fill="#181818" points="1302.5,743.12,1298.5,749.12,1302.5,755.12,1306.5,749.12,1302.5,743.12" style="stroke:#181818;stroke-width:1.0;"/><text fill="#000000" font-family="sans-serif" font-size="13" lengthAdjust="spacing" textLength="7" x="1295.2539" y="764.8207">1</text><text fill="#000000" font-family="sans-serif" font-size="13" lengthAdjust="spacing" textLength="7" x="1294.9859" y="828.1618">1</text></g><!--link Libro to LibroAutor--><g id="link_Libro_LibroAutor"><path codeLine="148" d="M1209.87,730.14 C1204.15,734.68 1198.34,739 1192.5,743 C1138.51,779.98 1112.61,767.2 1058.5,804 C1043.93,813.91 1029.56,826.44 1016.93,838.66 " fill="none" id="Libro-LibroAutor" style="stroke:#181818;stroke-width:1.0;"/><text fill="#000000" font-family="sans-serif" font-size="13" lengthAdjust="spacing" textLength="7" x="1194.9092" y="734.8996">1</text><text fill="#000000" font-family="sans-serif" font-size="13" lengthAdjust="spacing" textLength="20" x="1001.6932" y="828.0586">1..*</text></g><!--link Autor to LibroAutor--><g id="link_Autor_LibroAutor"><path codeLine="149" d="M960.64,681.55 C963.69,726.33 968.3,793.97 971.35,838.79 " fill="none" id="Autor-LibroAutor" style="stroke:#181818;stroke-width:1.0;"/><text fill="#000000" font-family="sans-serif" font-size="13" lengthAdjust="spacing" textLength="7" x="953.5894" y="702.8167">1</text><text fill="#000000" font-family="sans-serif" font-size="13" lengthAdjust="spacing" textLength="20" x="949.4186" y="828.2077">0..*</text></g><!--reverse link Stock_Libros to Libro--><g id="link_Stock_Libros_Libro"><path codeLine="151" d="M1187.8707,398.9305 C1207.2607,438.5905 1227.42,479.86 1249.88,525.82 " fill="none" id="Stock_Libros-backto-Libro" style="stroke:#181818;stroke-width:1.0;"/><polygon fill="#181818" points="1182.6,388.15,1181.6418,395.2972,1187.8707,398.9305,1188.8288,391.7834,1182.6,388.15" style="stroke:#181818;stroke-width:1.0;"/><text fill="#000000" font-family="sans-serif" font-size="13" lengthAdjust="spacing" textLength="96" x="1236.5" y="476.4951">Libro al que est&#225;</text><text fill="#000000" font-family="sans-serif" font-size="13" lengthAdjust="spacing" textLength="104" x="1232.5" y="492.8467">Enlazado el stock</text><text fill="#000000" font-family="sans-serif" font-size="13" lengthAdjust="spacing" textLength="7" x="1178.6187" y="409.6027">1</text><text fill="#000000" font-family="sans-serif" font-size="13" lengthAdjust="spacing" textLength="7" x="1238.9341" y="515.1168">1</text></g><!--SRC=[fLLTJjmm47xtAQnzf1Irhn52WjqjGe8ABL2fKgN8cmoBXMEdjjDVzJ0zGi_0nJgEuyGnsLtKvY5EPiRVVFDdcqSkQwPPHUU26KD_4ehF6IiUDrerifmheVJnyL9QNhBov8HUyis3FTS0SjfomQpAxoGlL30-4mrCswv0i88h6IpdIZEnaq1UGZvNqcebmgQF88JwkcrNKqMSlvDVXFWuhq4R9HcDGlEXlxeeQKQvj8V-zxsgrXeoQgpcSjC9JsjqoakLY6z1mBsIgNWEPIDO8bnm3OKBVYmV6DwPXcck9Xd61Bj8iX1I9-wsfrHSxfY1fpyfdvKI6SNNG61fR5Do9YtyAuShXXwADlR-yz0vA5e7lOoEssRIHOJbUIEEvtd6ru8h2yN_f6lEj0GxvAJFmYLVw_sejzms8atsikJF2-oaLcdEHDfJ3OepsYw7mGTN5LBrQmY0RRXa9lP-fqL-KR4DfBwSuWF6YImMVCDjxBIFyCQguZ5lupHqUj8cOsvtP3v1VHQbpPVVkB60RHCRjve5DxMIM2wl6YYqGR-a2z9fx15yYbu24PBw3E8S9BIbtWlXBISWhZKOowhz_OApnTpnuTUyxlRrtLIZphrJpJ2JMJIVkmlYQCI-tq7nmF8R9R0x4I6Z62zONi58lqAHGvjKBk2B4erlxc0mPE6g4PRj7yGkigpFMZWPmHIQrnEZSuNzg7QaiNAEqzdjophSDfvFdAvM4ChgrmGcjEWk5Cyg7cG40Ro3tC7gpK_BYajlDpgtl6WegVFUxen3yn3N84iEVTdnF61bTpYii2v5-vTi3sqqYN1QQxL6gu215Vw1lpt6g14zGjyzUUdFbR3NDKr-pmqEZziVBh7PsnazUFswNSFL6vu9ewEZWvdB6HsCI7GTRKDBRJgJuPuXuxjY6eUGVemZ4DycKvgeQ2DrG1wbRzeagH8XVeH6_8BkkIfk4KByXTNpQrCP3GBfvc6xmG0G7FWZSpkoRtK_8K7z9bMJqJqJmtlSZCxy1nFqSmCKmttw_KakfMYxaOB0mm0HPkGl]--></g></svg>