<?xml version="1.0" encoding="us-ascii" standalone="no"?><svg xmlns="http://www.w3.org/2000/svg" xmlns:xlink="http://www.w3.org/1999/xlink" contentStyleType="text/css" height="575px" preserveAspectRatio="none" style="width:2377px;height:575px;background:#FFFFFF;" version="1.1" viewBox="0 0 2377 575" width="2377px" zoomAndPan="magnify"><defs/><g><!--cluster Biblioteca Online--><g id="cluster_Biblioteca Online"><rect fill="none" height="470" rx="2.5" ry="2.5" style="stroke:#181818;stroke-width:1.0;" width="2364" x="7" y="99.5"/><text fill="#000000" font-family="sans-serif" font-size="14" font-weight="bold" lengthAdjust="spacing" textLength="120" x="1129" y="116.0332">Biblioteca Online</text></g><!--cluster E--><g id="cluster_E"><rect fill="none" height="243" rx="2.5" ry="2.5" style="stroke:#181818;stroke-width:1.0;" width="687" x="39" y="172"/><text fill="#000000" font-family="sans-serif" font-size="14" font-weight="bold" lengthAdjust="spacing" textLength="258" x="253.5" y="188.5332">Funciones exclusivas del estudiante</text></g><!--cluster BA--><g id="cluster_BA"><rect fill="none" height="386" rx="2.5" ry="2.5" style="stroke:#181818;stroke-width:1.0;" width="1226" x="883" y="151.5"/><text fill="#000000" font-family="sans-serif" font-size="14" font-weight="bold" lengthAdjust="spacing" textLength="164" x="1414" y="168.0332">Funciones compartidas</text><text fill="#000000" font-family="sans-serif" font-size="14" font-weight="bold" lengthAdjust="spacing" textLength="212" x="1390" y="185.6426">(Bibliotecario y Administrador)</text></g><g id="elem_L"><ellipse cx="802.8822" cy="243.1552" fill="#D3D3D3" rx="52.3822" ry="27.1552" style="stroke:#000000;stroke-width:0.5;"/><text fill="#000000" font-family="sans-serif" font-size="14" font-style="italic" lengthAdjust="spacing" textLength="56" x="770.8822" y="238.8672">&#171;Todos&#187;</text><text fill="#000000" font-family="sans-serif" font-size="14" lengthAdjust="spacing" textLength="60" x="768.8822" y="256.4765">Logearse</text></g><g id="elem_A1"><ellipse cx="2243.8965" cy="242.993" fill="#F08080" rx="110.3965" ry="26.493" style="stroke:#000000;stroke-width:0.5;"/><text fill="#000000" font-family="sans-serif" font-size="14" font-style="italic" lengthAdjust="spacing" textLength="103" x="2185.9481" y="237.3227">&#171;Administrador&#187;</text><text fill="#000000" font-family="sans-serif" font-size="14" lengthAdjust="spacing" textLength="149" x="2162.9481" y="254.9321">Gestionar bibliotecarios</text></g><g id="elem_Ver libros disponibles"><ellipse cx="182.2283" cy="243.1745" fill="#ADD8E6" rx="99.7283" ry="26.1745" style="stroke:#000000;stroke-width:0.5;"/><text fill="#000000" font-family="sans-serif" font-size="14" font-style="italic" lengthAdjust="spacing" textLength="83" x="134.6454" y="237.1073">&#171;Estudiante&#187;</text><text fill="#000000" font-family="sans-serif" font-size="14" lengthAdjust="spacing" textLength="135" x="108.6454" y="254.7166">Ver libros disponibles</text></g><g id="elem_Reservar libros"><ellipse cx="393.9175" cy="243.1045" fill="#ADD8E6" rx="76.9175" ry="27.1045" style="stroke:#000000;stroke-width:0.5;"/><text fill="#000000" font-family="sans-serif" font-size="14" font-style="italic" lengthAdjust="spacing" textLength="83" x="346.8875" y="238.6176">&#171;Estudiante&#187;</text><text fill="#000000" font-family="sans-serif" font-size="14" lengthAdjust="spacing" textLength="96" x="340.3875" y="256.227">Reservar libros</text></g><g id="elem_Ver reservas propias"><ellipse cx="603.9322" cy="243.218" fill="#ADD8E6" rx="97.9322" ry="26.218" style="stroke:#000000;stroke-width:0.5;"/><text fill="#000000" font-family="sans-serif" font-size="14" font-style="italic" lengthAdjust="spacing" textLength="83" x="556.3944" y="237.2301">&#171;Estudiante&#187;</text><text fill="#000000" font-family="sans-serif" font-size="14" lengthAdjust="spacing" textLength="132" x="531.8944" y="254.8395">Ver reservas propias</text></g><g id="elem_Ver sus multas"><ellipse cx="182.2321" cy="362.7278" fill="#ADD8E6" rx="75.2321" ry="27.2278" style="stroke:#000000;stroke-width:0.5;"/><text fill="#000000" font-family="sans-serif" font-size="14" font-style="italic" lengthAdjust="spacing" textLength="83" x="135.2405" y="358.4374">&#171;Estudiante&#187;</text><text fill="#000000" font-family="sans-serif" font-size="14" lengthAdjust="spacing" textLength="93" x="130.2405" y="376.0467">Ver sus multas</text></g><g id="elem_Ver/descargar libros virtuales"><ellipse cx="414.023" cy="362.3046" fill="#ADD8E6" rx="122.023" ry="26.8046" style="stroke:#000000;stroke-width:0.5;"/><text fill="#000000" font-family="sans-serif" font-size="14" font-style="italic" lengthAdjust="spacing" textLength="83" x="366.599" y="354.5806">&#171;Estudiante&#187;</text><text fill="#000000" font-family="sans-serif" font-size="14" lengthAdjust="spacing" textLength="185" x="315.599" y="372.1899">Ver/descargar libros virtuales</text></g><g id="elem_Registrarse"><ellipse cx="635.1191" cy="362.324" fill="#ADD8E6" rx="64.1191" ry="28.324" style="stroke:#000000;stroke-width:0.5;"/><text fill="#000000" font-family="sans-serif" font-size="14" font-style="italic" lengthAdjust="spacing" textLength="83" x="593.1191" y="358.0359">&#171;Estudiante&#187;</text><text fill="#000000" font-family="sans-serif" font-size="14" lengthAdjust="spacing" textLength="73" x="598.1191" y="375.6453">Registrarse</text></g><g id="elem_Ver cat&#225;logo completo"><ellipse cx="1056.9344" cy="242.9869" fill="#90EE90" rx="130.4344" ry="28.4869" style="stroke:#000000;stroke-width:0.5;"/><text fill="#000000" font-family="sans-serif" font-size="14" font-style="italic" lengthAdjust="spacing" textLength="195" x="959.4344" y="240.6849">&#171;Bibliotecario y Administrador&#187;</text><text fill="#000000" font-family="sans-serif" font-size="14" lengthAdjust="spacing" textLength="141" x="986.4344" y="258.2943">Ver cat&#225;logo completo</text></g><g id="elem_Ver todas las reservas"><ellipse cx="1353.0688" cy="243.0138" fill="#90EE90" rx="130.5688" ry="28.5138" style="stroke:#000000;stroke-width:0.5;"/><text fill="#000000" font-family="sans-serif" font-size="14" font-style="italic" lengthAdjust="spacing" textLength="195" x="1255.5688" y="240.6701">&#171;Bibliotecario y Administrador&#187;</text><text fill="#000000" font-family="sans-serif" font-size="14" lengthAdjust="spacing" textLength="142" x="1282.0688" y="258.2795">Ver todas las reservas</text></g><g id="elem_Ver todas las multas"><ellipse cx="1647.7836" cy="243.1567" fill="#90EE90" rx="128.7836" ry="28.1567" style="stroke:#000000;stroke-width:0.5;"/><text fill="#000000" font-family="sans-serif" font-size="14" font-style="italic" lengthAdjust="spacing" textLength="195" x="1550.2836" y="241.3724">&#171;Bibliotecario y Administrador&#187;</text><text fill="#000000" font-family="sans-serif" font-size="14" lengthAdjust="spacing" textLength="128" x="1583.7836" y="258.9817">Ver todas las multas</text></g><g id="elem_Aprobar/rechazar reservas"><ellipse cx="1947.1158" cy="242.8232" fill="#90EE90" rx="134.6158" ry="29.3232" style="stroke:#000000;stroke-width:0.5;"/><text fill="#000000" font-family="sans-serif" font-size="14" font-style="italic" lengthAdjust="spacing" textLength="195" x="1849.6158" y="239.2504">&#171;Bibliotecario y Administrador&#187;</text><text fill="#000000" font-family="sans-serif" font-size="14" lengthAdjust="spacing" textLength="169" x="1862.6158" y="256.8598">Aprobar/rechazar reservas</text></g><g id="elem_Generar multas"><ellipse cx="1041.1277" cy="362.5255" fill="#90EE90" rx="125.6277" ry="27.5255" style="stroke:#000000;stroke-width:0.5;"/><text fill="#000000" font-family="sans-serif" font-size="14" font-style="italic" lengthAdjust="spacing" textLength="195" x="943.6277" y="361.7604">&#171;Bibliotecario y Administrador&#187;</text><text fill="#000000" font-family="sans-serif" font-size="14" lengthAdjust="spacing" textLength="98" x="992.1277" y="379.3697">Generar multas</text></g><g id="elem_Cobrar/revocar multas"><ellipse cx="1331.9344" cy="362.4869" fill="#90EE90" rx="130.4344" ry="28.4869" style="stroke:#000000;stroke-width:0.5;"/><text fill="#000000" font-family="sans-serif" font-size="14" font-style="italic" lengthAdjust="spacing" textLength="195" x="1234.4344" y="360.1849">&#171;Bibliotecario y Administrador&#187;</text><text fill="#000000" font-family="sans-serif" font-size="14" lengthAdjust="spacing" textLength="141" x="1261.4344" y="377.7943">Cobrar/revocar multas</text></g><g id="elem_Registrar reservas inmediatas"><ellipse cx="1636.1394" cy="362.5279" fill="#90EE90" rx="138.1394" ry="30.0279" style="stroke:#000000;stroke-width:0.5;"/><text fill="#000000" font-family="sans-serif" font-size="14" font-style="italic" lengthAdjust="spacing" textLength="195" x="1537.1394" y="358.2398">&#171;Bibliotecario y Administrador&#187;</text><text fill="#000000" font-family="sans-serif" font-size="14" lengthAdjust="spacing" textLength="189" x="1540.1394" y="375.8492">Registrar reservas inmediatas</text></g><g id="elem_Agregar/remover libros f&#237;sicos"><ellipse cx="1946.9564" cy="362.4913" fill="#90EE90" rx="137.9564" ry="29.9913" style="stroke:#000000;stroke-width:0.5;"/><text fill="#000000" font-family="sans-serif" font-size="14" font-style="italic" lengthAdjust="spacing" textLength="195" x="1848.2064" y="358.2032">&#171;Bibliotecario y Administrador&#187;</text><text fill="#000000" font-family="sans-serif" font-size="14" lengthAdjust="spacing" textLength="188" x="1851.7064" y="375.8126">Agregar/remover libros f&#237;sicos</text></g><g id="elem_Agregar/remover libros virtuales"><ellipse cx="1056.0381" cy="483.0076" fill="#90EE90" rx="140.5381" ry="30.5076" style="stroke:#000000;stroke-width:0.5;"/><text fill="#000000" font-family="sans-serif" font-size="14" font-style="italic" lengthAdjust="spacing" textLength="195" x="953.7881" y="478.7195">&#171;Bibliotecario y Administrador&#187;</text><text fill="#000000" font-family="sans-serif" font-size="14" lengthAdjust="spacing" textLength="202" x="950.2881" y="496.3289">Agregar/remover libros virtuales</text></g><g id="elem_Bloquear estudiantes"><ellipse cx="1361.0234" cy="482.8047" fill="#90EE90" rx="129.5234" ry="28.3047" style="stroke:#000000;stroke-width:0.5;"/><text fill="#000000" font-family="sans-serif" font-size="14" font-style="italic" lengthAdjust="spacing" textLength="195" x="1263.5234" y="480.7872">&#171;Bibliotecario y Administrador&#187;</text><text fill="#000000" font-family="sans-serif" font-size="14" lengthAdjust="spacing" textLength="134" x="1294.0234" y="498.3965">Bloquear estudiantes</text></g><!--entity Estudiante--><g id="elem_Estudiante"><ellipse cx="372" cy="14" fill="#F1F1F1" rx="8" ry="8" style="stroke:#181818;stroke-width:0.5;"/><path d="M372,22 L372,49 M359,30 L385,30 M372,49 L359,64 M372,49 L385,64 " fill="none" style="stroke:#181818;stroke-width:0.5;"/><text fill="#000000" font-family="sans-serif" font-size="14" lengthAdjust="spacing" textLength="67" x="338.5" y="80.0332">Estudiante</text></g><!--entity Bibliotecario--><g id="elem_Bibliotecario"><ellipse cx="803" cy="14" fill="#F1F1F1" rx="8" ry="8" style="stroke:#181818;stroke-width:0.5;"/><path d="M803,22 L803,49 M790,30 L816,30 M803,49 L790,64 M803,49 L816,64 " fill="none" style="stroke:#181818;stroke-width:0.5;"/><text fill="#000000" font-family="sans-serif" font-size="14" lengthAdjust="spacing" textLength="77" x="764.5" y="80.0332">Bibliotecario</text></g><!--entity Administrador--><g id="elem_Administrador"><ellipse cx="920" cy="14" fill="#F1F1F1" rx="8" ry="8" style="stroke:#181818;stroke-width:0.5;"/><path d="M920,22 L920,49 M907,30 L933,30 M920,49 L907,64 M920,49 L933,64 " fill="none" style="stroke:#181818;stroke-width:0.5;"/><text fill="#000000" font-family="sans-serif" font-size="14" lengthAdjust="spacing" textLength="87" x="876.5" y="80.0332">Administrador</text></g><!--link Estudiante to L--><g id="link_Estudiante_L"><path d="M405.78,46.23 C482.56,48.47 667.48,57.35 718,91.5 C761.88,121.16 783.9126,175.7201 794.4426,210.3101 " fill="none" id="Estudiante-to-L" style="stroke:#000000;stroke-width:1.0;"/><polygon fill="#000000" points="796.19,216.05,797.3956,206.2752,794.7339,211.2667,789.7423,208.605,796.19,216.05" style="stroke:#000000;stroke-width:1.0;"/></g><!--link Administrador to L--><g id="link_Administrador_L"><path d="M880.98,83.6 C878.87,86.2 876.86,88.85 875,91.5 C846.7,131.97 826.3042,179.6862 814.4042,210.7862 " fill="none" id="Administrador-to-L" style="stroke:#000000;stroke-width:1.0;"/><polygon fill="#000000" points="812.26,216.39,819.2122,209.4138,814.0468,211.7202,811.7405,206.5549,812.26,216.39" style="stroke:#000000;stroke-width:1.0;"/></g><!--link Bibliotecario to L--><g id="link_Bibliotecario_L"><path d="M803,83.85 C803,122.83 803,176.15 803,209.97 " fill="none" id="Bibliotecario-to-L" style="stroke:#000000;stroke-width:1.0;"/><polygon fill="#000000" points="803,215.97,807,206.97,803,210.97,799,206.97,803,215.97" style="stroke:#000000;stroke-width:1.0;"/></g><!--link Estudiante to E--><g id="link_Estudiante_E"><path d="M338.26,45.65 C266.71,46.71 103.25,53.36 66,91.5 C42.815,115.24 37.85,152.07 38.7862,183.3538 C38.8155,184.3314 38.8505,185.3036 38.8909,186.2698 C38.9111,186.7529 38.9327,187.2345 38.9555,187.7145 C38.967,187.9546 38.6764,182.2018 38.6885,182.4411 " fill="none" id="Estudiante-to-E" style="stroke:#000000;stroke-width:1.0;"/><polygon fill="#000000" points="38.9908,188.4334,42.5322,179.2433,38.7389,183.4398,34.5424,179.6464,38.9908,188.4334" style="stroke:#000000;stroke-width:1.0;"/></g><!--link Bibliotecario to BA--><g id="link_Bibliotecario_BA"><path d="M841.53,73.93 C847.22,77.45 853.15,80.76 859,83.5 C870.72,88.98 879.07,81.27 887,91.5 C892.045,98.0075 894.8494,110.4269 896.2103,125.4542 C896.8908,132.9679 897.2104,141.1336 897.2688,149.5382 C897.2724,150.0635 897.2565,144.5898 897.2581,145.1168 " fill="none" id="Bibliotecario-to-BA" style="stroke:#000000;stroke-width:1.0;"/><polygon fill="#000000" points="897.2767,151.1168,901.2488,142.1044,897.2612,146.1168,893.2488,142.1292,897.2767,151.1168" style="stroke:#000000;stroke-width:1.0;"/></g><!--link Administrador to BA--><g id="link_Administrador_BA"><path d="M901.35,83.51 C900.45,86.18 899.65,88.86 899,91.5 C895.07,107.51 892.59,124.7544 891.0842,141.6561 C890.896,143.7688 890.723,145.8762 890.5643,147.9751 C890.4849,149.0246 890.8235,144.0862 890.7511,145.1311 " fill="none" id="Administrador-to-BA" style="stroke:#000000;stroke-width:1.0;"/><polygon fill="#000000" points="890.3368,151.1168,894.9488,142.4145,890.6821,146.1287,886.9679,141.862,890.3368,151.1168" style="stroke:#000000;stroke-width:1.0;"/></g><!--link Administrador to A1--><g id="link_Administrador_A1"><path d="M963.8,45.26 C1165.09,44.44 1995.96,43.97 2101,91.5 C2159.78,118.1 2203.0415,176.0227 2225.6915,211.5027 " fill="none" id="Administrador-to-A1" style="stroke:#000000;stroke-width:1.0;"/><polygon fill="#000000" points="2228.92,216.56,2227.4487,206.8217,2226.2296,212.3456,2220.7056,211.1264,2228.92,216.56" style="stroke:#000000;stroke-width:1.0;"/></g><!--SRC=[hLNDQjj04BxhAGQVsaC8kOU0P5nV38MszDJBMfegIrOxwipAhLlyC7s0FaLUhEEr9Kj4ReKTWGMUdU-RR-TFycHzRTXKK9lyoPJuCMmT0cCUZ2yT9j8vD8Av4OHV2UYJgNl9rFXYJexu_duXeIciyG4V7c1boyUGkGR7VJzHGTAwBTbinztIehBUIc1J4BVkSsBZnlqpktQMWifaIx25KVoI4Vq1JrmWHonaJicYDMMcxttZBabC7lJlwOP7mo3UqJQ8cIHT8c5syeRttbcFCqrb3DbcThQY4WsBdXY15NI9EhYTuiFDZTxc8BSVhsSVvk9WZmSzHUyQdrloA80_SjU8tMZO0XrW5oagMS2nw0Endv71sJMJOgpKv3KYoWnWs0ilWHzGa3UcHKz0x4Fn0ILGCzNMJ8L98r0rBam5t1OechEoamSRow4nKwzMnbh46euux_RlysN8gT9P2xOmyiM_-MSxlusLoT8pXSbDUFxjgAJ8wJ3GNiz_1cISAf3A0QU_jWIlGDMMv0AYL1jWRVXMC_XeVXg-JjOIFMgzhX4qfpL7FHlAhsFgskVKxTPNg2rqSR9AnZAAgsXp6jYlpt_4vlIgdBqvkO0qS_IjqUNNspsJYNQZ-t5nPWzcwPd5UJpejOO4dKlLjEwJI9oyz0vUVA3EyAPtoUul]--></g></svg>